<?xml version="1.0" encoding="utf-8"?>
<!-- Generator: Adobe Illustrator 22.1.0, SVG Export Plug-In . SVG Version: 6.00 Build 0)  -->
<svg version="1.1" id="Layer_1" xmlns="http://www.w3.org/2000/svg" xmlns:xlink="http://www.w3.org/1999/xlink" x="0px" y="0px"
	 viewBox="0 0 1310.9 1062" style="enable-background:new 0 0 1310.9 1062;" xml:space="preserve">
<style type="text/css">
	.st0{fill:#3B6620;}
	.st1{fill:#599029;}
	.st2{fill:#8BBC4E;}
	.st3{fill:#F51B1B;}
	.st4{fill:#F0A6A6;}
	.st5{fill:#BEDBFF;}
	.st6{fill:#FFFFFF;fill-opacity:0.466;}
	.st7{fill:#F5DF3F;}
	.st8{fill:#FFFFFF;fill-opacity:0.585;}
	.st9{fill:url(#SVGID_1_);}
	.st10{fill:#FFFFFF;fill-opacity:0.4898;}
	.st11{fill:url(#SVGID_2_);}
	.st12{fill:#A55325;}
	.st13{fill:#E7CC00;}
	.st14{fill:#F17D23;}
	.st15{fill:none;}
</style>
<g id="_566188592_7_">
	<path class="st0" d="M1153.3,143.2c-8.7-7.6-17-11.3-27.9-13c6.8-4.1,14.3-5.9,22.9-3.7c-4-9.8-9.9-18.1-18.1-24.7
		c10.8,0.5,19.2,3.6,23.7,10.8c3.2-14.5,9.7-25.5,20-32.6c-2.9,11.1-2.7,21.7-0.3,32.1c13.8-11.3,28.1-18.5,42.9-21.8
		c-4.1,5.5-6.8,11.4-5.3,19c14.1-6,27.9-8.4,41.3-5.2c-7.6,5.1-11.4,10.9-11.3,17.3c15.1,1.2,23.5,8.5,29.5,18.2
		c-13.4-3.3-17.7-1.6-18.4,2.1c11,1.5,17.9,6.3,21.8,13.4c-13.8-1.8-28.5,0.1-43.7,3.9L1153.3,143.2z"/>
	<path class="st1" d="M1180.1,145.4c-4.3-0.3-8.6-0.7-12.9-1.1c-7.4-11.7-11-22.6-5.8-31.8C1165.9,123.8,1172.3,134.7,1180.1,145.4z
		"/>
	<path class="st2" d="M1199.3,147.2c-3.3,0.2-6.7,0.3-10,0.5c-4.7-16-2.3-28.6,9.5-36.5C1196.7,123.2,1196.8,135.2,1199.3,147.2z"/>
	<path class="st1" d="M1224,156.2c-6.1-2.3-12.3-4.6-18.4-6.8c4.2-16.6,11.3-28.8,23.9-32.1c-2.5,4.7-3.7,9.5-2.4,14.2
		c8.3-0.4,13.6,0.5,15.5,2.9C1233.9,138.7,1227.9,146.2,1224,156.2z"/>
	<path class="st3" d="M1104.7,170.1c8.6-14.9,21.6-28.6,49.4-30c32.2-1.6,59.2,6.7,81.5,18.4c28,14.6,31.7,32.4,28.4,51.5
		c-7.8,44.9-35.8,71.9-70.5,96.8c-16.1,11.5-31.1,19.5-48.9,17.9c-21.7-2-31.2-17.5-36.8-37.3
		C1093.8,237.8,1089.2,196.8,1104.7,170.1z"/>
	<path class="st4" d="M1229.4,180.1c-3.3-0.5-3,11.7,3.4,3.8C1234.7,181.6,1229.5,180.1,1229.4,180.1z"/>
	<path class="st4" d="M1185.6,166c-3.3-0.5-3,11.7,3.5,3.8C1191,167.4,1185.7,166,1185.6,166z"/>
	<path class="st4" d="M1159.9,197.6c-3.3-0.5-3,11.7,3.4,3.8C1165.3,199.1,1160,197.6,1159.9,197.6z"/>
	<path class="st4" d="M1202.8,221c3.3-0.3,0.3-12.1-4.2-2.9C1197.3,220.7,1202.7,221,1202.8,221z"/>
	<path class="st4" d="M1213.3,268.2c3.4-0.3,0.3-12.1-4.2-2.9C1207.7,267.9,1213.2,268.2,1213.3,268.2z"/>
	<path class="st4" d="M1129.7,257.2c3.4-0.3,0.3-12.1-4.2-2.9C1124.2,256.9,1129.7,257.2,1129.7,257.2z"/>
	<path class="st4" d="M1207.1,169.4c-9.5,4.2,2,14.7,2.9,1.2C1210.1,168.8,1208.2,168.9,1207.1,169.4z"/>
	<path class="st4" d="M1181.3,201c-9.5,4.2,2,14.7,2.9,1.2C1184.3,200.5,1182.5,200.5,1181.3,201z"/>
	<path class="st4" d="M1163.3,155.2c-9.5,4.2,2,14.8,2.9,1.2C1166.3,154.6,1164.4,154.7,1163.3,155.2z"/>
	<path class="st4" d="M1137.6,186.8c-9.5,4.2,2,14.7,2.9,1.2C1140.6,186.3,1138.7,186.3,1137.6,186.8z"/>
	<path class="st4" d="M1186.1,261c-9.5,4.2,2,14.8,2.9,1.2C1189.1,260.5,1187.3,260.5,1186.1,261z"/>
	<path class="st4" d="M1132.2,156.8c-9.5,4.2,2,14.7,2.9,1.2C1135.3,156.2,1133.4,156.3,1132.2,156.8z"/>
	<path class="st4" d="M1227,226.7c8.3-6.2-5.2-14-3.1-0.5C1224.2,227.9,1226,227.4,1227,226.7z"/>
	<path class="st4" d="M1173.4,258.7c8.3-6.2-5.2-14-3.1-0.5C1170.6,259.8,1172.4,259.4,1173.4,258.7z"/>
	<path class="st4" d="M1157.6,263.3c8.3-6.2-5.1-14-3.1-0.5C1154.8,264.5,1156.6,264.1,1157.6,263.3z"/>
	<path class="st4" d="M1212.2,188.2c-12.2,5.4,2.4,13.9,2,1.8C1214.1,189.4,1212.5,188,1212.2,188.2z"/>
	<path class="st4" d="M1139.1,224.4c-12.2,5.3,2.5,13.9,2,1.8C1141.1,225.6,1139.4,224.2,1139.1,224.4z"/>
	<path class="st4" d="M1186.5,219.8c-12.2,5.3,2.4,13.9,2,1.8C1188.4,221,1186.8,219.7,1186.5,219.8z"/>
	<path class="st4" d="M1211.6,228.9c-12.2,5.4,2.4,13.9,2,1.8C1213.6,230.1,1212,228.8,1211.6,228.9z"/>
	<path class="st4" d="M1138.6,265.1c-12.2,5.3,2.5,13.9,2,1.8C1140.5,266.3,1138.9,265,1138.6,265.1z"/>
	<path class="st4" d="M1168.4,174c-12.2,5.4,2.5,13.9,2,1.9C1170.4,175.2,1168.7,173.8,1168.4,174z"/>
	<path class="st4" d="M1142.7,205.6c-12.2,5.4,2.5,13.9,2,1.8C1144.7,206.8,1143,205.5,1142.7,205.6z"/>
	<path class="st4" d="M1181,290.3c-12.2,5.3,2.5,13.9,2,1.8C1183,291.5,1181.3,290.2,1181,290.3z"/>
	<path class="st4" d="M1217.9,209.4c10.7-7.9-5.4-13-2.4-1.4C1215.7,208.7,1217.6,209.6,1217.9,209.4z"/>
	<path class="st4" d="M1144.8,245.6c10.7-7.9-5.4-13-2.3-1.4C1142.6,244.9,1144.5,245.8,1144.8,245.6z"/>
	<path class="st4" d="M1189.8,185.9c-10.6,5.7,3.2,13.6,3.5,2.5C1193.4,186.9,1190.7,185.5,1189.8,185.9z"/>
	<path class="st4" d="M1164.1,217.6c-10.6,5.7,3.2,13.6,3.5,2.5C1167.7,218.6,1165,217.1,1164.1,217.6z"/>
	<path class="st4" d="M1201.4,247.2c-10.6,5.7,3.2,13.6,3.5,2.5C1205,248.2,1202.2,246.7,1201.4,247.2z"/>
	<path class="st4" d="M1182.5,237.3c-10.5,5.7,3.2,13.6,3.5,2.5C1186.1,238.3,1183.4,236.8,1182.5,237.3z"/>
	<path class="st4" d="M1197.8,272.5c-10.6,5.7,3.2,13.6,3.5,2.5C1201.4,273.5,1198.6,272.1,1197.8,272.5z"/>
	<path class="st4" d="M1224.9,243.6c-10.6,5.7,3.2,13.6,3.5,2.5C1228.5,244.6,1225.7,243.1,1224.9,243.6z"/>
	<path class="st4" d="M1151.8,279.8c-10.5,5.7,3.2,13.6,3.5,2.5C1155.4,280.8,1152.6,279.3,1151.8,279.8z"/>
	<path class="st4" d="M1129,290.6c-10.5,5.7,3.2,13.6,3.6,2.5C1132.6,291.6,1129.8,290.2,1129,290.6z"/>
	<path class="st4" d="M1146,171.8c-10.5,5.7,3.2,13.6,3.5,2.5C1149.6,172.7,1146.9,171.3,1146,171.8z"/>
	<path class="st4" d="M1120.3,203.4c-10.5,5.7,3.2,13.6,3.5,2.5C1123.9,204.4,1121.2,202.9,1120.3,203.4z"/>
	<path class="st4" d="M1174.9,271.7c-10.5,5.7,3.2,13.6,3.6,2.5C1178.5,272.7,1175.8,271.3,1174.9,271.7z"/>
	<path class="st4" d="M1119.9,228.9c-10.6,5.7,3.2,13.6,3.5,2.5C1123.5,229.9,1120.8,228.4,1119.9,228.9z"/>
	<path class="st4" d="M1118.9,179.7c-10.5,5.7,3.2,13.6,3.5,2.5C1122.5,180.7,1119.7,179.2,1118.9,179.7z"/>
	<path class="st4" d="M1153.6,303.6c-10.6,5.7,3.2,13.6,3.5,2.5C1157.2,304.6,1154.4,303.1,1153.6,303.6z"/>
	<path class="st4" d="M1240.2,206.7c9.1-7.8-6.1-12.6-4-1.7C1236.4,206.5,1239.4,207.4,1240.2,206.7z"/>
	<path class="st4" d="M1167.1,242.9c9-7.8-6.1-12.5-4-1.7C1163.4,242.7,1166.4,243.5,1167.1,242.9z"/>
</g>
<g transform="matrix(.56618 0 0 .56618 -452.28 21.535)">
	<path class="st5" d="M911.4,805.1l20.3,611c94.8,66.9,234.9,62.5,336,4.7l46.9-609.5C1157.6,751.6,1031.3,770.1,911.4,805.1
		L911.4,805.1z"/>
	<path class="st6" d="M925.3,813.6c-0.6,0.7,76.7,40.6,176.7,42.1c104.6,1.5,202.8-34.7,196.8-38.8c0,0-76.5-33.2-170.2-35.1
		S925.3,813.6,925.3,813.6L925.3,813.6z"/>
	<g>
		<path class="st7" d="M926.8,832.3l34.9,522.3c92.6,39,190.7,41.7,284.4-6.3l53.3-512.2C1160.4,892.5,1021.8,878.8,926.8,832.3
			L926.8,832.3z"/>
		<path class="st7" d="M940.8,820.5c99-34.5,250.8-39.8,343.4,3.5C1165.4,877.2,1009,858.7,940.8,820.5z"/>
	</g>
	<path class="st8" d="M939.7,822.8c14.2,6.4,28.3,12.2,42,17l12.1,606.2c-9.9-3.3-19.7-7.1-29.1-12.5L939.7,822.8L939.7,822.8z"/>
	
		<linearGradient id="SVGID_1_" gradientUnits="userSpaceOnUse" x1="7393.394" y1="2188.7029" x2="7262.894" y2="2172.9229" gradientTransform="matrix(0.3206 0 0 0.3206 -1071.238 440.3257)">
		<stop  offset="0" style="stop-color:#FFFFFF;stop-opacity:0.7922"/>
		<stop  offset="1" style="stop-color:#FFFFFF;stop-opacity:0"/>
	</linearGradient>
	<path class="st9" d="M1233.7,844c24.3-6.9,46.9-14.2,69.7-24.8l-63.7,613.7c-23.6,10.4-36.2,14.3-52.1,18.9L1233.7,844L1233.7,844z
		"/>
	<path class="st10" d="M1179.8,1453.1l45.6-606.9l-16.5,4.5l-42.3,605.7L1179.8,1453.1L1179.8,1453.1z"/>
</g>
<g transform="matrix(.56618 0 0 .56618 -452.28 21.535)">
	<path class="st5" d="M2631.7,805.1l20.3,611c94.8,66.9,234.9,62.5,336,4.7l46.9-609.5C2877.9,751.6,2751.6,770.1,2631.7,805.1
		L2631.7,805.1z"/>
	<path class="st6" d="M2645.6,813.6c-0.6,0.7,76.7,40.6,176.7,42.1c104.6,1.5,202.8-34.7,196.8-38.8c0,0-76.5-33.2-170.2-35.1
		S2645.6,813.6,2645.6,813.6L2645.6,813.6z"/>
	<g>
		<path class="st3" d="M2647.1,832.3l34.9,522.3c92.6,39,190.7,41.7,284.4-6.3l53.3-512.2C2880.7,892.5,2742.2,878.8,2647.1,832.3
			L2647.1,832.3z"/>
		<path class="st3" d="M2661.1,820.5c99-34.5,250.8-39.8,343.4,3.5C2885.7,877.2,2729.3,858.7,2661.1,820.5z"/>
	</g>
	<path class="st8" d="M2660,822.8c14.2,6.4,28.3,12.2,42,17l12.1,606.2c-9.9-3.3-19.7-7.1-29.1-12.5L2660,822.8L2660,822.8z"/>
	
		<linearGradient id="SVGID_2_" gradientUnits="userSpaceOnUse" x1="12759.9434" y1="2188.7258" x2="12629.4434" y2="2172.9458" gradientTransform="matrix(0.3206 0 0 0.3206 -1071.238 440.3257)">
		<stop  offset="0" style="stop-color:#FFFFFF;stop-opacity:0.7922"/>
		<stop  offset="1" style="stop-color:#FFFFFF;stop-opacity:0"/>
	</linearGradient>
	<path class="st11" d="M2954,844c24.3-6.9,46.9-14.2,69.7-24.8l-63.7,613.7c-23.6,10.4-36.2,14.3-52.1,18.9L2954,844L2954,844z"/>
	<path class="st10" d="M2900.1,1453.1l45.6-606.9l-16.5,4.5l-42.3,605.7L2900.1,1453.1L2900.1,1453.1z"/>
</g>
<g id="_699425632_13_">
	<path class="st7" d="M330.9,29.3c1.2,9.7,13.2,44.7,8.5,53.5C264.7,229.1,166.1,258,66.4,250.3c-7.4-2.1-13.1-6.1-20.5-9.8
		c-2,6.8-4.6,13.6-6.6,20.3c9.5,6,13.9,8.7,21.3,11.3c179.8,149.5,351.9-64.9,303.3-187.4c1.7-7.5-9-46.2-11.3-55.5
		C346.7,26,336.5,28,330.9,29.3z"/>
	<path class="st12" d="M50,245l-4.7-2.7c-1.9,6.2-4.3,12.3-6,18.5c7.5,4.7,11.8,7.4,16.9,9.6c0.7-1.7,1.3-3.2,1.8-4.6
		c1.5-3.7,2.4-6.2,2.7-8.4c0.4-2.2,0.1-4-0.6-5.3s-1.9-2.2-3.6-3.4C54.7,247.6,52.3,246.3,50,245z"/>
	<path class="st13" d="M268.9,240.6c52.6-30.7,75-92.2,93.8-155.9l-22.4-5c-0.2,1.3-0.5,2.4-0.9,3.2
		C264.7,229.1,166.1,258,66.4,250.3c-7.4-2.1-13.1-6.1-20.5-9.8c-0.2,0.6-0.4,1.3-0.6,1.9l4.7,2.7c2.4,1.3,4.7,2.6,6.5,3.7
		s2.9,2,3.6,3.4s1,3.2,0.6,5.3c-0.2,1.3-0.6,2.8-1.3,4.5C130,272.3,201.4,279.9,268.9,240.6z"/>
	<path class="st14" d="M70.6,267.9c2.1-2.3,7.8,0.8,10.8,1.5c0.4,0.1,0.4,3.1-5.3,1C74,269.6,70.5,268,70.6,267.9z"/>
	<path class="st14" d="M150.5,278.6c1.3-2.8,7.7-1.4,10.8-1.6c0.4,0,1.3,2.9-4.9,2.4C154.2,279.3,150.5,278.8,150.5,278.6z"/>
	<path class="st14" d="M103,270.4c-2.8,1.5-12.9-6-13.4,0.1c-0.1,1.6,10.2,3.1,11.9,3C101.5,273.5,104.3,269.7,103,270.4z"/>
	<path class="st14" d="M182.3,271.9c-2.3,2.2-14.1-2.1-12.8,3.9c0.3,1.5,10.7,0.1,12.2-0.4C181.7,275.4,183.4,270.9,182.3,271.9z"/>
	<path class="st14" d="M60.9,265.8c-2.3,1.2-1.7,4.4,1.9,5.8c3,1.2,7.5,7.3,8.6,3.2c0.4-1.4-3.9-6.9-6.2-7.8
		C64.6,266.9,61,265.8,60.9,265.8z"/>
	<path class="st14" d="M76.8,274.6c4.3,2,10.1,1.2,15,3c1.2,0.4,6.6,0.5,5,3.1c-1.5,2.3-21.2-3.2-20.3-5.2
		C76.6,275.3,76.8,274.6,76.8,274.6z"/>
	<path class="st14" d="M146.9,305.1c4.7,0.8,10.1-1.4,15.2-0.9c1.2,0.1,6.5-1.2,5.6,1.7c-0.8,2.6-21.3,2.2-20.9,0.1
		C146.8,305.8,146.9,305.1,146.9,305.1z"/>
	<path class="st14" d="M158.3,283.4c4.7,0.7,10-1.7,15.2-1.3c1.3,0.1,6.5-1.4,5.7,1.6c-0.7,2.6-21.2,2.8-20.9,0.7
		C158.3,284,158.4,283.4,158.3,283.4z"/>
	<path class="st14" d="M198.7,307.4c4.7,0.7,10-1.7,15.2-1.3c1.3,0.1,6.5-1.4,5.7,1.6c-0.7,2.7-21.3,2.9-20.9,0.7
		C198.7,308.1,198.7,307.4,198.7,307.4z"/>
	<path class="st14" d="M244.4,274.4c4.4-1.8,7.7-6.6,12.3-9c1.1-0.6,4.9-4.6,5.7-1.6c0.7,2.7-16.8,13.4-17.6,11.4
		C244.7,275,244.4,274.4,244.4,274.4z"/>
	<path class="st14" d="M79.9,282c0.4-0.5,15.2,5.7,19.5,6c2,0.1,5.4,1.3,4.3,4.2c-1.7,4.6-10.4-0.5-13.3-2.2c-3-1.8-3.3-2.8-7.3-4.2
		c-1.2-0.5-3.6-1.9-3.2-3.3V282z"/>
	<path class="st14" d="M163.4,289.6c0.2-0.6,16.2,1.2,20.4,0.2c2-0.4,5.6-0.3,5.4,2.8c-0.3,4.9-10.2,2.5-13.3,1.6
		c-3.4-0.9-4-1.8-8.2-2c-1.3-0.1-3.9-0.8-4-2.2L163.4,289.6z"/>
	<path class="st14" d="M178.3,314.6c0.2-0.6,16.2,1.2,20.4,0.2c1.9-0.5,5.5-0.2,5.3,2.8c-0.3,4.9-10.2,2.5-13.3,1.6
		c-3.4-0.9-4-1.8-8.2-2c-1.3-0.1-3.9-0.8-3.9-2.2L178.3,314.6z"/>
	<path class="st14" d="M254.3,280.8c-0.1-0.6,14.5-7.3,17.6-10.3c1.4-1.4,4.6-3.1,6-0.4c2.2,4.4-7.5,7.3-10.6,8.3
		c-3.3,1-4.3,0.6-8.1,2.5c-1.1,0.6-3.8,1.4-4.6,0.1L254.3,280.8z"/>
	<path class="st14" d="M121.4,272.9c-0.9-0.3-11.8-2.3-12.4-1.9c-5.6,3.8,2.7,7.6,6.4,7.4c2.8-0.2,9.1,1.6,9.2-2.2
		C124.7,275.2,122.3,273.2,121.4,272.9z"/>
	<path class="st14" d="M200.7,269.1c-1-0.1-12,1.1-12.5,1.7c-4.3,5.2,4.7,6.5,8.3,5.2c2.6-0.9,9.1-1,8.2-4.6
		C204.4,270.5,201.7,269.2,200.7,269.1z"/>
	<path class="st14" d="M275.1,245.9c-0.8,0.4-9.7,7.1-9.8,7.9c-1,6.7,7.4,3.2,9.8,0.2c1.8-2.2,7.3-5.6,4.7-8.2
		C279.1,245.1,276,245.4,275.1,245.9z"/>
	<path class="st14" d="M307.5,213.9c-0.8,0.4-9.7,7.1-9.8,7.9c-1,6.7,7.4,3.1,9.8,0.2c1.8-2.2,7.3-5.6,4.7-8.2
		C311.4,213.1,308.4,213.5,307.5,213.9z"/>
	<path class="st14" d="M111.4,293.5c1.8,1.7,26.6,10.5,29.9,10.9c1.8,0.2-0.8,2.9-3.8,3.2c-3.3,0.3-28.7-3.1-25.9-9.7
		C111.9,296.8,112.1,294.2,111.4,293.5z"/>
	<path class="st14" d="M196.8,291.7c2.3,1.2,28.5,2.6,31.7,2c1.7-0.3,0.1,3-2.8,4.1c-3,1.3-28.4,5.1-27.6-2.1
		C198.3,294.7,197.8,292.2,196.8,291.7z"/>
	<path class="st14" d="M283.5,267.2c2.5-0.2,25.8-12.5,28.2-14.6c1.4-1.2,1.6,2.5-0.3,5c-2,2.6-21.7,19-24.7,12.5
		C286.3,269,284.5,267.1,283.5,267.2z"/>
	<path class="st14" d="M316.9,247.3c2.1-1.4,16.4-23.5,17.5-26.5c0.6-1.7,2.6,1.4,2.2,4.5c-0.4,3.3-9.7,27.2-15.5,23
		C320.2,247.5,317.8,246.7,316.9,247.3z"/>
	<path class="st14" d="M229,261.3c2.5,0.1,27-9.6,29.7-11.4c1.5-1,1.3,2.7-0.8,4.9c-2.3,2.4-23.7,16.5-26,9.7
		C231.6,263.4,230.1,261.4,229,261.3z"/>
	<path class="st14" d="M332.5,178.6c1.9-1.7,12.9-25.6,13.6-28.7c0.4-1.7,2.8,1,2.8,4.1c0,3.3-5.8,28.3-12.1,24.9
		C335.9,178.3,333.3,177.9,332.5,178.6z"/>
	<path class="st14" d="M356.2,162.4c1.3-2.2,4.8-28.3,4.5-31.5c-0.2-1.8,2.9,0.1,3.9,3.1c1,3.1,2.8,28.7-4.2,27.4
		C359.3,161.2,356.8,161.5,356.2,162.4z"/>
	<path class="st14" d="M105.6,281.5c6.4,1.8,12,3.8,18.5,5.1c6.4,1.3,7.3,8.1-0.1,5.5c-1.3-0.4-20.8-5.9-19.6-8.8
		C104.8,282.4,104.6,281.2,105.6,281.5z"/>
	<path class="st14" d="M169.9,299.2c6.4,1.8,12,3.8,18.5,5.1c6.4,1.3,7.3,8.1-0.1,5.5c-1.3-0.4-20.8-6-19.6-8.8
		C169.1,300.1,168.9,298.9,169.9,299.2z"/>
	<path class="st14" d="M187.9,281.9c6.6-0.1,12.6,0.3,19.1-0.3c6.5-0.6,9.2,5.7,1.5,5.3c-1.4-0.1-21.6,0.1-21.3-3
		C187.4,283,186.9,281.9,187.9,281.9z"/>
	<path class="st14" d="M270.8,263.3c5.7-3.5,11-6.2,16.3-10.1s10.9,0.1,4,3.8c-1.2,0.6-18.4,11.3-19.7,8.4
		C270.9,264.6,269.9,263.9,270.8,263.3z"/>
	<path class="st14" d="M352.8,142.8c0.4-6.6,1.3-12.6,1.2-19.1s6.4-8.8,5.4-1.1c-0.2,1.4-1.5,21.5-4.6,21
		C353.9,143.4,352.7,143.8,352.8,142.8z"/>
	<path class="st14" d="M363.2,120.5c-0.6-6.6-0.7-12.6-1.9-19.1c-1.1-6.4,4.9-9.7,5.2-1.9c0,1.4,1.9,21.5-1.2,21.4
		C364.3,120.9,363.3,121.6,363.2,120.5z"/>
	<path class="st14" d="M218.8,313c6.1-2.7,11.7-4.7,17.5-7.8c5.7-3.1,10.8,1.6,3.5,4.3c-1.3,0.5-19.8,8.6-20.7,5.6
		C218.7,314.2,217.8,313.4,218.8,313z"/>
	<path class="st14" d="M269.9,293c4.8-4.6,9.4-8.4,13.7-13.3s10.6-2.2,4.7,2.9c-1,0.9-15.6,14.9-17.5,12.4
		C270.3,294.2,269.2,293.7,269.9,293z"/>
	<path class="st14" d="M149.1,274.9c-0.4,0.1-10.5-1.7-15-1c-12.8,2,7,9.5,14.2,0.9C148.7,274.4,148.9,275,149.1,274.9z"/>
	<path class="st14" d="M227.8,263.3c-0.4,0.3-10.6,1.3-14.7,3.2c-11.7,5.5,9.4,7.1,13.9-3.1C227.2,262.9,227.7,263.4,227.8,263.3z"
		/>
	<path class="st14" d="M249.8,290.7c-0.3,0.3-10.6,1.3-14.7,3.2c-11.7,5.5,9.4,7.1,13.9-3.1C249.2,290.3,249.6,290.8,249.8,290.7z"
		/>
	<path class="st14" d="M263.2,295.3c-0.4,0.3-10.6,1.3-14.7,3.3c-11.7,5.5,9.4,7.1,13.9-3.1C262.6,295,263.1,295.4,263.2,295.3z"/>
	<path class="st14" d="M295.4,226.8c-0.2,0.4-8.4,6.6-11,10.4c-7.2,10.7,11.7,1.2,10.3-9.8C294.7,226.8,295.3,227,295.4,226.8z"/>
	<path class="st14" d="M327.7,194.9c-0.2,0.4-8.4,6.6-11,10.4c-7.2,10.7,11.7,1.2,10.3-9.8C327,194.9,327.7,195.1,327.7,194.9z"/>
	<path class="st14" d="M343.5,179.3c-0.2,0.4-8.4,6.6-10.9,10.3c-7.2,10.8,11.7,1.3,10.3-9.8C342.8,179.2,343.4,179.4,343.5,179.3z"
		/>
	<path class="st14" d="M353.1,184.9c-0.2,0.4-8.4,6.6-11,10.4c-7.2,10.8,11.7,1.3,10.3-9.8C352.4,184.9,353,185.1,353.1,184.9z"/>
	<path class="st14" d="M134.5,283.8c0.8-0.4,18.6-2.8,17.9,1c-1.4,7.2-10.8,2.3-16.5,1.9C133.2,286.5,134.8,283.7,134.5,283.8z"/>
	<path class="st14" d="M216.3,276c0.7-0.6,17.1-7.9,17.4-4.1c0.6,7.3-9.7,5.2-15.3,6.4C215.7,278.9,216.6,275.7,216.3,276z"/>
	<path class="st14" d="M251.6,289.2c0.7-0.6,17.1-7.9,17.4-4.1c0.6,7.3-9.8,5.2-15.3,6.4C251,292.2,251.9,289,251.6,289.2z"/>
	<path class="st14" d="M292.1,243.7c0.3-0.9,10.6-15.6,12.8-12.5c4.3,5.9-5.6,9.5-9.8,13.4C293.1,246.4,292.2,243.3,292.1,243.7z"/>
	<path class="st14" d="M310.5,229c0.3-0.9,10.6-15.6,12.8-12.5c4.3,5.9-5.7,9.5-9.8,13.4C311.5,231.8,310.6,228.7,310.5,229z"/>
	<path class="st14" d="M324.4,211.7c0.3-0.9,10.6-15.6,12.8-12.5c4.3,5.9-5.6,9.5-9.8,13.4C325.4,214.5,324.5,211.3,324.4,211.7z"/>
	<path class="st14" d="M355.2,183.9c-0.2-0.9,2.4-18.7,5.8-16.9c6.5,3.3-0.8,11-2.7,16.4C357.4,186,355.2,183.6,355.2,183.9z"/>
	<path class="st14" d="M135.4,292.3c0.3,0.1,19.2,1,21,0.9c0.9-0.1,4.7,1.2,1.1,3.9c-3.8,2.9-22.8-3.5-22.7-3.6
		C134.8,293.5,135.3,292.3,135.4,292.3z"/>
	<path class="st14" d="M219.5,283.8c0.3,0,18.7-4.4,20.4-5c0.8-0.3,4.9-0.2,2.2,3.4c-2.9,3.8-22.8,3.1-22.8,3
		C219.3,285.1,219.4,283.8,219.5,283.8z"/>
	<path class="st14" d="M298.9,248.7c0.3-0.2,13.8-13.4,14.9-14.8c0.6-0.7,4.1-2.7,3.6,1.8c-0.5,4.8-18,14.4-18,14.3
		C299.3,250,298.8,248.8,298.9,248.7z"/>
	<path class="st14" d="M331.2,216.8c0.3-0.2,13.8-13.4,14.9-14.8c0.6-0.7,4.1-2.7,3.6,1.8c-0.5,4.7-18,14.4-18,14.3
		C331.7,218.1,331.1,216.9,331.2,216.8z"/>
	<path class="st14" d="M347.5,185.1c0.1-0.3,2.5-19.1,2.6-20.9c0-0.9,1.6-4.7,4-0.8c2.6,4-5.2,22.4-5.3,22.4
		C348.6,185.8,347.5,185.2,347.5,185.1z"/>
	<path class="st14" d="M151.4,312.6c0.3,0,18.7-4.4,20.4-5c0.8-0.3,4.9-0.2,2.2,3.4c-2.9,3.8-22.8,3.1-22.8,3
		C151.1,313.9,151.3,312.6,151.4,312.6z"/>
	<path class="st13" d="M351.1,82.1l-7.8-54.6c-4.5,0.1-9.2,1.1-12.4,1.8c1.1,8.8,11,38.3,9.4,50.3L351.1,82.1z"/>
</g>
<g>
	<path d="M81.7,913.6h16.8c4.6,0,7.8,1.4,9.8,4.1c1.1,1.6,1.7,3.5,1.7,5.5c0,2.4-0.7,4.5-2.1,6c-0.7,0.8-1.8,1.6-3.1,2.3
		c2,0.8,3.5,1.6,4.5,2.6c1.7,1.7,2.6,4,2.6,7c0,2.5-0.8,4.8-2.4,6.8c-2.4,3-6.1,4.5-11.2,4.5H81.8L81.7,913.6L81.7,913.6z M96.5,930
		c2.2,0,4-0.3,5.2-0.9c2-1,2.9-2.7,2.9-5.2s-1-4.2-3.1-5.1c-1.2-0.5-2.9-0.7-5.2-0.7h-9.5v12L96.5,930L96.5,930z M98.3,947.9
		c3.3,0,5.6-0.9,7-2.8c0.9-1.2,1.3-2.6,1.3-4.3c0-2.8-1.3-4.7-3.8-5.8c-1.4-0.5-3.1-0.8-5.4-0.8H86.9v13.7L98.3,947.9L98.3,947.9z"
		/>
	<path d="M132.5,935.3c1.1-0.1,1.8-0.6,2.2-1.4c0.2-0.4,0.3-1,0.3-1.8c0-1.6-0.6-2.8-1.7-3.5c-1.2-0.7-2.8-1.1-4.9-1.1
		c-2.5,0-4.2,0.7-5.3,2c-0.6,0.7-1,1.9-1.1,3.3h-4.4c0.1-3.5,1.2-5.9,3.4-7.3c2.2-1.4,4.7-2.1,7.6-2.1c3.3,0,6,0.6,8.1,1.9
		c2.1,1.3,3.1,3.2,3.1,5.9v16.3c0,0.5,0.1,0.9,0.3,1.2s0.6,0.4,1.3,0.4c0.2,0,0.4,0,0.7,0c0.3,0,0.5-0.1,0.8-0.1v3.5
		c-0.7,0.2-1.3,0.3-1.7,0.4c-0.4,0.1-0.9,0.1-1.6,0.1c-1.6,0-2.8-0.6-3.6-1.7c-0.4-0.6-0.7-1.5-0.8-2.6c-1,1.3-2.4,2.4-4.2,3.3
		c-1.8,0.9-3.8,1.4-6,1.4c-2.6,0-4.8-0.8-6.4-2.4c-1.7-1.6-2.5-3.6-2.5-6c0-2.6,0.8-4.7,2.5-6.1c1.6-1.4,3.8-2.3,6.4-2.7
		L132.5,935.3z M122.4,948.2c1,0.8,2.2,1.2,3.6,1.2c1.7,0,3.3-0.4,4.9-1.2c2.6-1.3,4-3.4,4-6.3v-3.8c-0.6,0.4-1.3,0.7-2.2,0.9
		c-0.9,0.2-1.8,0.4-2.7,0.5l-2.9,0.4c-1.7,0.2-3,0.6-3.9,1.1c-1.5,0.8-2.2,2.1-2.2,4C120.9,946.3,121.4,947.4,122.4,948.2z"/>
	<path d="M147.4,924.1h4.5v4c1.3-1.7,2.8-2.8,4.3-3.6c1.5-0.7,3.2-1.1,5-1.1c4,0,6.7,1.4,8.1,4.2c0.8,1.5,1.2,3.7,1.2,6.6v18.2h-4.8
		v-17.8c0-1.7-0.3-3.1-0.8-4.2c-0.8-1.8-2.4-2.6-4.6-2.6c-1.1,0-2.1,0.1-2.8,0.3c-1.3,0.4-2.4,1.2-3.4,2.3c-0.8,0.9-1.3,1.9-1.5,2.9
		s-0.4,2.4-0.4,4.3v14.8h-4.8L147.4,924.1L147.4,924.1z"/>
	<path d="M192.7,935.3c1.1-0.1,1.8-0.6,2.2-1.4c0.2-0.4,0.3-1,0.3-1.8c0-1.6-0.6-2.8-1.7-3.5c-1.2-0.7-2.8-1.1-4.9-1.1
		c-2.5,0-4.2,0.7-5.3,2c-0.6,0.7-1,1.9-1.1,3.3h-4.4c0.1-3.5,1.2-5.9,3.4-7.3c2.2-1.4,4.7-2.1,7.6-2.1c3.3,0,6,0.6,8.1,1.9
		c2.1,1.3,3.1,3.2,3.1,5.9v16.3c0,0.5,0.1,0.9,0.3,1.2s0.6,0.4,1.3,0.4c0.2,0,0.4,0,0.7,0c0.3,0,0.5-0.1,0.8-0.1v3.5
		c-0.7,0.2-1.3,0.3-1.7,0.4c-0.4,0.1-0.9,0.1-1.6,0.1c-1.6,0-2.8-0.6-3.6-1.7c-0.4-0.6-0.7-1.5-0.8-2.6c-1,1.3-2.4,2.4-4.2,3.3
		c-1.8,0.9-3.8,1.4-6,1.4c-2.6,0-4.8-0.8-6.4-2.4c-1.7-1.6-2.5-3.6-2.5-6c0-2.6,0.8-4.7,2.5-6.1c1.6-1.4,3.8-2.3,6.4-2.7
		L192.7,935.3z M182.6,948.2c1,0.8,2.2,1.2,3.6,1.2c1.7,0,3.3-0.4,4.9-1.2c2.6-1.3,4-3.4,4-6.3v-3.8c-0.6,0.4-1.3,0.7-2.2,0.9
		c-0.9,0.2-1.8,0.4-2.7,0.5l-2.9,0.4c-1.7,0.2-3,0.6-3.9,1.1c-1.5,0.8-2.2,2.1-2.2,4C181.1,946.3,181.6,947.4,182.6,948.2z"/>
	<path d="M207.6,924.1h4.5v4c1.3-1.7,2.8-2.8,4.3-3.6c1.5-0.7,3.2-1.1,5-1.1c4,0,6.7,1.4,8.1,4.2c0.8,1.5,1.2,3.7,1.2,6.6v18.2h-4.8
		v-17.8c0-1.7-0.3-3.1-0.8-4.2c-0.8-1.8-2.4-2.6-4.6-2.6c-1.1,0-2.1,0.1-2.8,0.3c-1.3,0.4-2.4,1.2-3.4,2.3c-0.8,0.9-1.3,1.9-1.5,2.9
		s-0.4,2.4-0.4,4.3v14.8h-4.8L207.6,924.1L207.6,924.1z"/>
	<path d="M252.9,935.3c1.1-0.1,1.8-0.6,2.2-1.4c0.2-0.4,0.3-1,0.3-1.8c0-1.6-0.6-2.8-1.7-3.5c-1.2-0.7-2.8-1.1-4.9-1.1
		c-2.5,0-4.2,0.7-5.3,2c-0.6,0.7-1,1.9-1.1,3.3H238c0.1-3.5,1.2-5.9,3.4-7.3c2.2-1.4,4.7-2.1,7.6-2.1c3.3,0,6,0.6,8.1,1.9
		c2.1,1.3,3.1,3.2,3.1,5.9v16.3c0,0.5,0.1,0.9,0.3,1.2s0.6,0.4,1.3,0.4c0.2,0,0.4,0,0.7,0s0.5-0.1,0.8-0.1v3.5
		c-0.7,0.2-1.3,0.3-1.7,0.4c-0.4,0.1-0.9,0.1-1.6,0.1c-1.6,0-2.8-0.6-3.6-1.7c-0.4-0.6-0.7-1.5-0.8-2.6c-1,1.3-2.4,2.4-4.2,3.3
		c-1.8,0.9-3.8,1.4-6,1.4c-2.6,0-4.8-0.8-6.4-2.4c-1.7-1.6-2.5-3.6-2.5-6c0-2.6,0.8-4.7,2.5-6.1c1.6-1.4,3.8-2.3,6.4-2.7
		L252.9,935.3z M242.8,948.2c1,0.8,2.2,1.2,3.6,1.2c1.7,0,3.3-0.4,4.9-1.2c2.6-1.3,4-3.4,4-6.3v-3.8c-0.6,0.4-1.3,0.7-2.2,0.9
		s-1.8,0.4-2.7,0.5l-2.9,0.4c-1.7,0.2-3,0.6-3.9,1.1c-1.5,0.8-2.2,2.1-2.2,4C241.3,946.3,241.8,947.4,242.8,948.2z"/>
	<path d="M64.2,1004.9c0.1,2.2,0.6,4,1.5,5.4c1.7,2.6,4.6,3.9,8.9,3.9c1.9,0,3.6-0.3,5.2-0.8c3-1.1,4.5-3,4.5-5.9
		c0-2.1-0.6-3.6-1.9-4.5s-3.3-1.6-6.1-2.3l-5.1-1.2c-3.3-0.8-5.7-1.6-7.1-2.6c-2.4-1.6-3.6-4-3.6-7.3c0-3.5,1.2-6.4,3.5-8.6
		s5.7-3.4,10-3.4c4,0,7.3,1,10.1,2.9c2.8,2,4.2,5.1,4.2,9.4h-4.9c-0.3-2.1-0.8-3.7-1.6-4.8c-1.5-2-4.1-3-7.8-3c-3,0-5.1,0.7-6.4,2
		s-2,2.8-2,4.5c0,1.9,0.8,3.3,2.3,4.2c1,0.6,3.3,1.3,6.8,2.1l5.3,1.2c2.5,0.6,4.5,1.4,5.9,2.5c2.4,1.8,3.6,4.4,3.6,7.9
		c0,4.3-1.5,7.4-4.6,9.2c-3,1.8-6.6,2.8-10.6,2.8c-4.7,0-8.4-1.2-11.1-3.7c-2.7-2.4-4-5.8-3.9-10L64.2,1004.9L64.2,1004.9z"/>
	<path d="M96.3,989.1h4.7v4c1.1-1.4,2.1-2.4,3.1-3c1.6-1.1,3.3-1.6,5.3-1.6c2.3,0,4.1,0.6,5.4,1.7c0.8,0.6,1.5,1.6,2.1,2.8
		c1.1-1.5,2.3-2.6,3.7-3.4c1.4-0.7,3-1.1,4.8-1.1c3.8,0,6.4,1.4,7.8,4.1c0.7,1.5,1.1,3.5,1.1,6v18.8h-4.9v-19.7
		c0-1.9-0.5-3.2-1.4-3.9s-2.1-1.1-3.4-1.1c-1.9,0-3.5,0.6-4.8,1.9c-1.3,1.3-2,3.3-2,6.3v16.5H113v-18.5c0-1.9-0.2-3.3-0.7-4.2
		c-0.7-1.3-2.1-2-4-2c-1.8,0-3.4,0.7-4.9,2.1c-1.5,1.4-2.2,3.9-2.2,7.6v15h-4.8v-28.3H96.3z"/>
	<path d="M161.9,991.9c2.5,2.4,3.8,6,3.8,10.7c0,4.6-1.1,8.3-3.3,11.3s-5.6,4.5-10.3,4.5c-3.9,0-6.9-1.3-9.2-3.9
		c-2.3-2.6-3.4-6.2-3.4-10.6c0-4.8,1.2-8.5,3.6-11.4c2.4-2.8,5.6-4.2,9.7-4.2C156.3,988.3,159.4,989.5,161.9,991.9z M158.9,1010.7
		c1.2-2.4,1.7-5,1.7-8c0-2.6-0.4-4.8-1.3-6.4c-1.3-2.6-3.6-3.9-6.8-3.9c-2.9,0-5,1.1-6.3,3.3s-2,4.9-2,8c0,3,0.7,5.5,2,7.5
		s3.4,3,6.2,3C155.6,1014.3,157.7,1013.1,158.9,1010.7z"/>
	<path d="M192,991.9c2.5,2.4,3.8,6,3.8,10.7c0,4.6-1.1,8.3-3.3,11.3s-5.6,4.5-10.3,4.5c-3.9,0-6.9-1.3-9.2-3.9
		c-2.3-2.6-3.4-6.2-3.4-10.6c0-4.8,1.2-8.5,3.6-11.4c2.4-2.8,5.6-4.2,9.7-4.2C186.4,988.3,189.5,989.5,192,991.9z M189,1010.7
		c1.2-2.4,1.7-5,1.7-8c0-2.6-0.4-4.8-1.3-6.4c-1.3-2.6-3.6-3.9-6.8-3.9c-2.9,0-5,1.1-6.3,3.3s-2,4.9-2,8c0,3,0.7,5.5,2,7.5
		s3.4,3,6.2,3C185.7,1014.3,187.8,1013.1,189,1010.7z"/>
	<path d="M202.5,981.2h4.8v7.9h4.5v3.9h-4.5v18.5c0,1,0.3,1.6,1,2c0.4,0.2,1,0.3,1.9,0.3c0.2,0,0.5,0,0.7,0c0.3,0,0.6,0,0.9-0.1v3.8
		c-0.5,0.2-1.1,0.3-1.7,0.3c-0.6,0.1-1.2,0.1-1.9,0.1c-2.2,0-3.7-0.6-4.5-1.7s-1.2-2.6-1.2-4.4V993h-3.8v-3.9h3.8L202.5,981.2
		L202.5,981.2z"/>
	<path d="M216.6,978.4h4.8v14.5c1.1-1.4,2.1-2.4,3-3c1.5-1,3.4-1.5,5.7-1.5c4.1,0,6.9,1.4,8.4,4.3c0.8,1.6,1.2,3.7,1.2,6.5v18.2
		h-4.9v-17.8c0-2.1-0.3-3.6-0.8-4.6c-0.9-1.6-2.5-2.3-4.9-2.3c-2,0-3.8,0.7-5.4,2c-1.6,1.4-2.4,3.9-2.4,7.7v15h-4.8v-39H216.6z"/>
	<path d="M246.7,978.6h4.8v5.4h-4.8V978.6z M246.7,989.2h4.8v28.2h-4.8V989.2z"/>
	<path d="M276.2,989.9c1.9,0.9,3.3,2.2,4.3,3.7c0.9,1.4,1.6,3.1,1.9,5c0.3,1.3,0.4,3.4,0.4,6.2h-20.6c0.1,2.9,0.8,5.2,2,6.9
		c1.3,1.7,3.2,2.6,5.8,2.6c2.5,0,4.4-0.8,5.9-2.5c0.8-1,1.4-2.1,1.7-3.3h4.7c-0.1,1-0.5,2.2-1.2,3.5s-1.5,2.3-2.3,3.1
		c-1.4,1.4-3.2,2.4-5.3,2.9c-1.1,0.3-2.4,0.4-3.9,0.4c-3.5,0-6.5-1.3-8.9-3.8c-2.4-2.6-3.7-6.2-3.7-10.8c0-4.5,1.2-8.2,3.7-11.1
		c2.5-2.8,5.7-4.3,9.6-4.3C272.4,988.4,274.3,988.9,276.2,989.9z M277.9,1001c-0.2-2.1-0.6-3.7-1.3-4.9c-1.3-2.3-3.5-3.4-6.5-3.4
		c-2.2,0-4,0.8-5.5,2.4c-1.5,1.6-2.2,3.6-2.3,6L277.9,1001L277.9,1001z"/>
</g>
<g>
	<path d="M1021.7,939.9c0.1,2.2,0.6,4,1.5,5.4c1.7,2.6,4.6,3.9,8.9,3.9c1.9,0,3.6-0.3,5.2-0.8c3-1.1,4.5-3,4.5-5.9
		c0-2.1-0.6-3.6-1.9-4.5s-3.3-1.6-6.1-2.3l-5.1-1.2c-3.3-0.8-5.7-1.6-7.1-2.6c-2.4-1.6-3.6-4-3.6-7.3c0-3.5,1.2-6.4,3.5-8.6
		s5.7-3.4,10-3.4c4,0,7.3,1,10.1,2.9c2.8,2,4.2,5.1,4.2,9.4h-4.9c-0.3-2.1-0.8-3.7-1.6-4.8c-1.5-2-4.1-3-7.8-3c-3,0-5.1,0.7-6.4,2
		s-2,2.8-2,4.5c0,1.9,0.8,3.3,2.3,4.2c1,0.6,3.3,1.3,6.8,2.1l5.3,1.2c2.5,0.6,4.5,1.4,5.9,2.5c2.4,1.8,3.6,4.4,3.6,7.9
		c0,4.3-1.5,7.4-4.6,9.2c-3,1.8-6.6,2.8-10.6,2.8c-4.7,0-8.4-1.2-11.1-3.7c-2.7-2.4-4-5.8-3.9-10L1021.7,939.9L1021.7,939.9z"/>
	<path d="M1054.7,916.2h4.8v7.9h4.5v3.9h-4.5v18.5c0,1,0.3,1.6,1,2c0.4,0.2,1,0.3,1.9,0.3c0.2,0,0.5,0,0.7,0c0.3,0,0.6,0,0.9-0.1
		v3.8c-0.5,0.2-1.1,0.3-1.7,0.3c-0.6,0.1-1.2,0.1-1.9,0.1c-2.2,0-3.7-0.6-4.5-1.7c-0.8-1.1-1.2-2.6-1.2-4.4V928h-3.8v-3.9h3.8
		L1054.7,916.2L1054.7,916.2z"/>
	<path d="M1068.9,924.1h4.5v4.9c0.4-1,1.3-2.1,2.7-3.5c1.4-1.4,3.1-2,5-2c0.1,0,0.2,0,0.4,0c0.2,0,0.6,0.1,1.1,0.1v5
		c-0.3-0.1-0.5-0.1-0.8-0.1c-0.2,0-0.5,0-0.8,0c-2.4,0-4.2,0.8-5.5,2.3s-1.9,3.3-1.9,5.3v16.3h-4.8v-28.3H1068.9z"/>
	<path d="M1102,935.3c1.1-0.1,1.8-0.6,2.2-1.4c0.2-0.4,0.3-1,0.3-1.8c0-1.6-0.6-2.8-1.7-3.5c-1.2-0.7-2.8-1.1-4.9-1.1
		c-2.5,0-4.2,0.7-5.3,2c-0.6,0.7-1,1.9-1.1,3.3h-4.4c0.1-3.5,1.2-5.9,3.4-7.3c2.2-1.4,4.7-2.1,7.6-2.1c3.3,0,6,0.6,8.1,1.9
		c2.1,1.3,3.1,3.2,3.1,5.9v16.3c0,0.5,0.1,0.9,0.3,1.2s0.6,0.4,1.3,0.4c0.2,0,0.4,0,0.7,0c0.3,0,0.5-0.1,0.8-0.1v3.5
		c-0.7,0.2-1.3,0.3-1.7,0.4c-0.4,0.1-0.9,0.1-1.6,0.1c-1.6,0-2.8-0.6-3.6-1.7c-0.4-0.6-0.7-1.5-0.8-2.6c-1,1.3-2.4,2.4-4.2,3.3
		c-1.8,0.9-3.8,1.4-6,1.4c-2.6,0-4.8-0.8-6.4-2.4c-1.7-1.6-2.5-3.6-2.5-6c0-2.6,0.8-4.7,2.5-6.1c1.6-1.4,3.8-2.3,6.4-2.7L1102,935.3
		z M1092,948.2c1,0.8,2.2,1.2,3.6,1.2c1.7,0,3.3-0.4,4.9-1.2c2.6-1.3,4-3.4,4-6.3v-3.8c-0.6,0.4-1.3,0.7-2.2,0.9
		c-0.9,0.2-1.8,0.4-2.7,0.5l-2.9,0.4c-1.7,0.2-3,0.6-3.9,1.1c-1.5,0.8-2.2,2.1-2.2,4C1090.5,946.3,1091,947.4,1092,948.2z"/>
	<path d="M1119.1,924.1l5.4,22.3l5.5-22.3h5.3l5.5,22.2l5.8-22.2h4.8l-8.2,28.3h-4.9l-5.8-21.9l-5.6,21.9h-4.9l-8.2-28.3H1119.1z"/>
	<path d="M1155.6,913.5h4.6v14.1c1-1.4,2.3-2.4,3.7-3.1c1.5-0.7,3-1.1,4.7-1.1c3.5,0,6.4,1.2,8.6,3.6c2.2,2.4,3.3,6,3.3,10.7
		c0,4.5-1.1,8.2-3.3,11.2c-2.2,3-5.2,4.4-9,4.4c-2.2,0-4-0.5-5.5-1.6c-0.9-0.6-1.8-1.6-2.8-3v3.6h-4.4v-38.8H1155.6z M1173.8,946.1
		c1.3-2,1.9-4.7,1.9-8.1c0-3-0.6-5.4-1.9-7.4s-3.2-2.9-5.7-2.9c-2.2,0-4.1,0.8-5.7,2.4c-1.6,1.6-2.5,4.2-2.5,7.9
		c0,2.7,0.3,4.8,1,6.5c1.3,3.1,3.6,4.7,7,4.7C1170.6,949.1,1172.5,948.1,1173.8,946.1z"/>
	<path d="M1203.6,924.9c1.9,0.9,3.3,2.2,4.3,3.7c0.9,1.4,1.6,3.1,1.9,5c0.3,1.3,0.4,3.4,0.4,6.2h-20.6c0.1,2.9,0.8,5.2,2,6.9
		c1.3,1.7,3.2,2.6,5.8,2.6c2.5,0,4.4-0.8,5.9-2.5c0.8-1,1.4-2.1,1.7-3.3h4.7c-0.1,1-0.5,2.2-1.2,3.5s-1.5,2.3-2.3,3.1
		c-1.4,1.4-3.2,2.4-5.3,2.9c-1.1,0.3-2.4,0.4-3.9,0.4c-3.5,0-6.5-1.3-8.9-3.8c-2.4-2.6-3.7-6.2-3.7-10.8c0-4.5,1.2-8.2,3.7-11.1
		c2.5-2.8,5.7-4.3,9.6-4.3C1199.8,923.5,1201.7,924,1203.6,924.9z M1205.3,936c-0.2-2.1-0.6-3.7-1.3-4.9c-1.3-2.3-3.5-3.4-6.5-3.4
		c-2.2,0-4,0.8-5.5,2.4c-1.5,1.6-2.2,3.6-2.3,6L1205.3,936L1205.3,936z"/>
	<path d="M1216.3,924.1h4.5v4.9c0.4-1,1.3-2.1,2.7-3.5c1.4-1.4,3.1-2,5-2c0.1,0,0.2,0,0.4,0c0.2,0,0.6,0.1,1.1,0.1v5
		c-0.3-0.1-0.5-0.1-0.8-0.1c-0.2,0-0.5,0-0.8,0c-2.4,0-4.2,0.8-5.5,2.3s-1.9,3.3-1.9,5.3v16.3h-4.8v-28.3H1216.3z"/>
	<path d="M1234.4,924.1h4.5v4.9c0.4-1,1.3-2.1,2.7-3.5c1.4-1.4,3.1-2,5-2c0.1,0,0.2,0,0.4,0c0.2,0,0.6,0.1,1.1,0.1v5
		c-0.3-0.1-0.5-0.1-0.8-0.1c-0.2,0-0.5,0-0.8,0c-2.4,0-4.2,0.8-5.5,2.3s-1.9,3.3-1.9,5.3v16.3h-4.8v-28.3H1234.4z"/>
	<path d="M1269.9,924.1h5.3c-0.7,1.8-2.2,6-4.5,12.4c-1.7,4.9-3.2,8.8-4.3,11.9c-2.7,7.2-4.7,11.6-5.8,13.2
		c-1.1,1.6-3.1,2.4-5.8,2.4c-0.7,0-1.2,0-1.5-0.1c-0.4-0.1-0.8-0.1-1.3-0.3v-4.3c0.8,0.2,1.4,0.4,1.8,0.4c0.4,0.1,0.7,0.1,1,0.1
		c0.9,0,1.5-0.1,1.9-0.4c0.4-0.3,0.8-0.6,1-1.1c0.1-0.1,0.4-0.9,0.9-2.2s0.9-2.3,1.2-2.9l-10.5-29.1h5.4l7.6,23.1L1269.9,924.1z"/>
	<path d="M1038.2,1004.9c0.1,2.2,0.6,4,1.5,5.4c1.7,2.6,4.6,3.9,8.9,3.9c1.9,0,3.6-0.3,5.2-0.8c3-1.1,4.5-3,4.5-5.9
		c0-2.1-0.6-3.6-1.9-4.5s-3.3-1.6-6.1-2.3l-5.1-1.2c-3.3-0.8-5.7-1.6-7.1-2.6c-2.4-1.6-3.6-4-3.6-7.3c0-3.5,1.2-6.4,3.5-8.6
		s5.7-3.4,10-3.4c4,0,7.3,1,10.1,2.9c2.8,2,4.2,5.1,4.2,9.4h-4.9c-0.3-2.1-0.8-3.7-1.6-4.8c-1.5-2-4.1-3-7.8-3c-3,0-5.1,0.7-6.4,2
		s-2,2.8-2,4.5c0,1.9,0.8,3.3,2.3,4.2c1,0.6,3.3,1.3,6.8,2.1l5.3,1.2c2.5,0.6,4.5,1.4,5.9,2.5c2.4,1.8,3.6,4.4,3.6,7.9
		c0,4.3-1.5,7.4-4.6,9.2c-3,1.8-6.6,2.8-10.6,2.8c-4.7,0-8.4-1.2-11.1-3.7c-2.7-2.4-4-5.8-3.9-10L1038.2,1004.9L1038.2,1004.9z"/>
	<path d="M1070.3,989.1h4.7v4c1.1-1.4,2.1-2.4,3.1-3c1.6-1.1,3.3-1.6,5.3-1.6c2.3,0,4.1,0.6,5.4,1.7c0.8,0.6,1.5,1.6,2.1,2.8
		c1.1-1.5,2.3-2.6,3.7-3.4c1.4-0.7,3-1.1,4.8-1.1c3.8,0,6.4,1.4,7.8,4.1c0.7,1.5,1.1,3.5,1.1,6v18.8h-4.9v-19.7
		c0-1.9-0.5-3.2-1.4-3.9s-2.1-1.1-3.4-1.1c-1.9,0-3.5,0.6-4.8,1.9c-1.3,1.3-2,3.3-2,6.3v16.5h-4.8v-18.5c0-1.9-0.2-3.3-0.7-4.2
		c-0.7-1.3-2.1-2-4-2c-1.8,0-3.4,0.7-4.9,2.1c-1.5,1.4-2.2,3.9-2.2,7.6v15h-4.8L1070.3,989.1L1070.3,989.1z"/>
	<path d="M1135.9,991.9c2.5,2.4,3.8,6,3.8,10.7c0,4.6-1.1,8.3-3.3,11.3s-5.6,4.5-10.3,4.5c-3.9,0-6.9-1.3-9.2-3.9
		c-2.3-2.6-3.4-6.2-3.4-10.6c0-4.8,1.2-8.5,3.6-11.4c2.4-2.8,5.6-4.2,9.7-4.2C1130.3,988.3,1133.4,989.5,1135.9,991.9z
		 M1132.9,1010.7c1.2-2.4,1.7-5,1.7-8c0-2.6-0.4-4.8-1.3-6.4c-1.3-2.6-3.6-3.9-6.8-3.9c-2.9,0-5,1.1-6.3,3.3s-2,4.9-2,8
		c0,3,0.7,5.5,2,7.5s3.4,3,6.2,3C1129.6,1014.3,1131.7,1013.1,1132.9,1010.7z"/>
	<path d="M1166,991.9c2.5,2.4,3.8,6,3.8,10.7c0,4.6-1.1,8.3-3.3,11.3s-5.6,4.5-10.3,4.5c-3.9,0-6.9-1.3-9.2-3.9
		c-2.3-2.6-3.4-6.2-3.4-10.6c0-4.8,1.2-8.5,3.6-11.4c2.4-2.8,5.6-4.2,9.7-4.2C1160.4,988.3,1163.5,989.5,1166,991.9z M1163,1010.7
		c1.2-2.4,1.7-5,1.7-8c0-2.6-0.4-4.8-1.3-6.4c-1.3-2.6-3.6-3.9-6.8-3.9c-2.9,0-5,1.1-6.3,3.3s-2,4.9-2,8c0,3,0.7,5.5,2,7.5
		s3.4,3,6.2,3C1159.7,1014.3,1161.8,1013.1,1163,1010.7z"/>
	<path d="M1176.5,981.2h4.8v7.9h4.5v3.9h-4.5v18.5c0,1,0.3,1.6,1,2c0.4,0.2,1,0.3,1.9,0.3c0.2,0,0.5,0,0.7,0c0.3,0,0.6,0,0.9-0.1
		v3.8c-0.5,0.2-1.1,0.3-1.7,0.3c-0.6,0.1-1.2,0.1-1.9,0.1c-2.2,0-3.7-0.6-4.5-1.7s-1.2-2.6-1.2-4.4V993h-3.8v-3.9h3.8L1176.5,981.2
		L1176.5,981.2z"/>
	<path d="M1190.6,978.4h4.8v14.5c1.1-1.4,2.1-2.4,3-3c1.5-1,3.4-1.5,5.7-1.5c4.1,0,6.9,1.4,8.4,4.3c0.8,1.6,1.2,3.7,1.2,6.5v18.2
		h-4.9v-17.8c0-2.1-0.3-3.6-0.8-4.6c-0.9-1.6-2.5-2.3-4.9-2.3c-2,0-3.8,0.7-5.4,2c-1.6,1.4-2.4,3.9-2.4,7.7v15h-4.8v-39H1190.6z"/>
	<path d="M1220.7,978.6h4.8v5.4h-4.8V978.6z M1220.7,989.2h4.8v28.2h-4.8V989.2z"/>
	<path d="M1250.2,989.9c1.9,0.9,3.3,2.2,4.3,3.7c0.9,1.4,1.6,3.1,1.9,5c0.3,1.3,0.4,3.4,0.4,6.2h-20.6c0.1,2.9,0.8,5.2,2,6.9
		c1.3,1.7,3.2,2.6,5.8,2.6c2.5,0,4.4-0.8,5.9-2.5c0.8-1,1.4-2.1,1.7-3.3h4.7c-0.1,1-0.5,2.2-1.2,3.5s-1.5,2.3-2.3,3.1
		c-1.4,1.4-3.2,2.4-5.3,2.9c-1.1,0.3-2.4,0.4-3.9,0.4c-3.5,0-6.5-1.3-8.9-3.8c-2.4-2.6-3.7-6.2-3.7-10.8c0-4.5,1.2-8.2,3.7-11.1
		c2.5-2.8,5.7-4.3,9.6-4.3C1246.4,988.4,1248.3,988.9,1250.2,989.9z M1251.9,1001c-0.2-2.1-0.6-3.7-1.3-4.9
		c-1.3-2.3-3.5-3.4-6.5-3.4c-2.2,0-4,0.8-5.5,2.4c-1.5,1.6-2.2,3.6-2.3,6L1251.9,1001L1251.9,1001z"/>
</g>
<polygon class="st15" points="1231,947 1239,947 1239,947 "/>
</svg>
