<?xml version="1.0" encoding="utf-8"?>
<!-- Generator: Adobe Illustrator 22.1.0, SVG Export Plug-In . SVG Version: 6.00 Build 0)  -->
<svg version="1.1" id="Layer_1" xmlns="http://www.w3.org/2000/svg" xmlns:xlink="http://www.w3.org/1999/xlink" x="0px" y="0px"
	 viewBox="0 0 1920 1080" style="enable-background:new 0 0 1920 1080;" xml:space="preserve">
<style type="text/css">
	.st0{fill:#EFEFEF;}
	.st1{fill:#3B6620;}
	.st2{fill:#599029;}
	.st3{fill:#8BBC4E;}
	.st4{fill:#F51B1B;}
	.st5{fill:#F0A6A6;}
	.st6{fill:#BEDBFF;}
	.st7{fill:#FFFFFF;fill-opacity:0.466;}
	.st8{fill:#F5DF3F;}
	.st9{fill:#FFFFFF;fill-opacity:0.585;}
	.st10{fill:url(#SVGID_1_);}
	.st11{fill:#FFFFFF;fill-opacity:0.4898;}
	.st12{fill:url(#SVGID_2_);}
	.st13{fill:#FFFFFF;}
	.st14{opacity:0.5;}
	.st15{fill:url(#SVGID_3_);}
	.st16{fill:#A55325;}
	.st17{fill:#E7CC00;}
	.st18{fill:#F17D23;}
</style>
<g>
	<circle class="st0" cx="471" cy="665" r="252"/>
</g>
<g>
	<circle class="st0" cx="1449" cy="665" r="252"/>
</g>
<g id="_566188592_8_">
	<path class="st1" d="M1451.3,158.2c-8.7-7.6-17-11.3-27.9-13c6.8-4.1,14.3-5.9,22.9-3.7c-4-9.8-9.9-18.1-18.1-24.7
		c10.8,0.5,19.2,3.6,23.7,10.8c3.2-14.5,9.7-25.5,20-32.6c-2.9,11.1-2.7,21.7-0.3,32.1c13.8-11.3,28.1-18.5,42.9-21.8
		c-4.1,5.5-6.8,11.4-5.3,19c14.1-6,27.9-8.4,41.3-5.2c-7.6,5.1-11.4,10.9-11.3,17.3c15.1,1.2,23.5,8.5,29.5,18.2
		c-13.4-3.3-17.7-1.6-18.4,2.1c11,1.5,17.9,6.3,21.8,13.4c-13.8-1.8-28.5,0.1-43.7,3.9L1451.3,158.2z"/>
	<path class="st2" d="M1478.1,160.4c-4.3-0.3-8.6-0.7-12.9-1.1c-7.4-11.7-11-22.6-5.8-31.8C1463.9,138.8,1470.3,149.7,1478.1,160.4z
		"/>
	<path class="st3" d="M1497.3,162.2c-3.3,0.2-6.7,0.3-10,0.5c-4.7-16-2.3-28.6,9.5-36.5C1494.7,138.2,1494.8,150.2,1497.3,162.2z"/>
	<path class="st2" d="M1522,171.2c-6.1-2.3-12.3-4.6-18.4-6.8c4.2-16.6,11.3-28.8,23.9-32.1c-2.5,4.7-3.7,9.5-2.4,14.2
		c8.3-0.4,13.6,0.5,15.5,2.9C1531.9,153.7,1525.9,161.2,1522,171.2z"/>
	<path class="st4" d="M1402.7,185.1c8.6-14.9,21.6-28.6,49.4-30c32.2-1.6,59.2,6.7,81.5,18.4c28,14.6,31.7,32.4,28.4,51.5
		c-7.8,44.9-35.8,71.9-70.5,96.8c-16.1,11.5-31.1,19.5-48.9,17.9c-21.7-2-31.2-17.5-36.8-37.3
		C1391.8,252.8,1387.2,211.8,1402.7,185.1z"/>
	<path class="st5" d="M1527.4,195.1c-3.3-0.5-3,11.7,3.4,3.8C1532.7,196.6,1527.5,195.1,1527.4,195.1z"/>
	<path class="st5" d="M1483.6,181c-3.3-0.5-3,11.7,3.5,3.8C1489,182.4,1483.7,181,1483.6,181z"/>
	<path class="st5" d="M1457.9,212.6c-3.3-0.5-3,11.7,3.4,3.8C1463.3,214.1,1458,212.6,1457.9,212.6z"/>
	<path class="st5" d="M1500.8,236c3.3-0.3,0.3-12.1-4.2-2.9C1495.3,235.7,1500.7,236,1500.8,236z"/>
	<path class="st5" d="M1511.3,283.2c3.4-0.3,0.3-12.1-4.2-2.9C1505.7,282.9,1511.2,283.2,1511.3,283.2z"/>
	<path class="st5" d="M1427.7,272.2c3.4-0.3,0.3-12.1-4.2-2.9C1422.2,271.9,1427.7,272.2,1427.7,272.2z"/>
	<path class="st5" d="M1505.1,184.4c-9.5,4.2,2,14.7,2.9,1.2C1508.1,183.8,1506.2,183.9,1505.1,184.4z"/>
	<path class="st5" d="M1479.3,216c-9.5,4.2,2,14.7,2.9,1.2C1482.3,215.5,1480.5,215.5,1479.3,216z"/>
	<path class="st5" d="M1461.3,170.2c-9.5,4.2,2,14.8,2.9,1.2C1464.3,169.6,1462.4,169.7,1461.3,170.2z"/>
	<path class="st5" d="M1435.6,201.8c-9.5,4.2,2,14.7,2.9,1.2C1438.6,201.3,1436.7,201.3,1435.6,201.8z"/>
	<path class="st5" d="M1484.1,276c-9.5,4.2,2,14.8,2.9,1.2C1487.1,275.5,1485.3,275.5,1484.1,276z"/>
	<path class="st5" d="M1430.2,171.8c-9.5,4.2,2,14.7,2.9,1.2C1433.3,171.2,1431.4,171.3,1430.2,171.8z"/>
	<path class="st5" d="M1525,241.7c8.3-6.2-5.2-14-3.1-0.5C1522.2,242.9,1524,242.4,1525,241.7z"/>
	<path class="st5" d="M1471.4,273.7c8.3-6.2-5.2-14-3.1-0.5C1468.6,274.8,1470.4,274.4,1471.4,273.7z"/>
	<path class="st5" d="M1455.6,278.3c8.3-6.2-5.1-14-3.1-0.5C1452.8,279.5,1454.6,279.1,1455.6,278.3z"/>
	<path class="st5" d="M1510.2,203.2c-12.2,5.4,2.4,13.9,2,1.8C1512.1,204.4,1510.5,203,1510.2,203.2z"/>
	<path class="st5" d="M1437.1,239.4c-12.2,5.3,2.5,13.9,2,1.8C1439.1,240.6,1437.4,239.2,1437.1,239.4z"/>
	<path class="st5" d="M1484.5,234.8c-12.2,5.3,2.4,13.9,2,1.8C1486.4,236,1484.8,234.7,1484.5,234.8z"/>
	<path class="st5" d="M1509.6,243.9c-12.2,5.4,2.4,13.9,2,1.8C1511.6,245.1,1510,243.8,1509.6,243.9z"/>
	<path class="st5" d="M1436.6,280.1c-12.2,5.3,2.5,13.9,2,1.8C1438.5,281.3,1436.9,280,1436.6,280.1z"/>
	<path class="st5" d="M1466.4,189c-12.2,5.4,2.5,13.9,2,1.9C1468.4,190.2,1466.7,188.8,1466.4,189z"/>
	<path class="st5" d="M1440.7,220.6c-12.2,5.4,2.5,13.9,2,1.8C1442.7,221.8,1441,220.5,1440.7,220.6z"/>
	<path class="st5" d="M1479,305.3c-12.2,5.3,2.5,13.9,2,1.8C1481,306.5,1479.3,305.2,1479,305.3z"/>
	<path class="st5" d="M1515.9,224.4c10.7-7.9-5.4-13-2.4-1.4C1513.7,223.7,1515.6,224.6,1515.9,224.4z"/>
	<path class="st5" d="M1442.8,260.6c10.7-7.9-5.4-13-2.3-1.4C1440.6,259.9,1442.5,260.8,1442.8,260.6z"/>
	<path class="st5" d="M1487.8,200.9c-10.6,5.7,3.2,13.6,3.5,2.5C1491.4,201.9,1488.7,200.5,1487.8,200.9z"/>
	<path class="st5" d="M1462.1,232.6c-10.6,5.7,3.2,13.6,3.5,2.5C1465.7,233.6,1463,232.1,1462.1,232.6z"/>
	<path class="st5" d="M1499.4,262.2c-10.6,5.7,3.2,13.6,3.5,2.5C1503,263.2,1500.2,261.7,1499.4,262.2z"/>
	<path class="st5" d="M1480.5,252.3c-10.5,5.7,3.2,13.6,3.5,2.5C1484.1,253.3,1481.4,251.8,1480.5,252.3z"/>
	<path class="st5" d="M1495.8,287.5c-10.6,5.7,3.2,13.6,3.5,2.5C1499.4,288.5,1496.6,287.1,1495.8,287.5z"/>
	<path class="st5" d="M1522.9,258.6c-10.6,5.7,3.2,13.6,3.5,2.5C1526.5,259.6,1523.7,258.1,1522.9,258.6z"/>
	<path class="st5" d="M1449.8,294.8c-10.5,5.7,3.2,13.6,3.5,2.5C1453.4,295.8,1450.6,294.3,1449.8,294.8z"/>
	<path class="st5" d="M1427,305.6c-10.5,5.7,3.2,13.6,3.6,2.5C1430.6,306.6,1427.8,305.2,1427,305.6z"/>
	<path class="st5" d="M1444,186.8c-10.5,5.7,3.2,13.6,3.5,2.5C1447.6,187.7,1444.9,186.3,1444,186.8z"/>
	<path class="st5" d="M1418.3,218.4c-10.5,5.7,3.2,13.6,3.5,2.5C1421.9,219.4,1419.2,217.9,1418.3,218.4z"/>
	<path class="st5" d="M1472.9,286.7c-10.5,5.7,3.2,13.6,3.6,2.5C1476.5,287.7,1473.8,286.3,1472.9,286.7z"/>
	<path class="st5" d="M1417.9,243.9c-10.6,5.7,3.2,13.6,3.5,2.5C1421.5,244.9,1418.8,243.4,1417.9,243.9z"/>
	<path class="st5" d="M1416.9,194.7c-10.5,5.7,3.2,13.6,3.5,2.5C1420.5,195.7,1417.7,194.2,1416.9,194.7z"/>
	<path class="st5" d="M1451.6,318.6c-10.6,5.7,3.2,13.6,3.5,2.5C1455.2,319.6,1452.4,318.1,1451.6,318.6z"/>
	<path class="st5" d="M1538.2,221.7c9.1-7.8-6.1-12.6-4-1.7C1534.4,221.5,1537.4,222.4,1538.2,221.7z"/>
	<path class="st5" d="M1465.1,257.9c9-7.8-6.1-12.5-4-1.7C1461.4,257.7,1464.4,258.5,1465.1,257.9z"/>
</g>
<g transform="matrix(.56618 0 0 .56618 -452.28 21.535)">
	<path class="st6" d="M1437.8,831.6l20.3,611c94.8,66.9,234.9,62.5,336,4.7l46.9-609.5C1684,778.1,1557.6,796.6,1437.8,831.6
		L1437.8,831.6z"/>
	<path class="st7" d="M1451.7,840.1c-0.6,0.7,76.7,40.6,176.7,42.1c104.6,1.5,202.8-34.7,196.8-38.8c0,0-76.5-33.2-170.2-35.1
		S1451.7,840.1,1451.7,840.1L1451.7,840.1z"/>
	<g>
		<path class="st8" d="M1453.2,858.8l34.9,522.3c92.6,39,190.7,41.7,284.4-6.3l53.3-512.2C1686.8,919,1548.2,905.3,1453.2,858.8
			L1453.2,858.8z"/>
		<path class="st8" d="M1467.2,847c99-34.5,250.8-39.8,343.4,3.5C1691.7,903.7,1535.4,885.2,1467.2,847z"/>
	</g>
	<path class="st9" d="M1466.1,849.3c14.2,6.4,28.3,12.2,42,17l12.1,606.2c-9.9-3.3-19.7-7.1-29.1-12.5L1466.1,849.3L1466.1,849.3z"
		/>
	
		<linearGradient id="SVGID_1_" gradientUnits="userSpaceOnUse" x1="4021.1426" y1="-189.3932" x2="3890.6426" y2="-173.6132" gradientTransform="matrix(0.5662 0 0 -0.5662 -451.5138 1061.2312)">
		<stop  offset="0" style="stop-color:#FFFFFF;stop-opacity:0.7922"/>
		<stop  offset="1" style="stop-color:#FFFFFF;stop-opacity:0"/>
	</linearGradient>
	<path class="st10" d="M1760.1,870.5c24.3-6.9,46.9-14.2,69.7-24.8l-63.7,613.7c-23.6,10.4-36.2,14.3-52.1,18.9L1760.1,870.5
		L1760.1,870.5z"/>
	<path class="st11" d="M1706.2,1479.6l45.6-606.9l-16.5,4.5l-42.3,605.7L1706.2,1479.6L1706.2,1479.6z"/>
</g>
<g transform="matrix(.56618 0 0 .56618 -452.28 21.535)">
	<path class="st6" d="M3158.1,831.6l20.3,611c94.8,66.9,234.9,62.5,336,4.7l46.9-609.5C3404.3,778.1,3277.9,796.6,3158.1,831.6
		L3158.1,831.6z"/>
	<path class="st7" d="M3172,840.1c-0.6,0.7,76.7,40.6,176.7,42.1c104.6,1.5,202.8-34.7,196.8-38.8c0,0-76.5-33.2-170.2-35.1
		S3172,840.1,3172,840.1L3172,840.1z"/>
	<g>
		<path class="st4" d="M3173.5,858.8l34.9,522.3c92.6,39,190.7,41.7,284.4-6.3l53.3-512.2C3407.1,919,3268.5,905.3,3173.5,858.8
			L3173.5,858.8z"/>
		<path class="st4" d="M3187.5,847c99-34.5,250.8-39.8,343.4,3.5C3412,903.7,3255.7,885.2,3187.5,847z"/>
	</g>
	<path class="st9" d="M3186.4,849.3c14.2,6.4,28.3,12.2,42,17l12.1,606.2c-9.9-3.3-19.7-7.1-29.1-12.5L3186.4,849.3L3186.4,849.3z"
		/>
	
		<linearGradient id="SVGID_2_" gradientUnits="userSpaceOnUse" x1="7059.5771" y1="-189.3932" x2="6929.0771" y2="-173.6132" gradientTransform="matrix(0.5662 0 0 -0.5662 -451.5138 1061.2312)">
		<stop  offset="0" style="stop-color:#FFFFFF;stop-opacity:0.7922"/>
		<stop  offset="1" style="stop-color:#FFFFFF;stop-opacity:0"/>
	</linearGradient>
	<path class="st12" d="M3480.4,870.5c24.3-6.9,46.9-14.2,69.7-24.8l-63.7,613.7c-23.6,10.4-36.2,14.3-52.1,18.9L3480.4,870.5
		L3480.4,870.5z"/>
	<path class="st11" d="M3426.5,1479.6l45.6-606.9l-16.5,4.5l-42.3,605.7L3426.5,1479.6L3426.5,1479.6z"/>
</g>
<g transform="matrix(.56618 0 0 .56618 -452.28 21.535)">
	<path class="st6" d="M2297.9,831.6l20.3,611c94.8,66.9,234.9,62.5,336,4.7l46.9-609.5C2544.1,778.1,2417.8,796.6,2297.9,831.6
		L2297.9,831.6z"/>
	<g>
		<path class="st13" d="M2313.3,858.8l34.9,522.3c92.6,39,190.7,41.7,284.4-6.3l53.3-512.2C2546.9,919,2408.4,905.3,2313.3,858.8
			L2313.3,858.8z"/>
		<path class="st13" d="M2327.3,847c99-34.5,250.8-39.8,343.4,3.5C2551.9,903.7,2395.5,885.2,2327.3,847z"/>
	</g>
	<path class="st7" d="M2311.8,840.1c-0.6,0.7,76.7,40.6,176.7,42.1c104.6,1.5,202.8-34.7,196.8-38.8c0,0-76.5-33.2-170.2-35.1
		S2311.8,840.1,2311.8,840.1L2311.8,840.1z"/>
	<g>
		<path class="st8" d="M2313.3,858.8l34.9,522.3c92.6,39,190.7,41.7,284.4-6.3l53.3-512.2C2546.9,919,2408.4,905.3,2313.3,858.8
			L2313.3,858.8z"/>
		<path class="st8" d="M2327.3,847c99-34.5,250.8-39.8,343.4,3.5C2551.9,903.7,2395.5,885.2,2327.3,847z"/>
	</g>
	<g class="st14">
		<path class="st4" d="M2313.3,858.8l34.9,522.3c92.6,39,190.7,41.7,284.4-6.3l53.3-512.2C2546.9,919,2408.4,905.3,2313.3,858.8
			L2313.3,858.8z"/>
		<path class="st4" d="M2327.3,847c99-34.5,250.8-39.8,343.4,3.5C2551.9,903.7,2395.5,885.2,2327.3,847z"/>
	</g>
	<path class="st9" d="M2326.2,849.3c14.2,6.4,28.3,12.2,42,17l12.1,606.2c-9.9-3.3-19.7-7.1-29.1-12.5L2326.2,849.3L2326.2,849.3z"
		/>
	
		<linearGradient id="SVGID_3_" gradientUnits="userSpaceOnUse" x1="5540.3599" y1="-189.3932" x2="5409.8599" y2="-173.6132" gradientTransform="matrix(0.5662 0 0 -0.5662 -451.5138 1061.2312)">
		<stop  offset="0" style="stop-color:#FFFFFF;stop-opacity:0.7922"/>
		<stop  offset="1" style="stop-color:#FFFFFF;stop-opacity:0"/>
	</linearGradient>
	<path class="st15" d="M2620.2,870.5c24.3-6.9,46.9-14.2,69.7-24.8l-63.7,613.7c-23.6,10.4-36.2,14.3-52.1,18.9L2620.2,870.5
		L2620.2,870.5z"/>
	<path class="st11" d="M2566.3,1479.6l45.6-606.9l-16.5,4.5l-42.3,605.7L2566.3,1479.6L2566.3,1479.6z"/>
</g>
<g id="_699425632_14_">
	<path class="st8" d="M628.9,44.3c1.2,9.7,13.2,44.7,8.5,53.5C562.7,244.1,464.1,273,364.4,265.3c-7.4-2.1-13.1-6.1-20.5-9.8
		c-2,6.8-4.6,13.6-6.6,20.3c9.5,6,13.9,8.7,21.3,11.3c179.8,149.5,351.9-64.9,303.3-187.4c1.7-7.5-9-46.2-11.3-55.5
		C644.7,41,634.5,43,628.9,44.3z"/>
	<path class="st16" d="M348,260l-4.7-2.7c-1.9,6.2-4.3,12.3-6,18.5c7.5,4.7,11.8,7.4,16.9,9.6c0.7-1.7,1.3-3.2,1.8-4.6
		c1.5-3.7,2.4-6.2,2.7-8.4c0.4-2.2,0.1-4-0.6-5.3c-0.7-1.3-1.9-2.2-3.6-3.4C352.7,262.6,350.3,261.3,348,260z"/>
	<path class="st17" d="M566.9,255.6c52.6-30.7,75-92.2,93.8-155.9l-22.4-5c-0.2,1.3-0.5,2.4-0.9,3.2
		C562.7,244.1,464.1,273,364.4,265.3c-7.4-2.1-13.1-6.1-20.5-9.8c-0.2,0.6-0.4,1.3-0.6,1.9l4.7,2.7c2.4,1.3,4.7,2.6,6.5,3.7
		c1.8,1.1,2.9,2,3.6,3.4c0.7,1.4,1,3.2,0.6,5.3c-0.2,1.3-0.6,2.8-1.3,4.5C428,287.3,499.4,294.9,566.9,255.6z"/>
	<path class="st18" d="M368.6,282.9c2.1-2.3,7.8,0.8,10.8,1.5c0.4,0.1,0.4,3.1-5.3,1C372,284.6,368.5,283,368.6,282.9z"/>
	<path class="st18" d="M448.5,293.6c1.3-2.8,7.7-1.4,10.8-1.6c0.4,0,1.3,2.9-4.9,2.4C452.2,294.3,448.5,293.8,448.5,293.6z"/>
	<path class="st18" d="M401,285.4c-2.8,1.5-12.9-6-13.4,0.1c-0.1,1.6,10.2,3.1,11.9,3C399.5,288.5,402.3,284.7,401,285.4z"/>
	<path class="st18" d="M480.3,286.9c-2.3,2.2-14.1-2.1-12.8,3.9c0.3,1.5,10.7,0.1,12.2-0.4C479.7,290.4,481.4,285.9,480.3,286.9z"/>
	<path class="st18" d="M358.9,280.8c-2.3,1.2-1.7,4.4,1.9,5.8c3,1.2,7.5,7.3,8.6,3.2c0.4-1.4-3.9-6.9-6.2-7.8
		C362.6,281.9,359,280.8,358.9,280.8z"/>
	<path class="st18" d="M374.8,289.6c4.3,2,10.1,1.2,15,3c1.2,0.4,6.6,0.5,5,3.1c-1.5,2.3-21.2-3.2-20.3-5.2
		C374.6,290.3,374.8,289.6,374.8,289.6z"/>
	<path class="st18" d="M444.9,320.1c4.7,0.8,10.1-1.4,15.2-0.9c1.2,0.1,6.5-1.2,5.6,1.7c-0.8,2.6-21.3,2.2-20.9,0.1
		C444.8,320.8,444.9,320.1,444.9,320.1z"/>
	<path class="st18" d="M456.3,298.4c4.7,0.7,10-1.7,15.2-1.3c1.3,0.1,6.5-1.4,5.7,1.6c-0.7,2.6-21.2,2.8-20.9,0.7
		C456.3,299,456.4,298.4,456.3,298.4z"/>
	<path class="st18" d="M496.7,322.4c4.7,0.7,10-1.7,15.2-1.3c1.3,0.1,6.5-1.4,5.7,1.6c-0.7,2.7-21.3,2.9-20.9,0.7
		C496.7,323.1,496.7,322.4,496.7,322.4z"/>
	<path class="st18" d="M542.4,289.4c4.4-1.8,7.7-6.6,12.3-9c1.1-0.6,4.9-4.6,5.7-1.6c0.7,2.7-16.8,13.4-17.6,11.4
		C542.7,290,542.4,289.4,542.4,289.4z"/>
	<path class="st18" d="M377.9,297c0.4-0.5,15.2,5.7,19.5,6c2,0.1,5.4,1.3,4.3,4.2c-1.7,4.6-10.4-0.5-13.3-2.2
		c-3-1.8-3.3-2.8-7.3-4.2c-1.2-0.5-3.6-1.9-3.2-3.3L377.9,297z"/>
	<path class="st18" d="M461.4,304.6c0.2-0.6,16.2,1.2,20.4,0.2c2-0.4,5.6-0.3,5.4,2.8c-0.3,4.9-10.2,2.5-13.3,1.6
		c-3.4-0.9-4-1.8-8.2-2c-1.3-0.1-3.9-0.8-4-2.2L461.4,304.6z"/>
	<path class="st18" d="M476.3,329.6c0.2-0.6,16.2,1.2,20.4,0.2c1.9-0.5,5.5-0.2,5.3,2.8c-0.3,4.9-10.2,2.5-13.3,1.6
		c-3.4-0.9-4-1.8-8.2-2c-1.3-0.1-3.9-0.8-3.9-2.2L476.3,329.6z"/>
	<path class="st18" d="M552.3,295.8c-0.1-0.6,14.5-7.3,17.6-10.3c1.4-1.4,4.6-3.1,6-0.4c2.2,4.4-7.5,7.3-10.6,8.3
		c-3.3,1-4.3,0.6-8.1,2.5c-1.1,0.6-3.8,1.4-4.6,0.1L552.3,295.8z"/>
	<path class="st18" d="M419.4,287.9c-0.9-0.3-11.8-2.3-12.4-1.9c-5.6,3.8,2.7,7.6,6.4,7.4c2.8-0.2,9.1,1.6,9.2-2.2
		C422.7,290.2,420.3,288.2,419.4,287.9z"/>
	<path class="st18" d="M498.7,284.1c-1-0.1-12,1.1-12.5,1.7c-4.3,5.2,4.7,6.5,8.3,5.2c2.6-0.9,9.1-1,8.2-4.6
		C502.4,285.5,499.7,284.2,498.7,284.1z"/>
	<path class="st18" d="M573.1,260.9c-0.8,0.4-9.7,7.1-9.8,7.9c-1,6.7,7.4,3.2,9.8,0.2c1.8-2.2,7.3-5.6,4.7-8.2
		C577.1,260.1,574,260.4,573.1,260.9z"/>
	<path class="st18" d="M605.5,228.9c-0.8,0.4-9.7,7.1-9.8,7.9c-1,6.7,7.4,3.1,9.8,0.2c1.8-2.2,7.3-5.6,4.7-8.2
		C609.4,228.1,606.4,228.5,605.5,228.9z"/>
	<path class="st18" d="M409.4,308.5c1.8,1.7,26.6,10.5,29.9,10.9c1.8,0.2-0.8,2.9-3.8,3.2c-3.3,0.3-28.7-3.1-25.9-9.7
		C409.9,311.8,410.1,309.2,409.4,308.5z"/>
	<path class="st18" d="M494.8,306.7c2.3,1.2,28.5,2.6,31.7,2c1.7-0.3,0.1,3-2.8,4.1c-3,1.3-28.4,5.1-27.6-2.1
		C496.3,309.7,495.8,307.2,494.8,306.7z"/>
	<path class="st18" d="M581.5,282.2c2.5-0.2,25.8-12.5,28.2-14.6c1.4-1.2,1.6,2.5-0.3,5c-2,2.6-21.7,19-24.7,12.5
		C584.3,284,582.5,282.1,581.5,282.2z"/>
	<path class="st18" d="M614.9,262.3c2.1-1.4,16.4-23.5,17.5-26.5c0.6-1.7,2.6,1.4,2.2,4.5c-0.4,3.3-9.7,27.2-15.5,23
		C618.2,262.5,615.8,261.7,614.9,262.3z"/>
	<path class="st18" d="M527,276.3c2.5,0.1,27-9.6,29.7-11.4c1.5-1,1.3,2.7-0.8,4.9c-2.3,2.4-23.7,16.5-26,9.7
		C529.6,278.4,528.1,276.4,527,276.3z"/>
	<path class="st18" d="M630.5,193.6c1.9-1.7,12.9-25.6,13.6-28.7c0.4-1.7,2.8,1,2.8,4.1c0,3.3-5.8,28.3-12.1,24.9
		C633.9,193.3,631.3,192.9,630.5,193.6z"/>
	<path class="st18" d="M654.2,177.4c1.3-2.2,4.8-28.3,4.5-31.5c-0.2-1.8,2.9,0.1,3.9,3.1c1,3.1,2.8,28.7-4.2,27.4
		C657.3,176.2,654.8,176.5,654.2,177.4z"/>
	<path class="st18" d="M403.6,296.5c6.4,1.8,12,3.8,18.5,5.1c6.4,1.3,7.3,8.1-0.1,5.5c-1.3-0.4-20.8-5.9-19.6-8.8
		C402.8,297.4,402.6,296.2,403.6,296.5z"/>
	<path class="st18" d="M467.9,314.2c6.4,1.8,12,3.8,18.5,5.1c6.4,1.3,7.3,8.1-0.1,5.5c-1.3-0.4-20.8-6-19.6-8.8
		C467.1,315.1,466.9,313.9,467.9,314.2z"/>
	<path class="st18" d="M485.9,296.9c6.6-0.1,12.6,0.3,19.1-0.3c6.5-0.6,9.2,5.7,1.5,5.3c-1.4-0.1-21.6,0.1-21.3-3
		C485.4,298,484.9,296.9,485.9,296.9z"/>
	<path class="st18" d="M568.8,278.3c5.7-3.5,11-6.2,16.3-10.1c5.3-3.9,10.9,0.1,4,3.8c-1.2,0.6-18.4,11.3-19.7,8.4
		C568.9,279.6,567.9,278.9,568.8,278.3z"/>
	<path class="st18" d="M650.8,157.8c0.4-6.6,1.3-12.6,1.2-19.1c-0.1-6.5,6.4-8.8,5.4-1.1c-0.2,1.4-1.5,21.5-4.6,21
		C651.9,158.4,650.7,158.8,650.8,157.8z"/>
	<path class="st18" d="M661.2,135.5c-0.6-6.6-0.7-12.6-1.9-19.1c-1.1-6.4,4.9-9.7,5.2-1.9c0,1.4,1.9,21.5-1.2,21.4
		C662.3,135.9,661.3,136.6,661.2,135.5z"/>
	<path class="st18" d="M516.8,328c6.1-2.7,11.7-4.7,17.5-7.8c5.7-3.1,10.8,1.6,3.5,4.3c-1.3,0.5-19.8,8.6-20.7,5.6
		C516.7,329.2,515.8,328.4,516.8,328z"/>
	<path class="st18" d="M567.9,308c4.8-4.6,9.4-8.4,13.7-13.3c4.3-4.9,10.6-2.2,4.7,2.9c-1,0.9-15.6,14.9-17.5,12.4
		C568.3,309.2,567.2,308.7,567.9,308z"/>
	<path class="st18" d="M447.1,289.9c-0.4,0.1-10.5-1.7-15-1c-12.8,2,7,9.5,14.2,0.9C446.7,289.4,446.9,290,447.1,289.9z"/>
	<path class="st18" d="M525.8,278.3c-0.4,0.3-10.6,1.3-14.7,3.2c-11.7,5.5,9.4,7.1,13.9-3.1C525.2,277.9,525.7,278.4,525.8,278.3z"
		/>
	<path class="st18" d="M547.8,305.7c-0.3,0.3-10.6,1.3-14.7,3.2c-11.7,5.5,9.4,7.1,13.9-3.1C547.2,305.3,547.6,305.8,547.8,305.7z"
		/>
	<path class="st18" d="M561.2,310.3c-0.4,0.3-10.6,1.3-14.7,3.3c-11.7,5.5,9.4,7.1,13.9-3.1C560.6,310,561.1,310.4,561.2,310.3z"/>
	<path class="st18" d="M593.4,241.8c-0.2,0.4-8.4,6.6-11,10.4c-7.2,10.7,11.7,1.2,10.3-9.8C592.7,241.8,593.3,242,593.4,241.8z"/>
	<path class="st18" d="M625.7,209.9c-0.2,0.4-8.4,6.6-11,10.4c-7.2,10.7,11.7,1.2,10.3-9.8C625,209.9,625.7,210.1,625.7,209.9z"/>
	<path class="st18" d="M641.5,194.3c-0.2,0.4-8.4,6.6-10.9,10.3c-7.2,10.8,11.7,1.3,10.3-9.8C640.8,194.2,641.4,194.4,641.5,194.3z"
		/>
	<path class="st18" d="M651.1,199.9c-0.2,0.4-8.4,6.6-11,10.4c-7.2,10.8,11.7,1.3,10.3-9.8C650.4,199.9,651,200.1,651.1,199.9z"/>
	<path class="st18" d="M432.5,298.8c0.8-0.4,18.6-2.8,17.9,1c-1.4,7.2-10.8,2.3-16.5,1.9C431.2,301.5,432.8,298.7,432.5,298.8z"/>
	<path class="st18" d="M514.3,291c0.7-0.6,17.1-7.9,17.4-4.1c0.6,7.3-9.7,5.2-15.3,6.4C513.7,293.9,514.6,290.7,514.3,291z"/>
	<path class="st18" d="M549.6,304.2c0.7-0.6,17.1-7.9,17.4-4.1c0.6,7.3-9.8,5.2-15.3,6.4C549,307.2,549.9,304,549.6,304.2z"/>
	<path class="st18" d="M590.1,258.7c0.3-0.9,10.6-15.6,12.8-12.5c4.3,5.9-5.6,9.5-9.8,13.4C591.1,261.4,590.2,258.3,590.1,258.7z"/>
	<path class="st18" d="M608.5,244c0.3-0.9,10.6-15.6,12.8-12.5c4.3,5.9-5.7,9.5-9.8,13.4C609.5,246.8,608.6,243.7,608.5,244z"/>
	<path class="st18" d="M622.4,226.7c0.3-0.9,10.6-15.6,12.8-12.5c4.3,5.9-5.6,9.5-9.8,13.4C623.4,229.5,622.5,226.3,622.4,226.7z"/>
	<path class="st18" d="M653.2,198.9c-0.2-0.9,2.4-18.7,5.8-16.9c6.5,3.3-0.8,11-2.7,16.4C655.4,201,653.2,198.6,653.2,198.9z"/>
	<path class="st18" d="M433.4,307.3c0.3,0.1,19.2,1,21,0.9c0.9-0.1,4.7,1.2,1.1,3.9c-3.8,2.9-22.8-3.5-22.7-3.6
		C432.8,308.5,433.3,307.3,433.4,307.3z"/>
	<path class="st18" d="M517.5,298.8c0.3,0,18.7-4.4,20.4-5c0.8-0.3,4.9-0.2,2.2,3.4c-2.9,3.8-22.8,3.1-22.8,3
		C517.3,300.1,517.4,298.8,517.5,298.8z"/>
	<path class="st18" d="M596.9,263.7c0.3-0.2,13.8-13.4,14.9-14.8c0.6-0.7,4.1-2.7,3.6,1.8c-0.5,4.8-18,14.4-18,14.3
		C597.3,265,596.8,263.8,596.9,263.7z"/>
	<path class="st18" d="M629.2,231.8c0.3-0.2,13.8-13.4,14.9-14.8c0.6-0.7,4.1-2.7,3.6,1.8c-0.5,4.7-18,14.4-18,14.3
		C629.7,233.1,629.1,231.9,629.2,231.8z"/>
	<path class="st18" d="M645.5,200.1c0.1-0.3,2.5-19.1,2.6-20.9c0-0.9,1.6-4.7,4-0.8c2.6,4-5.2,22.4-5.3,22.4
		C646.6,200.8,645.5,200.2,645.5,200.1z"/>
	<path class="st18" d="M449.4,327.6c0.3,0,18.7-4.4,20.4-5c0.8-0.3,4.9-0.2,2.2,3.4c-2.9,3.8-22.8,3.1-22.8,3
		C449.1,328.9,449.3,327.6,449.4,327.6z"/>
	<path class="st17" d="M649.1,97.1l-7.8-54.6c-4.5,0.1-9.2,1.1-12.4,1.8c1.1,8.8,11,38.3,9.4,50.3L649.1,97.1z"/>
</g>
<g>
	<path d="M811.7,953.6c0.3,2.7,1.6,4.6,3.8,5.6c1.1,0.5,2.4,0.8,3.9,0.8c2.8,0,4.9-0.9,6.3-2.7c1.4-1.8,2-3.8,2-6
		c0-2.6-0.8-4.7-2.4-6.1c-1.6-1.4-3.5-2.2-5.8-2.2c-1.6,0-3,0.3-4.2,1s-2.2,1.5-3,2.6l-4.1-0.2L811,926h19.7v4.6h-16.1l-1.6,10.5
		c0.9-0.7,1.7-1.2,2.5-1.5c1.4-0.6,3-0.9,4.9-0.9c3.5,0,6.4,1.1,8.8,3.4c2.4,2.2,3.6,5.1,3.6,8.5c0,3.6-1.1,6.7-3.3,9.5
		s-5.7,4.1-10.6,4.1c-3.1,0-5.8-0.9-8.2-2.6c-2.4-1.7-3.7-4.4-4-8H811.7z"/>
	<path d="M860.4,931.5c1.7,3.1,2.5,7.4,2.5,12.8c0,5.1-0.8,9.4-2.3,12.8c-2.2,4.8-5.8,7.2-10.9,7.2c-4.5,0-7.9-2-10.1-5.9
		c-1.8-3.3-2.8-7.7-2.8-13.3c0-4.3,0.6-8,1.7-11.1c2.1-5.7,5.8-8.6,11.3-8.6C854.7,925.4,858.2,927.4,860.4,931.5z M855.6,956.7
		c1.5-2.2,2.2-6.3,2.2-12.2c0-4.3-0.5-7.8-1.6-10.6c-1.1-2.8-3.1-4.2-6.2-4.2c-2.8,0-4.9,1.3-6.2,4s-1.9,6.5-1.9,11.6
		c0,3.9,0.4,7,1.2,9.3c1.3,3.6,3.4,5.4,6.5,5.4C852.2,959.9,854.1,958.9,855.6,956.7z"/>
	<path d="M882.7,929.3c1.8,1.8,2.7,4,2.7,6.5c0,2.5-0.9,4.7-2.7,6.5s-4,2.7-6.5,2.7c-2.5,0-4.7-0.9-6.5-2.7s-2.7-4-2.7-6.5
		c0-2.5,0.9-4.7,2.7-6.5s4-2.7,6.5-2.7C878.7,926.5,880.9,927.4,882.7,929.3z M880,939.6c1.1-1.1,1.6-2.3,1.6-3.8
		c0-1.5-0.5-2.8-1.6-3.8c-1.1-1.1-2.4-1.6-3.9-1.6c-1.5,0-2.8,0.5-3.8,1.6c-1.1,1.1-1.6,2.3-1.6,3.9c0,1.5,0.5,2.8,1.6,3.8
		c1.1,1.1,2.3,1.6,3.8,1.6C877.7,941.2,879,940.7,880,939.6z M898.3,925.6h2.9l-21.2,38.7h-3L898.3,925.6z M908.6,947.5
		c1.8,1.8,2.7,4,2.7,6.5c0,2.5-0.9,4.7-2.7,6.5s-4,2.7-6.5,2.7c-2.6,0-4.7-0.9-6.5-2.7s-2.7-4-2.7-6.5c0-2.5,0.9-4.7,2.7-6.5
		c1.8-1.8,4-2.7,6.5-2.7C904.7,944.8,906.8,945.7,908.6,947.5z M906,957.9c1.1-1.1,1.6-2.4,1.6-3.9c0-1.5-0.5-2.8-1.6-3.9
		c-1.1-1.1-2.3-1.6-3.8-1.6c-1.5,0-2.8,0.5-3.9,1.6c-1.1,1.1-1.6,2.4-1.6,3.9c0,1.5,0.5,2.8,1.6,3.9c1.1,1.1,2.4,1.6,3.9,1.6
		C903.6,959.5,904.9,959,906,957.9z"/>
	<path d="M932.4,924.4h16.8c4.6,0,7.8,1.4,9.8,4.1c1.1,1.6,1.7,3.5,1.7,5.5c0,2.4-0.7,4.5-2.1,6c-0.7,0.8-1.8,1.6-3.1,2.3
		c2,0.8,3.5,1.6,4.5,2.6c1.7,1.7,2.6,4,2.6,7c0,2.5-0.8,4.8-2.4,6.8c-2.4,3-6.1,4.5-11.2,4.5h-16.5V924.4z M947.2,940.8
		c2.2,0,4-0.3,5.2-0.9c2-1,2.9-2.7,2.9-5.2c0-2.5-1-4.2-3.1-5.1c-1.2-0.5-2.9-0.7-5.2-0.7h-9.5v12H947.2z M949,958.8
		c3.3,0,5.6-0.9,7-2.8c0.9-1.2,1.3-2.6,1.3-4.3c0-2.8-1.3-4.7-3.8-5.8c-1.4-0.5-3.1-0.8-5.4-0.8h-10.5v13.7H949z"/>
	<path d="M983.1,946.1c1.1-0.1,1.8-0.6,2.2-1.4c0.2-0.4,0.3-1,0.3-1.8c0-1.6-0.6-2.8-1.7-3.5c-1.2-0.7-2.8-1.1-4.9-1.1
		c-2.5,0-4.2,0.7-5.3,2c-0.6,0.7-1,1.9-1.1,3.3h-4.4c0.1-3.5,1.2-5.9,3.4-7.3c2.2-1.4,4.7-2.1,7.6-2.1c3.3,0,6,0.6,8.1,1.9
		c2.1,1.3,3.1,3.2,3.1,5.9v16.3c0,0.5,0.1,0.9,0.3,1.2s0.6,0.4,1.3,0.4c0.2,0,0.4,0,0.7,0c0.3,0,0.5-0.1,0.8-0.1v3.5
		c-0.7,0.2-1.3,0.3-1.7,0.4c-0.4,0.1-0.9,0.1-1.6,0.1c-1.6,0-2.8-0.6-3.6-1.7c-0.4-0.6-0.7-1.5-0.8-2.6c-1,1.3-2.4,2.4-4.2,3.3
		c-1.8,0.9-3.8,1.4-6,1.4c-2.6,0-4.8-0.8-6.4-2.4c-1.7-1.6-2.5-3.6-2.5-6c0-2.6,0.8-4.7,2.5-6.1c1.6-1.4,3.8-2.3,6.4-2.7
		L983.1,946.1z M973.1,959c1,0.8,2.2,1.2,3.6,1.2c1.7,0,3.3-0.4,4.9-1.2c2.6-1.3,4-3.4,4-6.3v-3.8c-0.6,0.4-1.3,0.7-2.2,0.9
		s-1.8,0.4-2.7,0.5l-2.9,0.4c-1.7,0.2-3,0.6-3.9,1.1c-1.5,0.8-2.2,2.1-2.2,4C971.6,957.1,972.1,958.2,973.1,959z"/>
	<path d="M998.1,934.9h4.5v4c1.3-1.7,2.8-2.8,4.3-3.6c1.5-0.7,3.2-1.1,5-1.1c4,0,6.7,1.4,8.1,4.2c0.8,1.5,1.2,3.7,1.2,6.6v18.2h-4.8
		v-17.8c0-1.7-0.3-3.1-0.8-4.2c-0.8-1.8-2.4-2.6-4.6-2.6c-1.1,0-2.1,0.1-2.8,0.3c-1.3,0.4-2.4,1.2-3.4,2.3c-0.8,0.9-1.3,1.9-1.5,2.9
		c-0.2,1-0.4,2.4-0.4,4.3v14.8h-4.8V934.9z"/>
	<path d="M1043.3,946.1c1.1-0.1,1.8-0.6,2.2-1.4c0.2-0.4,0.3-1,0.3-1.8c0-1.6-0.6-2.8-1.7-3.5c-1.2-0.7-2.8-1.1-4.9-1.1
		c-2.5,0-4.2,0.7-5.3,2c-0.6,0.7-1,1.9-1.1,3.3h-4.4c0.1-3.5,1.2-5.9,3.4-7.3c2.2-1.4,4.7-2.1,7.6-2.1c3.3,0,6,0.6,8.1,1.9
		c2.1,1.3,3.1,3.2,3.1,5.9v16.3c0,0.5,0.1,0.9,0.3,1.2c0.2,0.3,0.6,0.4,1.3,0.4c0.2,0,0.4,0,0.7,0c0.3,0,0.5-0.1,0.8-0.1v3.5
		c-0.7,0.2-1.3,0.3-1.7,0.4c-0.4,0.1-0.9,0.1-1.6,0.1c-1.6,0-2.8-0.6-3.6-1.7c-0.4-0.6-0.7-1.5-0.8-2.6c-1,1.3-2.4,2.4-4.2,3.3
		c-1.8,0.9-3.8,1.4-6,1.4c-2.6,0-4.8-0.8-6.4-2.4c-1.7-1.6-2.5-3.6-2.5-6c0-2.6,0.8-4.7,2.5-6.1c1.6-1.4,3.8-2.3,6.4-2.7
		L1043.3,946.1z M1033.3,959c1,0.8,2.2,1.2,3.6,1.2c1.7,0,3.3-0.4,4.9-1.2c2.6-1.3,4-3.4,4-6.3v-3.8c-0.6,0.4-1.3,0.7-2.2,0.9
		s-1.8,0.4-2.7,0.5l-2.9,0.4c-1.7,0.2-3,0.6-3.9,1.1c-1.5,0.8-2.2,2.1-2.2,4C1031.8,957.1,1032.3,958.2,1033.3,959z"/>
	<path d="M1058.3,934.9h4.5v4c1.3-1.7,2.8-2.8,4.3-3.6c1.5-0.7,3.2-1.1,5-1.1c4,0,6.7,1.4,8.1,4.2c0.8,1.5,1.2,3.7,1.2,6.6v18.2
		h-4.8v-17.8c0-1.7-0.3-3.1-0.8-4.2c-0.8-1.8-2.4-2.6-4.6-2.6c-1.1,0-2.1,0.1-2.8,0.3c-1.3,0.4-2.4,1.2-3.4,2.3
		c-0.8,0.9-1.3,1.9-1.5,2.9c-0.2,1-0.4,2.4-0.4,4.3v14.8h-4.8V934.9z"/>
	<path d="M1103.5,946.1c1.1-0.1,1.8-0.6,2.2-1.4c0.2-0.4,0.3-1,0.3-1.8c0-1.6-0.6-2.8-1.7-3.5c-1.2-0.7-2.8-1.1-4.9-1.1
		c-2.5,0-4.2,0.7-5.3,2c-0.6,0.7-1,1.9-1.1,3.3h-4.4c0.1-3.5,1.2-5.9,3.4-7.3c2.2-1.4,4.7-2.1,7.6-2.1c3.3,0,6,0.6,8.1,1.9
		c2.1,1.3,3.1,3.2,3.1,5.9v16.3c0,0.5,0.1,0.9,0.3,1.2s0.6,0.4,1.3,0.4c0.2,0,0.4,0,0.7,0s0.5-0.1,0.8-0.1v3.5
		c-0.7,0.2-1.3,0.3-1.7,0.4c-0.4,0.1-0.9,0.1-1.6,0.1c-1.6,0-2.8-0.6-3.6-1.7c-0.4-0.6-0.7-1.5-0.8-2.6c-1,1.3-2.4,2.4-4.2,3.3
		c-1.8,0.9-3.8,1.4-6,1.4c-2.6,0-4.8-0.8-6.4-2.4c-1.7-1.6-2.5-3.6-2.5-6c0-2.6,0.8-4.7,2.5-6.1c1.6-1.4,3.8-2.3,6.4-2.7
		L1103.5,946.1z M1093.5,959c1,0.8,2.2,1.2,3.6,1.2c1.7,0,3.3-0.4,4.9-1.2c2.6-1.3,4-3.4,4-6.3v-3.8c-0.6,0.4-1.3,0.7-2.2,0.9
		s-1.8,0.4-2.7,0.5l-2.9,0.4c-1.7,0.2-3,0.6-3.9,1.1c-1.5,0.8-2.2,2.1-2.2,4C1092,957.1,1092.5,958.2,1093.5,959z"/>
	<path d="M774.2,1018.5c0.3,2.7,1.6,4.6,3.8,5.6c1.1,0.5,2.4,0.8,3.9,0.8c2.8,0,4.9-0.9,6.3-2.7c1.4-1.8,2-3.8,2-6
		c0-2.6-0.8-4.7-2.4-6.1c-1.6-1.4-3.5-2.2-5.8-2.2c-1.6,0-3,0.3-4.2,1s-2.2,1.5-3,2.6l-4.1-0.2l2.9-20.4h19.7v4.6h-16.1l-1.6,10.5
		c0.9-0.7,1.7-1.2,2.5-1.5c1.4-0.6,3-0.9,4.9-0.9c3.5,0,6.4,1.1,8.8,3.4c2.4,2.2,3.6,5.1,3.6,8.5c0,3.6-1.1,6.7-3.3,9.5
		s-5.7,4.1-10.6,4.1c-3.1,0-5.8-0.9-8.2-2.6c-2.4-1.7-3.7-4.4-4-8H774.2z"/>
	<path d="M822.9,996.4c1.7,3.1,2.5,7.4,2.5,12.8c0,5.1-0.8,9.4-2.3,12.8c-2.2,4.8-5.8,7.2-10.9,7.2c-4.5,0-7.9-2-10.1-5.9
		c-1.8-3.3-2.8-7.7-2.8-13.3c0-4.3,0.6-8,1.7-11.1c2.1-5.7,5.8-8.6,11.3-8.6C817.1,990.4,820.7,992.4,822.9,996.4z M818.1,1021.6
		c1.5-2.2,2.2-6.3,2.2-12.2c0-4.3-0.5-7.8-1.6-10.6c-1.1-2.8-3.1-4.2-6.2-4.2c-2.8,0-4.9,1.3-6.2,4s-1.9,6.5-1.9,11.6
		c0,3.9,0.4,7,1.2,9.3c1.3,3.6,3.4,5.4,6.5,5.4C814.6,1024.9,816.6,1023.8,818.1,1021.6z"/>
	<path d="M845.2,994.2c1.8,1.8,2.7,4,2.7,6.5c0,2.5-0.9,4.7-2.7,6.5s-4,2.7-6.5,2.7c-2.5,0-4.7-0.9-6.5-2.7s-2.7-4-2.7-6.5
		c0-2.5,0.9-4.7,2.7-6.5s4-2.7,6.5-2.7C841.2,991.5,843.4,992.4,845.2,994.2z M842.5,1004.6c1.1-1.1,1.6-2.3,1.6-3.8
		c0-1.5-0.5-2.8-1.6-3.8c-1.1-1.1-2.4-1.6-3.9-1.6c-1.5,0-2.8,0.5-3.8,1.6c-1.1,1.1-1.6,2.3-1.6,3.9c0,1.5,0.5,2.8,1.6,3.8
		c1.1,1.1,2.3,1.6,3.8,1.6C840.2,1006.2,841.4,1005.6,842.5,1004.6z M860.8,990.5h2.9l-21.2,38.7h-3L860.8,990.5z M871.1,1012.5
		c1.8,1.8,2.7,4,2.7,6.5c0,2.5-0.9,4.7-2.7,6.5s-4,2.7-6.5,2.7c-2.6,0-4.7-0.9-6.5-2.7s-2.7-4-2.7-6.5c0-2.5,0.9-4.7,2.7-6.5
		c1.8-1.8,4-2.7,6.5-2.7C867.1,1009.8,869.3,1010.7,871.1,1012.5z M868.4,1022.8c1.1-1.1,1.6-2.4,1.6-3.9c0-1.5-0.5-2.8-1.6-3.9
		c-1.1-1.1-2.3-1.6-3.8-1.6c-1.5,0-2.8,0.5-3.9,1.6c-1.1,1.1-1.6,2.4-1.6,3.9c0,1.5,0.5,2.8,1.6,3.9c1.1,1.1,2.4,1.6,3.9,1.6
		C866.1,1024.4,867.4,1023.9,868.4,1022.8z"/>
	<path d="M898.4,1015.7c0.1,2.2,0.6,4,1.5,5.4c1.7,2.6,4.6,3.9,8.9,3.9c1.9,0,3.6-0.3,5.2-0.8c3-1.1,4.5-3,4.5-5.9
		c0-2.1-0.6-3.6-1.9-4.5c-1.3-0.9-3.3-1.6-6.1-2.3l-5.1-1.2c-3.3-0.8-5.7-1.6-7.1-2.6c-2.4-1.6-3.6-4-3.6-7.3c0-3.5,1.2-6.4,3.5-8.6
		c2.3-2.2,5.7-3.4,10-3.4c4,0,7.3,1,10.1,2.9c2.8,2,4.2,5.1,4.2,9.4h-4.9c-0.3-2.1-0.8-3.7-1.6-4.8c-1.5-2-4.1-3-7.8-3
		c-3,0-5.1,0.7-6.4,2c-1.3,1.3-2,2.8-2,4.5c0,1.9,0.8,3.3,2.3,4.2c1,0.6,3.3,1.3,6.8,2.1l5.3,1.2c2.5,0.6,4.5,1.4,5.9,2.5
		c2.4,1.8,3.6,4.4,3.6,7.9c0,4.3-1.5,7.4-4.6,9.2c-3,1.8-6.6,2.8-10.6,2.8c-4.7,0-8.4-1.2-11.1-3.7c-2.7-2.4-4-5.8-3.9-10H898.4z"/>
	<path d="M931.4,992h4.8v7.9h4.5v3.9h-4.5v18.5c0,1,0.3,1.6,1,2c0.4,0.2,1,0.3,1.8,0.3c0.2,0,0.5,0,0.7,0c0.3,0,0.6,0,0.9-0.1v3.8
		c-0.5,0.2-1.1,0.3-1.7,0.3c-0.6,0.1-1.2,0.1-1.9,0.1c-2.2,0-3.7-0.6-4.5-1.7c-0.8-1.1-1.2-2.6-1.2-4.4v-18.7h-3.8v-3.9h3.8V992z"/>
	<path d="M945.6,999.9h4.5v4.9c0.4-1,1.3-2.1,2.7-3.5c1.4-1.4,3.1-2,5-2c0.1,0,0.2,0,0.4,0s0.6,0.1,1.1,0.1v5
		c-0.3-0.1-0.5-0.1-0.8-0.1c-0.2,0-0.5,0-0.8,0c-2.4,0-4.2,0.8-5.5,2.3c-1.3,1.5-1.9,3.3-1.9,5.3v16.3h-4.8V999.9z"/>
	<path d="M978.7,1011.1c1.1-0.1,1.8-0.6,2.2-1.4c0.2-0.4,0.3-1,0.3-1.8c0-1.6-0.6-2.8-1.7-3.5c-1.2-0.7-2.8-1.1-4.9-1.1
		c-2.5,0-4.2,0.7-5.3,2c-0.6,0.7-1,1.9-1.1,3.3h-4.4c0.1-3.5,1.2-5.9,3.4-7.3s4.7-2.1,7.6-2.1c3.3,0,6,0.6,8.1,1.9
		c2.1,1.3,3.1,3.2,3.1,5.9v16.3c0,0.5,0.1,0.9,0.3,1.2c0.2,0.3,0.6,0.4,1.3,0.4c0.2,0,0.4,0,0.7,0c0.3,0,0.5-0.1,0.8-0.1v3.5
		c-0.7,0.2-1.3,0.3-1.7,0.4c-0.4,0.1-0.9,0.1-1.6,0.1c-1.6,0-2.8-0.6-3.6-1.7c-0.4-0.6-0.7-1.5-0.8-2.6c-1,1.3-2.4,2.4-4.2,3.3
		c-1.8,0.9-3.8,1.4-6,1.4c-2.6,0-4.8-0.8-6.4-2.4c-1.7-1.6-2.5-3.6-2.5-6c0-2.6,0.8-4.7,2.5-6.1c1.6-1.4,3.8-2.3,6.4-2.7
		L978.7,1011.1z M968.7,1023.9c1,0.8,2.2,1.2,3.6,1.2c1.7,0,3.3-0.4,4.9-1.2c2.6-1.3,4-3.4,4-6.3v-3.8c-0.6,0.4-1.3,0.7-2.2,0.9
		s-1.8,0.4-2.7,0.5l-2.9,0.4c-1.7,0.2-3,0.6-3.9,1.1c-1.5,0.8-2.2,2.1-2.2,4C967.2,1022,967.7,1023.1,968.7,1023.9z"/>
	<path d="M995.8,999.9l5.4,22.3l5.5-22.3h5.3l5.5,22.2l5.8-22.2h4.8l-8.2,28.3h-4.9l-5.8-21.9l-5.6,21.9h-4.9l-8.2-28.3H995.8z"/>
	<path d="M1032.3,989.2h4.6v14.1c1-1.4,2.3-2.4,3.7-3.1c1.4-0.7,3-1.1,4.7-1.1c3.5,0,6.4,1.2,8.6,3.6c2.2,2.4,3.3,6,3.3,10.7
		c0,4.5-1.1,8.2-3.3,11.2c-2.2,3-5.2,4.4-9,4.4c-2.2,0-4-0.5-5.5-1.6c-0.9-0.6-1.8-1.6-2.8-3v3.6h-4.4V989.2z M1050.5,1021.8
		c1.3-2,1.9-4.7,1.9-8.1c0-3-0.6-5.4-1.9-7.4s-3.2-2.9-5.7-2.9c-2.2,0-4.1,0.8-5.7,2.4s-2.5,4.2-2.5,7.9c0,2.7,0.3,4.8,1,6.5
		c1.3,3.1,3.6,4.7,7,4.7C1047.3,1024.9,1049.2,1023.9,1050.5,1021.8z"/>
	<path d="M1080.3,1000.7c1.9,0.9,3.3,2.2,4.3,3.7c0.9,1.4,1.6,3.1,1.9,5c0.3,1.3,0.4,3.4,0.4,6.2h-20.6c0.1,2.9,0.8,5.2,2,6.9
		c1.3,1.7,3.2,2.6,5.8,2.6c2.5,0,4.4-0.8,5.9-2.5c0.8-1,1.4-2.1,1.7-3.3h4.7c-0.1,1-0.5,2.2-1.2,3.5c-0.7,1.3-1.5,2.3-2.3,3.1
		c-1.4,1.4-3.2,2.4-5.3,2.9c-1.1,0.3-2.4,0.4-3.9,0.4c-3.5,0-6.5-1.3-8.9-3.8s-3.7-6.2-3.7-10.8c0-4.5,1.2-8.2,3.7-11.1
		c2.5-2.8,5.7-4.3,9.6-4.3C1076.5,999.3,1078.4,999.7,1080.3,1000.7z M1082,1011.8c-0.2-2.1-0.6-3.7-1.3-4.9
		c-1.3-2.3-3.5-3.4-6.5-3.4c-2.2,0-4,0.8-5.4,2.4c-1.5,1.6-2.2,3.6-2.3,6H1082z"/>
	<path d="M1093,999.9h4.5v4.9c0.4-1,1.3-2.1,2.7-3.5c1.4-1.4,3.1-2,5-2c0.1,0,0.2,0,0.5,0c0.2,0,0.6,0.1,1.1,0.1v5
		c-0.3-0.1-0.5-0.1-0.8-0.1c-0.2,0-0.5,0-0.8,0c-2.4,0-4.2,0.8-5.5,2.3c-1.3,1.5-1.9,3.3-1.9,5.3v16.3h-4.8V999.9z"/>
	<path d="M1111,999.9h4.5v4.9c0.4-1,1.3-2.1,2.7-3.5c1.4-1.4,3.1-2,5-2c0.1,0,0.2,0,0.4,0s0.6,0.1,1.1,0.1v5
		c-0.3-0.1-0.5-0.1-0.8-0.1c-0.2,0-0.5,0-0.8,0c-2.4,0-4.2,0.8-5.5,2.3c-1.3,1.5-1.9,3.3-1.9,5.3v16.3h-4.8V999.9z"/>
	<path d="M1146.6,999.9h5.3c-0.7,1.8-2.2,6-4.5,12.4c-1.7,4.9-3.2,8.8-4.3,11.9c-2.7,7.2-4.7,11.6-5.8,13.2
		c-1.1,1.6-3.1,2.4-5.8,2.4c-0.7,0-1.2,0-1.5-0.1c-0.4-0.1-0.8-0.1-1.3-0.3v-4.3c0.8,0.2,1.4,0.4,1.8,0.4c0.4,0.1,0.7,0.1,1,0.1
		c0.9,0,1.5-0.1,1.9-0.4c0.4-0.3,0.8-0.6,1-1.1c0.1-0.1,0.4-0.9,0.9-2.2c0.5-1.3,0.9-2.3,1.2-2.9l-10.5-29.1h5.4l7.6,23.1
		L1146.6,999.9z"/>
</g>
</svg>
