<?xml version="1.0" encoding="utf-8"?>
<!-- Generator: Adobe Illustrator 22.1.0, SVG Export Plug-In . SVG Version: 6.00 Build 0)  -->
<svg version="1.1" id="Layer_1" xmlns="http://www.w3.org/2000/svg" xmlns:xlink="http://www.w3.org/1999/xlink" x="0px" y="0px"
	 viewBox="0 0 2724 1080" style="enable-background:new 0 0 2724 1080;" xml:space="preserve">
<style type="text/css">
	.st0{fill:#EFEFEF;}
	.st1{fill:#BEDBFF;}
	.st2{fill:#FFFFFF;fill-opacity:0.466;}
	.st3{fill:#F5DF3F;}
	.st4{fill:#FFFFFF;fill-opacity:0.585;}
	.st5{fill:url(#SVGID_1_);}
	.st6{fill:#FFFFFF;fill-opacity:0.4898;}
	.st7{fill:#F51B1B;}
	.st8{fill:url(#SVGID_2_);}
	.st9{fill:#FFFFFF;}
	.st10{opacity:0.5;}
	.st11{fill:url(#SVGID_3_);}
	.st12{opacity:0.25;}
	.st13{fill:url(#SVGID_4_);}
	.st14{opacity:0.75;}
	.st15{fill:url(#SVGID_5_);}
	.st16{fill:#3B6620;}
	.st17{fill:#599029;}
	.st18{fill:#8BBC4E;}
	.st19{fill:#F0A6A6;}
	.st20{fill:#A55325;}
	.st21{fill:#E7CC00;}
	.st22{fill:#F17D23;}
</style>
<g>
	<circle class="st0" cx="2413" cy="646" r="252"/>
</g>
<g>
	<circle class="st0" cx="307" cy="646" r="252"/>
</g>
<g transform="matrix(.56618 0 0 .56618 -452.28 21.535)">
	<path class="st1" d="M1151.6,791.6l20.3,611c94.8,66.9,234.9,62.5,336,4.7l46.9-609.5C1397.9,738,1271.5,756.5,1151.6,791.6
		L1151.6,791.6z"/>
	<path class="st2" d="M1165.5,800.1c-0.6,0.7,76.7,40.6,176.7,42.1c104.6,1.5,202.8-34.7,196.8-38.8c0,0-76.5-33.2-170.2-35.1
		S1165.5,800.1,1165.5,800.1L1165.5,800.1z"/>
	<g>
		<path class="st3" d="M1167,818.8l34.9,522.3c92.6,39,190.7,41.7,284.4-6.3l53.3-512.2C1400.6,878.9,1262.1,865.3,1167,818.8
			L1167,818.8z"/>
		<path class="st3" d="M1181,807c99-34.5,250.8-39.8,343.4,3.5C1405.6,863.6,1249.3,845.1,1181,807z"/>
	</g>
	<path class="st4" d="M1179.9,809.2c14.2,6.4,28.3,12.2,42,17l12.1,606.2c-9.9-3.3-19.7-7.1-29.1-12.5L1179.9,809.2L1179.9,809.2z"
		/>
	
		<linearGradient id="SVGID_1_" gradientUnits="userSpaceOnUse" x1="2974.4485" y1="-118.6836" x2="2843.9485" y2="-102.9036" gradientTransform="matrix(0.5662 0 0 -0.5662 -145.0247 1061.2312)">
		<stop  offset="0" style="stop-color:#FFFFFF;stop-opacity:0.7922"/>
		<stop  offset="1" style="stop-color:#FFFFFF;stop-opacity:0"/>
	</linearGradient>
	<path class="st5" d="M1473.9,830.4c24.3-6.9,46.9-14.2,69.7-24.8l-63.7,613.7c-23.6,10.4-36.2,14.3-52.1,18.9L1473.9,830.4
		L1473.9,830.4z"/>
	<path class="st6" d="M1420,1439.6l45.6-606.9l-16.5,4.5l-42.3,605.7L1420,1439.6L1420,1439.6z"/>
</g>
<g transform="matrix(.56618 0 0 .56618 -452.28 21.535)">
	<path class="st1" d="M4857.2,791.6l20.3,611c94.8,66.9,234.9,62.5,336,4.7l46.9-609.5C5103.4,738,4977,756.5,4857.2,791.6
		L4857.2,791.6z"/>
	<path class="st2" d="M4871.1,800.1c-0.6,0.7,76.7,40.6,176.7,42.1c104.6,1.5,202.8-34.7,196.8-38.8c0,0-76.5-33.2-170.2-35.1
		S4871.1,800.1,4871.1,800.1L4871.1,800.1z"/>
	<g>
		<path class="st7" d="M4872.6,818.8l34.9,522.3c92.6,39,190.7,41.7,284.4-6.3l53.3-512.2C5106.2,878.9,4967.6,865.3,4872.6,818.8
			L4872.6,818.8z"/>
		<path class="st7" d="M4886.6,807c99-34.5,250.8-39.8,343.4,3.5C5111.1,863.6,4954.8,845.1,4886.6,807z"/>
	</g>
	<path class="st4" d="M4885.5,809.2c14.2,6.4,28.3,12.2,42,17l12.1,606.2c-9.9-3.3-19.7-7.1-29.1-12.5L4885.5,809.2L4885.5,809.2z"
		/>
	
		<linearGradient id="SVGID_2_" gradientUnits="userSpaceOnUse" x1="9519.249" y1="-118.6836" x2="9388.749" y2="-102.9036" gradientTransform="matrix(0.5662 0 0 -0.5662 -145.0247 1061.2312)">
		<stop  offset="0" style="stop-color:#FFFFFF;stop-opacity:0.7922"/>
		<stop  offset="1" style="stop-color:#FFFFFF;stop-opacity:0"/>
	</linearGradient>
	<path class="st8" d="M5179.5,830.4c24.3-6.9,46.9-14.2,69.7-24.8l-63.7,613.7c-23.6,10.4-36.2,14.3-52.1,18.9L5179.5,830.4
		L5179.5,830.4z"/>
	<path class="st6" d="M5125.6,1439.6l45.6-606.9l-16.5,4.5l-42.3,605.7L5125.6,1439.6L5125.6,1439.6z"/>
</g>
<g transform="matrix(.56618 0 0 .56618 -452.28 21.535)">
	<path class="st1" d="M3004.4,791.6l20.3,611c94.8,66.9,234.9,62.5,336,4.7l46.9-609.5C3250.6,738,3124.3,756.5,3004.4,791.6
		L3004.4,791.6z"/>
	<g>
		<path class="st9" d="M3019.8,818.8l34.9,522.3c92.6,39,190.7,41.7,284.4-6.3l53.3-512.2C3253.4,878.9,3114.9,865.3,3019.8,818.8
			L3019.8,818.8z"/>
		<path class="st9" d="M3033.8,807c99-34.5,250.8-39.8,343.4,3.5C3258.4,863.6,3102,845.1,3033.8,807z"/>
	</g>
	<path class="st2" d="M3018.3,800.1c-0.6,0.7,76.7,40.6,176.7,42.1c104.6,1.5,202.8-34.7,196.8-38.8c0,0-76.5-33.2-170.2-35.1
		S3018.3,800.1,3018.3,800.1L3018.3,800.1z"/>
	<g>
		<path class="st3" d="M3019.8,818.8l34.9,522.3c92.6,39,190.7,41.7,284.4-6.3l53.3-512.2C3253.4,878.9,3114.9,865.3,3019.8,818.8
			L3019.8,818.8z"/>
		<path class="st3" d="M3033.8,807c99-34.5,250.8-39.8,343.4,3.5C3258.4,863.6,3102,845.1,3033.8,807z"/>
	</g>
	<g class="st10">
		<path class="st7" d="M3019.8,818.8l34.9,522.3c92.6,39,190.7,41.7,284.4-6.3l53.3-512.2C3253.4,878.9,3114.9,865.3,3019.8,818.8
			L3019.8,818.8z"/>
		<path class="st7" d="M3033.8,807c99-34.5,250.8-39.8,343.4,3.5C3258.4,863.6,3102,845.1,3033.8,807z"/>
	</g>
	<path class="st4" d="M3032.7,809.2c14.2,6.4,28.3,12.2,42,17l12.1,606.2c-9.9-3.3-19.7-7.1-29.1-12.5L3032.7,809.2L3032.7,809.2z"
		/>
	
		<linearGradient id="SVGID_3_" gradientUnits="userSpaceOnUse" x1="6246.8491" y1="-118.6836" x2="6116.3491" y2="-102.9036" gradientTransform="matrix(0.5662 0 0 -0.5662 -145.0247 1061.2312)">
		<stop  offset="0" style="stop-color:#FFFFFF;stop-opacity:0.7922"/>
		<stop  offset="1" style="stop-color:#FFFFFF;stop-opacity:0"/>
	</linearGradient>
	<path class="st11" d="M3326.7,830.4c24.3-6.9,46.9-14.2,69.7-24.8l-63.7,613.7c-23.6,10.4-36.2,14.3-52.1,18.9L3326.7,830.4
		L3326.7,830.4z"/>
	<path class="st6" d="M3272.8,1439.6l45.6-606.9l-16.5,4.5l-42.3,605.7L3272.8,1439.6L3272.8,1439.6z"/>
</g>
<g transform="matrix(.56618 0 0 .56618 -452.28 21.535)">
	<path class="st1" d="M2078,791.6l20.3,611c94.8,66.9,234.9,62.5,336,4.7l46.9-609.5C2324.2,738,2197.9,756.5,2078,791.6L2078,791.6
		z"/>
	<g>
		<path class="st9" d="M2093.4,818.8l34.9,522.3c92.6,39,190.7,41.7,284.4-6.3l53.3-512.2C2327,878.9,2188.5,865.3,2093.4,818.8
			L2093.4,818.8z"/>
		<path class="st9" d="M2107.4,807c99-34.5,250.8-39.8,343.4,3.5C2332,863.6,2175.6,845.1,2107.4,807z"/>
	</g>
	<path class="st2" d="M2091.9,800.1c-0.6,0.7,76.7,40.6,176.7,42.1c104.6,1.5,202.8-34.7,196.8-38.8c0,0-76.5-33.2-170.2-35.1
		S2091.9,800.1,2091.9,800.1L2091.9,800.1z"/>
	<g>
		<path class="st3" d="M2093.4,818.8l34.9,522.3c92.6,39,190.7,41.7,284.4-6.3l53.3-512.2C2327,878.9,2188.5,865.3,2093.4,818.8
			L2093.4,818.8z"/>
		<path class="st3" d="M2107.4,807c99-34.5,250.8-39.8,343.4,3.5C2332,863.6,2175.6,845.1,2107.4,807z"/>
	</g>
	<g class="st12">
		<path class="st7" d="M2093.4,818.8l34.9,522.3c92.6,39,190.7,41.7,284.4-6.3l53.3-512.2C2327,878.9,2188.5,865.3,2093.4,818.8
			L2093.4,818.8z"/>
		<path class="st7" d="M2107.4,807c99-34.5,250.8-39.8,343.4,3.5C2332,863.6,2175.6,845.1,2107.4,807z"/>
	</g>
	<path class="st4" d="M2106.3,809.2c14.2,6.4,28.3,12.2,42,17l12.1,606.2c-9.9-3.3-19.7-7.1-29.1-12.5L2106.3,809.2L2106.3,809.2z"
		/>
	
		<linearGradient id="SVGID_4_" gradientUnits="userSpaceOnUse" x1="4610.6489" y1="-118.6836" x2="4480.1489" y2="-102.9036" gradientTransform="matrix(0.5662 0 0 -0.5662 -145.0247 1061.2312)">
		<stop  offset="0" style="stop-color:#FFFFFF;stop-opacity:0.7922"/>
		<stop  offset="1" style="stop-color:#FFFFFF;stop-opacity:0"/>
	</linearGradient>
	<path class="st13" d="M2400.3,830.4c24.3-6.9,46.9-14.2,69.7-24.8l-63.7,613.7c-23.6,10.4-36.2,14.3-52.1,18.9L2400.3,830.4
		L2400.3,830.4z"/>
	<path class="st6" d="M2346.4,1439.6l45.6-606.9l-16.5,4.5l-42.3,605.7L2346.4,1439.6L2346.4,1439.6z"/>
</g>
<g transform="matrix(.56618 0 0 .56618 -452.28 21.535)">
	<path class="st1" d="M3934,791.6l20.3,611c94.8,66.9,234.9,62.5,336,4.7l46.9-609.5C4180.2,738,4053.8,756.5,3934,791.6L3934,791.6
		z"/>
	<g>
		<path class="st9" d="M3949.4,818.8l34.9,522.3c92.6,39,190.7,41.7,284.4-6.3l53.3-512.2C4183,878.9,4044.4,865.3,3949.4,818.8
			L3949.4,818.8z"/>
		<path class="st9" d="M3963.4,807c99-34.5,250.8-39.8,343.4,3.5C4187.9,863.6,4031.6,845.1,3963.4,807z"/>
	</g>
	<path class="st2" d="M3947.9,800.1c-0.6,0.7,76.7,40.6,176.7,42.1c104.6,1.5,202.8-34.7,196.8-38.8c0,0-76.5-33.2-170.2-35.1
		C4057.4,766.2,3947.9,800.1,3947.9,800.1L3947.9,800.1z"/>
	<g>
		<path class="st3" d="M3949.4,818.8l34.9,522.3c92.6,39,190.7,41.7,284.4-6.3l53.3-512.2C4183,878.9,4044.4,865.3,3949.4,818.8
			L3949.4,818.8z"/>
		<path class="st3" d="M3963.4,807c99-34.5,250.8-39.8,343.4,3.5C4187.9,863.6,4031.6,845.1,3963.4,807z"/>
	</g>
	<g class="st14">
		<path class="st7" d="M3949.4,818.8l34.9,522.3c92.6,39,190.7,41.7,284.4-6.3l53.3-512.2C4183,878.9,4044.4,865.3,3949.4,818.8
			L3949.4,818.8z"/>
		<path class="st7" d="M3963.4,807c99-34.5,250.8-39.8,343.4,3.5C4187.9,863.6,4031.6,845.1,3963.4,807z"/>
	</g>
	<path class="st4" d="M3962.3,809.2c14.2,6.4,28.3,12.2,42,17l12.1,606.2c-9.9-3.3-19.7-7.1-29.1-12.5L3962.3,809.2L3962.3,809.2z"
		/>
	
		<linearGradient id="SVGID_5_" gradientUnits="userSpaceOnUse" x1="7888.6704" y1="-118.6836" x2="7758.1704" y2="-102.9036" gradientTransform="matrix(0.5662 0 0 -0.5662 -145.0247 1061.2312)">
		<stop  offset="0" style="stop-color:#FFFFFF;stop-opacity:0.7922"/>
		<stop  offset="1" style="stop-color:#FFFFFF;stop-opacity:0"/>
	</linearGradient>
	<path class="st15" d="M4256.3,830.4c24.3-6.9,46.9-14.2,69.7-24.8l-63.7,613.7c-23.6,10.4-36.2,14.3-52.1,18.9L4256.3,830.4
		L4256.3,830.4z"/>
	<path class="st6" d="M4202.4,1439.6l45.6-606.9l-16.5,4.5l-42.3,605.7L4202.4,1439.6L4202.4,1439.6z"/>
</g>
<g id="_566188592_9_">
	<path class="st16" d="M2410.3,193.2c-8.7-7.6-17-11.3-27.9-13c6.8-4.1,14.3-5.9,22.9-3.7c-4-9.8-9.9-18.1-18.1-24.7
		c10.8,0.5,19.2,3.6,23.7,10.8c3.2-14.5,9.7-25.5,20-32.6c-2.9,11.1-2.7,21.7-0.3,32.1c13.8-11.3,28.1-18.5,42.9-21.8
		c-4.1,5.5-6.8,11.4-5.3,19c14.1-6,27.9-8.4,41.3-5.2c-7.6,5.1-11.4,10.9-11.3,17.3c15.1,1.2,23.5,8.5,29.5,18.2
		c-13.4-3.3-17.7-1.6-18.4,2.1c11,1.5,17.9,6.3,21.8,13.4c-13.8-1.8-28.5,0.1-43.7,3.9L2410.3,193.2z"/>
	<path class="st17" d="M2437.1,195.4c-4.3-0.3-8.6-0.7-12.9-1.1c-7.4-11.7-11-22.6-5.8-31.8C2422.9,173.8,2429.3,184.7,2437.1,195.4
		z"/>
	<path class="st18" d="M2456.3,197.2c-3.3,0.2-6.7,0.3-10,0.5c-4.7-16-2.3-28.6,9.5-36.5C2453.7,173.2,2453.8,185.2,2456.3,197.2z"
		/>
	<path class="st17" d="M2481,206.2c-6.1-2.3-12.3-4.6-18.4-6.8c4.2-16.6,11.3-28.8,23.9-32.1c-2.5,4.7-3.7,9.5-2.4,14.2
		c8.3-0.4,13.6,0.5,15.5,2.9C2490.9,188.7,2484.9,196.2,2481,206.2z"/>
	<path class="st7" d="M2361.7,220.1c8.6-14.9,21.6-28.6,49.4-30c32.2-1.6,59.2,6.7,81.5,18.4c28,14.6,31.7,32.4,28.4,51.5
		c-7.8,44.9-35.8,71.9-70.5,96.8c-16.1,11.5-31.1,19.5-48.9,17.9c-21.7-2-31.2-17.5-36.8-37.3
		C2350.8,287.8,2346.2,246.8,2361.7,220.1z"/>
	<path class="st19" d="M2486.4,230.1c-3.3-0.5-3,11.7,3.4,3.8C2491.7,231.6,2486.5,230.1,2486.4,230.1z"/>
	<path class="st19" d="M2442.6,216c-3.3-0.5-3,11.7,3.5,3.8C2448,217.4,2442.7,216,2442.6,216z"/>
	<path class="st19" d="M2416.9,247.6c-3.3-0.5-3,11.7,3.4,3.8C2422.3,249.1,2417,247.6,2416.9,247.6z"/>
	<path class="st19" d="M2459.8,271c3.3-0.3,0.3-12.1-4.2-2.9C2454.3,270.7,2459.7,271,2459.8,271z"/>
	<path class="st19" d="M2470.3,318.2c3.4-0.3,0.3-12.1-4.2-2.9C2464.7,317.9,2470.2,318.2,2470.3,318.2z"/>
	<path class="st19" d="M2386.7,307.2c3.4-0.3,0.3-12.1-4.2-2.9C2381.2,306.9,2386.7,307.2,2386.7,307.2z"/>
	<path class="st19" d="M2464.1,219.4c-9.5,4.2,2,14.7,2.9,1.2C2467.1,218.8,2465.2,218.9,2464.1,219.4z"/>
	<path class="st19" d="M2438.3,251c-9.5,4.2,2,14.7,2.9,1.2C2441.3,250.5,2439.5,250.5,2438.3,251z"/>
	<path class="st19" d="M2420.3,205.2c-9.5,4.2,2,14.8,2.9,1.2C2423.3,204.6,2421.4,204.7,2420.3,205.2z"/>
	<path class="st19" d="M2394.6,236.8c-9.5,4.2,2,14.7,2.9,1.2C2397.6,236.3,2395.7,236.3,2394.6,236.8z"/>
	<path class="st19" d="M2443.1,311c-9.5,4.2,2,14.8,2.9,1.2C2446.1,310.5,2444.3,310.5,2443.1,311z"/>
	<path class="st19" d="M2389.2,206.8c-9.5,4.2,2,14.7,2.9,1.2C2392.3,206.2,2390.4,206.3,2389.2,206.8z"/>
	<path class="st19" d="M2484,276.7c8.3-6.2-5.2-14-3.1-0.5C2481.2,277.9,2483,277.4,2484,276.7z"/>
	<path class="st19" d="M2430.4,308.7c8.3-6.2-5.2-14-3.1-0.5C2427.6,309.8,2429.4,309.4,2430.4,308.7z"/>
	<path class="st19" d="M2414.6,313.3c8.3-6.2-5.1-14-3.1-0.5C2411.8,314.5,2413.6,314.1,2414.6,313.3z"/>
	<path class="st19" d="M2469.2,238.2c-12.2,5.4,2.4,13.9,2,1.8C2471.1,239.4,2469.5,238,2469.2,238.2z"/>
	<path class="st19" d="M2396.1,274.4c-12.2,5.3,2.5,13.9,2,1.8C2398.1,275.6,2396.4,274.2,2396.1,274.4z"/>
	<path class="st19" d="M2443.5,269.8c-12.2,5.3,2.4,13.9,2,1.8C2445.4,271,2443.8,269.7,2443.5,269.8z"/>
	<path class="st19" d="M2468.6,278.9c-12.2,5.4,2.4,13.9,2,1.8C2470.6,280.1,2469,278.8,2468.6,278.9z"/>
	<path class="st19" d="M2395.6,315.1c-12.2,5.3,2.5,13.9,2,1.8C2397.5,316.3,2395.9,315,2395.6,315.1z"/>
	<path class="st19" d="M2425.4,224c-12.2,5.4,2.5,13.9,2,1.9C2427.4,225.2,2425.7,223.8,2425.4,224z"/>
	<path class="st19" d="M2399.7,255.6c-12.2,5.4,2.5,13.9,2,1.8C2401.7,256.8,2400,255.5,2399.7,255.6z"/>
	<path class="st19" d="M2438,340.3c-12.2,5.3,2.5,13.9,2,1.8C2440,341.5,2438.3,340.2,2438,340.3z"/>
	<path class="st19" d="M2474.9,259.4c10.7-7.9-5.4-13-2.4-1.4C2472.7,258.7,2474.6,259.6,2474.9,259.4z"/>
	<path class="st19" d="M2401.8,295.6c10.7-7.9-5.4-13-2.3-1.4C2399.6,294.9,2401.5,295.8,2401.8,295.6z"/>
	<path class="st19" d="M2446.8,235.9c-10.6,5.7,3.2,13.6,3.5,2.5C2450.4,236.9,2447.7,235.5,2446.8,235.9z"/>
	<path class="st19" d="M2421.1,267.6c-10.6,5.7,3.2,13.6,3.5,2.5C2424.7,268.6,2422,267.1,2421.1,267.6z"/>
	<path class="st19" d="M2458.4,297.2c-10.6,5.7,3.2,13.6,3.5,2.5C2462,298.2,2459.2,296.7,2458.4,297.2z"/>
	<path class="st19" d="M2439.5,287.3c-10.5,5.7,3.2,13.6,3.5,2.5C2443.1,288.3,2440.4,286.8,2439.5,287.3z"/>
	<path class="st19" d="M2454.8,322.5c-10.6,5.7,3.2,13.6,3.5,2.5C2458.4,323.5,2455.6,322.1,2454.8,322.5z"/>
	<path class="st19" d="M2481.9,293.6c-10.6,5.7,3.2,13.6,3.5,2.5C2485.5,294.6,2482.7,293.1,2481.9,293.6z"/>
	<path class="st19" d="M2408.8,329.8c-10.5,5.7,3.2,13.6,3.5,2.5C2412.4,330.8,2409.6,329.3,2408.8,329.8z"/>
	<path class="st19" d="M2386,340.6c-10.5,5.7,3.2,13.6,3.6,2.5C2389.6,341.6,2386.8,340.2,2386,340.6z"/>
	<path class="st19" d="M2403,221.8c-10.5,5.7,3.2,13.6,3.5,2.5C2406.6,222.7,2403.9,221.3,2403,221.8z"/>
	<path class="st19" d="M2377.3,253.4c-10.5,5.7,3.2,13.6,3.5,2.5C2380.9,254.4,2378.2,252.9,2377.3,253.4z"/>
	<path class="st19" d="M2431.9,321.7c-10.5,5.7,3.2,13.6,3.6,2.5C2435.5,322.7,2432.8,321.3,2431.9,321.7z"/>
	<path class="st19" d="M2376.9,278.9c-10.6,5.7,3.2,13.6,3.5,2.5C2380.5,279.9,2377.8,278.4,2376.9,278.9z"/>
	<path class="st19" d="M2375.9,229.7c-10.5,5.7,3.2,13.6,3.5,2.5C2379.5,230.7,2376.7,229.2,2375.9,229.7z"/>
	<path class="st19" d="M2410.6,353.6c-10.6,5.7,3.2,13.6,3.5,2.5C2414.2,354.6,2411.4,353.1,2410.6,353.6z"/>
	<path class="st19" d="M2497.2,256.7c9.1-7.8-6.1-12.6-4-1.7C2493.4,256.5,2496.4,257.4,2497.2,256.7z"/>
	<path class="st19" d="M2424.1,292.9c9-7.8-6.1-12.5-4-1.7C2420.4,292.7,2423.4,293.5,2424.1,292.9z"/>
</g>
<g id="_699425632_15_">
	<path class="st3" d="M445.9,60.3c1.2,9.7,13.2,44.7,8.5,53.5C379.7,260.1,281.1,289,181.4,281.3c-7.4-2.1-13.1-6.1-20.5-9.8
		c-2,6.8-4.6,13.6-6.6,20.3c9.5,6,13.9,8.7,21.3,11.3c179.8,149.5,351.9-64.9,303.3-187.4c1.7-7.5-9-46.2-11.3-55.5
		C461.7,57,451.5,59,445.9,60.3z"/>
	<path class="st20" d="M165,276l-4.7-2.7c-1.9,6.2-4.3,12.3-6,18.5c7.5,4.7,11.8,7.4,16.9,9.6c0.7-1.7,1.3-3.2,1.8-4.6
		c1.5-3.7,2.4-6.2,2.7-8.4c0.4-2.2,0.1-4-0.6-5.3c-0.7-1.3-1.9-2.2-3.6-3.4C169.7,278.6,167.3,277.3,165,276z"/>
	<path class="st21" d="M383.9,271.6c52.6-30.7,75-92.2,93.8-155.9l-22.4-5c-0.2,1.3-0.5,2.4-0.9,3.2
		C379.7,260.1,281.1,289,181.4,281.3c-7.4-2.1-13.1-6.1-20.5-9.8c-0.2,0.6-0.4,1.3-0.6,1.9l4.7,2.7c2.4,1.3,4.7,2.6,6.5,3.7
		c1.8,1.1,2.9,2,3.6,3.4c0.7,1.4,1,3.2,0.6,5.3c-0.2,1.3-0.6,2.8-1.3,4.5C245,303.3,316.4,310.9,383.9,271.6z"/>
	<path class="st22" d="M185.6,298.9c2.1-2.3,7.8,0.8,10.8,1.5c0.4,0.1,0.4,3.1-5.3,1C189,300.6,185.5,299,185.6,298.9z"/>
	<path class="st22" d="M265.5,309.6c1.3-2.8,7.7-1.4,10.8-1.6c0.4,0,1.3,2.9-4.9,2.4C269.2,310.3,265.5,309.8,265.5,309.6z"/>
	<path class="st22" d="M218,301.4c-2.8,1.5-12.9-6-13.4,0.1c-0.1,1.6,10.2,3.1,11.9,3C216.5,304.5,219.3,300.7,218,301.4z"/>
	<path class="st22" d="M297.3,302.9c-2.3,2.2-14.1-2.1-12.8,3.9c0.3,1.5,10.7,0.1,12.2-0.4C296.7,306.4,298.4,301.9,297.3,302.9z"/>
	<path class="st22" d="M175.9,296.8c-2.3,1.2-1.7,4.4,1.9,5.8c3,1.2,7.5,7.3,8.6,3.2c0.4-1.4-3.9-6.9-6.2-7.8
		C179.6,297.9,176,296.8,175.9,296.8z"/>
	<path class="st22" d="M191.8,305.6c4.3,2,10.1,1.2,15,3c1.2,0.4,6.6,0.5,5,3.1c-1.5,2.3-21.2-3.2-20.3-5.2
		C191.6,306.3,191.8,305.6,191.8,305.6z"/>
	<path class="st22" d="M261.9,336.1c4.7,0.8,10.1-1.4,15.2-0.9c1.2,0.1,6.5-1.2,5.6,1.7c-0.8,2.6-21.3,2.2-20.9,0.1
		C261.8,336.8,261.9,336.1,261.9,336.1z"/>
	<path class="st22" d="M273.3,314.4c4.7,0.7,10-1.7,15.2-1.3c1.3,0.1,6.5-1.4,5.7,1.6c-0.7,2.6-21.2,2.8-20.9,0.7
		C273.3,315,273.4,314.4,273.3,314.4z"/>
	<path class="st22" d="M313.7,338.4c4.7,0.7,10-1.7,15.2-1.3c1.3,0.1,6.5-1.4,5.7,1.6c-0.7,2.7-21.3,2.9-20.9,0.7
		C313.7,339.1,313.7,338.4,313.7,338.4z"/>
	<path class="st22" d="M359.4,305.4c4.4-1.8,7.7-6.6,12.3-9c1.1-0.6,4.9-4.6,5.7-1.6c0.7,2.7-16.8,13.4-17.6,11.4
		C359.7,306,359.4,305.4,359.4,305.4z"/>
	<path class="st22" d="M194.9,313c0.4-0.5,15.2,5.7,19.5,6c2,0.1,5.4,1.3,4.3,4.2c-1.7,4.6-10.4-0.5-13.3-2.2
		c-3-1.8-3.3-2.8-7.3-4.2c-1.2-0.5-3.6-1.9-3.2-3.3L194.9,313z"/>
	<path class="st22" d="M278.4,320.6c0.2-0.6,16.2,1.2,20.4,0.2c2-0.4,5.6-0.3,5.4,2.8c-0.3,4.9-10.2,2.5-13.3,1.6
		c-3.4-0.9-4-1.8-8.2-2c-1.3-0.1-3.9-0.8-4-2.2L278.4,320.6z"/>
	<path class="st22" d="M293.3,345.6c0.2-0.6,16.2,1.2,20.4,0.2c1.9-0.5,5.5-0.2,5.3,2.8c-0.3,4.9-10.2,2.5-13.3,1.6
		c-3.4-0.9-4-1.8-8.2-2c-1.3-0.1-3.9-0.8-3.9-2.2L293.3,345.6z"/>
	<path class="st22" d="M369.3,311.8c-0.1-0.6,14.5-7.3,17.6-10.3c1.4-1.4,4.6-3.1,6-0.4c2.2,4.4-7.5,7.3-10.6,8.3
		c-3.3,1-4.3,0.6-8.1,2.5c-1.1,0.6-3.8,1.4-4.6,0.1L369.3,311.8z"/>
	<path class="st22" d="M236.4,303.9c-0.9-0.3-11.8-2.3-12.4-1.9c-5.6,3.8,2.7,7.6,6.4,7.4c2.8-0.2,9.1,1.6,9.2-2.2
		C239.7,306.2,237.3,304.2,236.4,303.9z"/>
	<path class="st22" d="M315.7,300.1c-1-0.1-12,1.1-12.5,1.7c-4.3,5.2,4.7,6.5,8.3,5.2c2.6-0.9,9.1-1,8.2-4.6
		C319.4,301.5,316.7,300.2,315.7,300.1z"/>
	<path class="st22" d="M390.1,276.9c-0.8,0.4-9.7,7.1-9.8,7.9c-1,6.7,7.4,3.2,9.8,0.2c1.8-2.2,7.3-5.6,4.7-8.2
		C394.1,276.1,391,276.4,390.1,276.9z"/>
	<path class="st22" d="M422.5,244.9c-0.8,0.4-9.7,7.1-9.8,7.9c-1,6.7,7.4,3.1,9.8,0.2c1.8-2.2,7.3-5.6,4.7-8.2
		C426.4,244.1,423.4,244.5,422.5,244.9z"/>
	<path class="st22" d="M226.4,324.5c1.8,1.7,26.6,10.5,29.9,10.9c1.8,0.2-0.8,2.9-3.8,3.2c-3.3,0.3-28.7-3.1-25.9-9.7
		C226.9,327.8,227.1,325.2,226.4,324.5z"/>
	<path class="st22" d="M311.8,322.7c2.3,1.2,28.5,2.6,31.7,2c1.7-0.3,0.1,3-2.8,4.1c-3,1.3-28.4,5.1-27.6-2.1
		C313.3,325.7,312.8,323.2,311.8,322.7z"/>
	<path class="st22" d="M398.5,298.2c2.5-0.2,25.8-12.5,28.2-14.6c1.4-1.2,1.6,2.5-0.3,5c-2,2.6-21.7,19-24.7,12.5
		C401.3,300,399.5,298.1,398.5,298.2z"/>
	<path class="st22" d="M431.9,278.3c2.1-1.4,16.4-23.5,17.5-26.5c0.6-1.7,2.6,1.4,2.2,4.5c-0.4,3.3-9.7,27.2-15.5,23
		C435.2,278.5,432.8,277.7,431.9,278.3z"/>
	<path class="st22" d="M344,292.3c2.5,0.1,27-9.6,29.7-11.4c1.5-1,1.3,2.7-0.8,4.9c-2.3,2.4-23.7,16.5-26,9.7
		C346.6,294.4,345.1,292.4,344,292.3z"/>
	<path class="st22" d="M447.5,209.6c1.9-1.7,12.9-25.6,13.6-28.7c0.4-1.7,2.8,1,2.8,4.1c0,3.3-5.8,28.3-12.1,24.9
		C450.9,209.3,448.3,208.9,447.5,209.6z"/>
	<path class="st22" d="M471.2,193.4c1.3-2.2,4.8-28.3,4.5-31.5c-0.2-1.8,2.9,0.1,3.9,3.1c1,3.1,2.8,28.7-4.2,27.4
		C474.3,192.2,471.8,192.5,471.2,193.4z"/>
	<path class="st22" d="M220.6,312.5c6.4,1.8,12,3.8,18.5,5.1c6.4,1.3,7.3,8.1-0.1,5.5c-1.3-0.4-20.8-5.9-19.6-8.8
		C219.8,313.4,219.6,312.2,220.6,312.5z"/>
	<path class="st22" d="M284.9,330.2c6.4,1.8,12,3.8,18.5,5.1c6.4,1.3,7.3,8.1-0.1,5.5c-1.3-0.4-20.8-6-19.6-8.8
		C284.1,331.1,283.9,329.9,284.9,330.2z"/>
	<path class="st22" d="M302.9,312.9c6.6-0.1,12.6,0.3,19.1-0.3c6.5-0.6,9.2,5.7,1.5,5.3c-1.4-0.1-21.6,0.1-21.3-3
		C302.4,314,301.9,312.9,302.9,312.9z"/>
	<path class="st22" d="M385.8,294.3c5.7-3.5,11-6.2,16.3-10.1c5.3-3.9,10.9,0.1,4,3.8c-1.2,0.6-18.4,11.3-19.7,8.4
		C385.9,295.6,384.9,294.9,385.8,294.3z"/>
	<path class="st22" d="M467.8,173.8c0.4-6.6,1.3-12.6,1.2-19.1c-0.1-6.5,6.4-8.8,5.4-1.1c-0.2,1.4-1.5,21.5-4.6,21
		C468.9,174.4,467.7,174.8,467.8,173.8z"/>
	<path class="st22" d="M478.2,151.5c-0.6-6.6-0.7-12.6-1.9-19.1c-1.1-6.4,4.9-9.7,5.2-1.9c0,1.4,1.9,21.5-1.2,21.4
		C479.3,151.9,478.3,152.6,478.2,151.5z"/>
	<path class="st22" d="M333.8,344c6.1-2.7,11.7-4.7,17.5-7.8c5.7-3.1,10.8,1.6,3.5,4.3c-1.3,0.5-19.8,8.6-20.7,5.6
		C333.7,345.2,332.8,344.4,333.8,344z"/>
	<path class="st22" d="M384.9,324c4.8-4.6,9.4-8.4,13.7-13.3c4.3-4.9,10.6-2.2,4.7,2.9c-1,0.9-15.6,14.9-17.5,12.4
		C385.3,325.2,384.2,324.7,384.9,324z"/>
	<path class="st22" d="M264.1,305.9c-0.4,0.1-10.5-1.7-15-1c-12.8,2,7,9.5,14.2,0.9C263.7,305.4,263.9,306,264.1,305.9z"/>
	<path class="st22" d="M342.8,294.3c-0.4,0.3-10.6,1.3-14.7,3.2c-11.7,5.5,9.4,7.1,13.9-3.1C342.2,293.9,342.7,294.4,342.8,294.3z"
		/>
	<path class="st22" d="M364.8,321.7c-0.3,0.3-10.6,1.3-14.7,3.2c-11.7,5.5,9.4,7.1,13.9-3.1C364.2,321.3,364.6,321.8,364.8,321.7z"
		/>
	<path class="st22" d="M378.2,326.3c-0.4,0.3-10.6,1.3-14.7,3.3c-11.7,5.5,9.4,7.1,13.9-3.1C377.6,326,378.1,326.4,378.2,326.3z"/>
	<path class="st22" d="M410.4,257.8c-0.2,0.4-8.4,6.6-11,10.4c-7.2,10.7,11.7,1.2,10.3-9.8C409.7,257.8,410.3,258,410.4,257.8z"/>
	<path class="st22" d="M442.7,225.9c-0.2,0.4-8.4,6.6-11,10.4c-7.2,10.7,11.7,1.2,10.3-9.8C442,225.9,442.7,226.1,442.7,225.9z"/>
	<path class="st22" d="M458.5,210.3c-0.2,0.4-8.4,6.6-10.9,10.3c-7.2,10.8,11.7,1.3,10.3-9.8C457.8,210.2,458.4,210.4,458.5,210.3z"
		/>
	<path class="st22" d="M468.1,215.9c-0.2,0.4-8.4,6.6-11,10.4c-7.2,10.8,11.7,1.3,10.3-9.8C467.4,215.9,468,216.1,468.1,215.9z"/>
	<path class="st22" d="M249.5,314.8c0.8-0.4,18.6-2.8,17.9,1c-1.4,7.2-10.8,2.3-16.5,1.9C248.2,317.5,249.8,314.7,249.5,314.8z"/>
	<path class="st22" d="M331.3,307c0.7-0.6,17.1-7.9,17.4-4.1c0.6,7.3-9.7,5.2-15.3,6.4C330.7,309.9,331.6,306.7,331.3,307z"/>
	<path class="st22" d="M366.6,320.2c0.7-0.6,17.1-7.9,17.4-4.1c0.6,7.3-9.8,5.2-15.3,6.4C366,323.2,366.9,320,366.6,320.2z"/>
	<path class="st22" d="M407.1,274.7c0.3-0.9,10.6-15.6,12.8-12.5c4.3,5.9-5.6,9.5-9.8,13.4C408.1,277.4,407.2,274.3,407.1,274.7z"/>
	<path class="st22" d="M425.5,260c0.3-0.9,10.6-15.6,12.8-12.5c4.3,5.9-5.7,9.5-9.8,13.4C426.5,262.8,425.6,259.7,425.5,260z"/>
	<path class="st22" d="M439.4,242.7c0.3-0.9,10.6-15.6,12.8-12.5c4.3,5.9-5.6,9.5-9.8,13.4C440.4,245.5,439.5,242.3,439.4,242.7z"/>
	<path class="st22" d="M470.2,214.9c-0.2-0.9,2.4-18.7,5.8-16.9c6.5,3.3-0.8,11-2.7,16.4C472.4,217,470.2,214.6,470.2,214.9z"/>
	<path class="st22" d="M250.4,323.3c0.3,0.1,19.2,1,21,0.9c0.9-0.1,4.7,1.2,1.1,3.9c-3.8,2.9-22.8-3.5-22.7-3.6
		C249.8,324.5,250.3,323.3,250.4,323.3z"/>
	<path class="st22" d="M334.5,314.8c0.3,0,18.7-4.4,20.4-5c0.8-0.3,4.9-0.2,2.2,3.4c-2.9,3.8-22.8,3.1-22.8,3
		C334.3,316.1,334.4,314.8,334.5,314.8z"/>
	<path class="st22" d="M413.9,279.7c0.3-0.2,13.8-13.4,14.9-14.8c0.6-0.7,4.1-2.7,3.6,1.8c-0.5,4.8-18,14.4-18,14.3
		C414.3,281,413.8,279.8,413.9,279.7z"/>
	<path class="st22" d="M446.2,247.8c0.3-0.2,13.8-13.4,14.9-14.8c0.6-0.7,4.1-2.7,3.6,1.8c-0.5,4.7-18,14.4-18,14.3
		C446.7,249.1,446.1,247.9,446.2,247.8z"/>
	<path class="st22" d="M462.5,216.1c0.1-0.3,2.5-19.1,2.6-20.9c0-0.9,1.6-4.7,4-0.8c2.6,4-5.2,22.4-5.3,22.4
		C463.6,216.8,462.5,216.2,462.5,216.1z"/>
	<path class="st22" d="M266.4,343.6c0.3,0,18.7-4.4,20.4-5c0.8-0.3,4.9-0.2,2.2,3.4c-2.9,3.8-22.8,3.1-22.8,3
		C266.1,344.9,266.3,343.6,266.4,343.6z"/>
	<path class="st21" d="M466.1,113.1l-7.8-54.6c-4.5,0.1-9.2,1.1-12.4,1.8c1.1,8.8,11,38.3,9.4,50.3L466.1,113.1z"/>
</g>
<g>
	<path d="M1210.7,937.6c0.3,2.7,1.6,4.6,3.8,5.6c1.1,0.5,2.4,0.8,3.9,0.8c2.8,0,4.9-0.9,6.3-2.7c1.4-1.8,2-3.8,2-6
		c0-2.6-0.8-4.7-2.4-6.1c-1.6-1.4-3.5-2.2-5.8-2.2c-1.6,0-3,0.3-4.2,1s-2.2,1.5-3,2.6l-4.1-0.2l2.9-20.4h19.7v4.6h-16.1l-1.6,10.5
		c0.9-0.7,1.7-1.2,2.5-1.5c1.4-0.6,3-0.9,4.9-0.9c3.5,0,6.4,1.1,8.8,3.4c2.4,2.2,3.6,5.1,3.6,8.5c0,3.6-1.1,6.7-3.3,9.5
		s-5.7,4.1-10.6,4.1c-3.1,0-5.8-0.9-8.2-2.6c-2.4-1.7-3.7-4.4-4-8H1210.7z"/>
	<path d="M1259.4,915.5c1.7,3.1,2.5,7.4,2.5,12.8c0,5.1-0.8,9.4-2.3,12.8c-2.2,4.8-5.8,7.2-10.9,7.2c-4.5,0-7.9-2-10.1-5.9
		c-1.8-3.3-2.8-7.7-2.8-13.3c0-4.3,0.6-8,1.7-11.1c2.1-5.7,5.8-8.6,11.3-8.6C1253.7,909.4,1257.2,911.4,1259.4,915.5z M1254.6,940.7
		c1.5-2.2,2.2-6.3,2.2-12.2c0-4.3-0.5-7.8-1.6-10.6c-1.1-2.8-3.1-4.2-6.2-4.2c-2.8,0-4.9,1.3-6.2,4s-1.9,6.5-1.9,11.6
		c0,3.9,0.4,7,1.2,9.3c1.3,3.6,3.4,5.4,6.5,5.4C1251.2,943.9,1253.1,942.9,1254.6,940.7z"/>
	<path d="M1281.7,913.3c1.8,1.8,2.7,4,2.7,6.5c0,2.5-0.9,4.7-2.7,6.5s-4,2.7-6.5,2.7c-2.5,0-4.7-0.9-6.5-2.7s-2.7-4-2.7-6.5
		c0-2.5,0.9-4.7,2.7-6.5s4-2.7,6.5-2.7C1277.7,910.5,1279.9,911.4,1281.7,913.3z M1279,923.6c1.1-1.1,1.6-2.3,1.6-3.8
		c0-1.5-0.5-2.8-1.6-3.8c-1.1-1.1-2.4-1.6-3.9-1.6c-1.5,0-2.8,0.5-3.8,1.6c-1.1,1.1-1.6,2.3-1.6,3.9c0,1.5,0.5,2.8,1.6,3.8
		c1.1,1.1,2.3,1.6,3.8,1.6C1276.7,925.2,1278,924.7,1279,923.6z M1297.3,909.6h2.9l-21.2,38.7h-3L1297.3,909.6z M1307.6,931.5
		c1.8,1.8,2.7,4,2.7,6.5c0,2.5-0.9,4.7-2.7,6.5s-4,2.7-6.5,2.7c-2.6,0-4.7-0.9-6.5-2.7s-2.7-4-2.7-6.5c0-2.5,0.9-4.7,2.7-6.5
		c1.8-1.8,4-2.7,6.5-2.7C1303.7,928.8,1305.8,929.7,1307.6,931.5z M1305,941.9c1.1-1.1,1.6-2.4,1.6-3.9c0-1.5-0.5-2.8-1.6-3.9
		c-1.1-1.1-2.3-1.6-3.8-1.6c-1.5,0-2.8,0.5-3.9,1.6c-1.1,1.1-1.6,2.4-1.6,3.9c0,1.5,0.5,2.8,1.6,3.9c1.1,1.1,2.4,1.6,3.9,1.6
		C1302.6,943.5,1303.9,943,1305,941.9z"/>
	<path d="M1331.4,908.4h16.8c4.6,0,7.8,1.4,9.8,4.1c1.1,1.6,1.7,3.5,1.7,5.5c0,2.4-0.7,4.5-2.1,6c-0.7,0.8-1.8,1.6-3.1,2.3
		c2,0.8,3.5,1.6,4.5,2.6c1.7,1.7,2.6,4,2.6,7c0,2.5-0.8,4.8-2.4,6.8c-2.4,3-6.1,4.5-11.2,4.5h-16.5V908.4z M1346.2,924.8
		c2.2,0,4-0.3,5.2-0.9c2-1,2.9-2.7,2.9-5.2c0-2.5-1-4.2-3.1-5.1c-1.2-0.5-2.9-0.7-5.2-0.7h-9.5v12H1346.2z M1348,942.8
		c3.3,0,5.6-0.9,7-2.8c0.9-1.2,1.3-2.6,1.3-4.3c0-2.8-1.3-4.7-3.8-5.8c-1.4-0.5-3.1-0.8-5.4-0.8h-10.5v13.7H1348z"/>
	<path d="M1382.1,930.1c1.1-0.1,1.8-0.6,2.2-1.4c0.2-0.4,0.3-1,0.3-1.8c0-1.6-0.6-2.8-1.7-3.5c-1.2-0.7-2.8-1.1-4.9-1.1
		c-2.5,0-4.2,0.7-5.3,2c-0.6,0.7-1,1.9-1.1,3.3h-4.4c0.1-3.5,1.2-5.9,3.4-7.3c2.2-1.4,4.7-2.1,7.6-2.1c3.3,0,6,0.6,8.1,1.9
		c2.1,1.3,3.1,3.2,3.1,5.9v16.3c0,0.5,0.1,0.9,0.3,1.2s0.6,0.4,1.3,0.4c0.2,0,0.4,0,0.7,0c0.3,0,0.5-0.1,0.8-0.1v3.5
		c-0.7,0.2-1.3,0.3-1.7,0.4c-0.4,0.1-0.9,0.1-1.6,0.1c-1.6,0-2.8-0.6-3.6-1.7c-0.4-0.6-0.7-1.5-0.8-2.6c-1,1.3-2.4,2.4-4.2,3.3
		c-1.8,0.9-3.8,1.4-6,1.4c-2.6,0-4.8-0.8-6.4-2.4c-1.7-1.6-2.5-3.6-2.5-6c0-2.6,0.8-4.7,2.5-6.1c1.6-1.4,3.8-2.3,6.4-2.7
		L1382.1,930.1z M1372.1,943c1,0.8,2.2,1.2,3.6,1.2c1.7,0,3.3-0.4,4.9-1.2c2.6-1.3,4-3.4,4-6.3v-3.8c-0.6,0.4-1.3,0.7-2.2,0.9
		s-1.8,0.4-2.7,0.5l-2.9,0.4c-1.7,0.2-3,0.6-3.9,1.1c-1.5,0.8-2.2,2.1-2.2,4C1370.6,941.1,1371.1,942.2,1372.1,943z"/>
	<path d="M1397.1,918.9h4.5v4c1.3-1.7,2.8-2.8,4.3-3.6c1.5-0.7,3.2-1.1,5-1.1c4,0,6.7,1.4,8.1,4.2c0.8,1.5,1.2,3.7,1.2,6.6v18.2
		h-4.8v-17.8c0-1.7-0.3-3.1-0.8-4.2c-0.8-1.8-2.4-2.6-4.6-2.6c-1.1,0-2.1,0.1-2.8,0.3c-1.3,0.4-2.4,1.2-3.4,2.3
		c-0.8,0.9-1.3,1.9-1.5,2.9c-0.2,1-0.4,2.4-0.4,4.3v14.8h-4.8V918.9z"/>
	<path d="M1442.3,930.1c1.1-0.1,1.8-0.6,2.2-1.4c0.2-0.4,0.3-1,0.3-1.8c0-1.6-0.6-2.8-1.7-3.5c-1.2-0.7-2.8-1.1-4.9-1.1
		c-2.5,0-4.2,0.7-5.3,2c-0.6,0.7-1,1.9-1.1,3.3h-4.4c0.1-3.5,1.2-5.9,3.4-7.3c2.2-1.4,4.7-2.1,7.6-2.1c3.3,0,6,0.6,8.1,1.9
		c2.1,1.3,3.1,3.2,3.1,5.9v16.3c0,0.5,0.1,0.9,0.3,1.2c0.2,0.3,0.6,0.4,1.3,0.4c0.2,0,0.4,0,0.7,0c0.3,0,0.5-0.1,0.8-0.1v3.5
		c-0.7,0.2-1.3,0.3-1.7,0.4c-0.4,0.1-0.9,0.1-1.6,0.1c-1.6,0-2.8-0.6-3.6-1.7c-0.4-0.6-0.7-1.5-0.8-2.6c-1,1.3-2.4,2.4-4.2,3.3
		c-1.8,0.9-3.8,1.4-6,1.4c-2.6,0-4.8-0.8-6.4-2.4c-1.7-1.6-2.5-3.6-2.5-6c0-2.6,0.8-4.7,2.5-6.1c1.6-1.4,3.8-2.3,6.4-2.7
		L1442.3,930.1z M1432.3,943c1,0.8,2.2,1.2,3.6,1.2c1.7,0,3.3-0.4,4.9-1.2c2.6-1.3,4-3.4,4-6.3v-3.8c-0.6,0.4-1.3,0.7-2.2,0.9
		s-1.8,0.4-2.7,0.5l-2.9,0.4c-1.7,0.2-3,0.6-3.9,1.1c-1.5,0.8-2.2,2.1-2.2,4C1430.8,941.1,1431.3,942.2,1432.3,943z"/>
	<path d="M1457.3,918.9h4.5v4c1.3-1.7,2.8-2.8,4.3-3.6c1.5-0.7,3.2-1.1,5-1.1c4,0,6.7,1.4,8.1,4.2c0.8,1.5,1.2,3.7,1.2,6.6v18.2
		h-4.8v-17.8c0-1.7-0.3-3.1-0.8-4.2c-0.8-1.8-2.4-2.6-4.6-2.6c-1.1,0-2.1,0.1-2.8,0.3c-1.3,0.4-2.4,1.2-3.4,2.3
		c-0.8,0.9-1.3,1.9-1.5,2.9c-0.2,1-0.4,2.4-0.4,4.3v14.8h-4.8V918.9z"/>
	<path d="M1502.5,930.1c1.1-0.1,1.8-0.6,2.2-1.4c0.2-0.4,0.3-1,0.3-1.8c0-1.6-0.6-2.8-1.7-3.5c-1.2-0.7-2.8-1.1-4.9-1.1
		c-2.5,0-4.2,0.7-5.3,2c-0.6,0.7-1,1.9-1.1,3.3h-4.4c0.1-3.5,1.2-5.9,3.4-7.3c2.2-1.4,4.7-2.1,7.6-2.1c3.3,0,6,0.6,8.1,1.9
		c2.1,1.3,3.1,3.2,3.1,5.9v16.3c0,0.5,0.1,0.9,0.3,1.2s0.6,0.4,1.3,0.4c0.2,0,0.4,0,0.7,0s0.5-0.1,0.8-0.1v3.5
		c-0.7,0.2-1.3,0.3-1.7,0.4c-0.4,0.1-0.9,0.1-1.6,0.1c-1.6,0-2.8-0.6-3.6-1.7c-0.4-0.6-0.7-1.5-0.8-2.6c-1,1.3-2.4,2.4-4.2,3.3
		c-1.8,0.9-3.8,1.4-6,1.4c-2.6,0-4.8-0.8-6.4-2.4c-1.7-1.6-2.5-3.6-2.5-6c0-2.6,0.8-4.7,2.5-6.1c1.6-1.4,3.8-2.3,6.4-2.7
		L1502.5,930.1z M1492.5,943c1,0.8,2.2,1.2,3.6,1.2c1.7,0,3.3-0.4,4.9-1.2c2.6-1.3,4-3.4,4-6.3v-3.8c-0.6,0.4-1.3,0.7-2.2,0.9
		s-1.8,0.4-2.7,0.5l-2.9,0.4c-1.7,0.2-3,0.6-3.9,1.1c-1.5,0.8-2.2,2.1-2.2,4C1491,941.1,1491.5,942.2,1492.5,943z"/>
	<path d="M1173.2,1002.5c0.3,2.7,1.6,4.6,3.8,5.6c1.1,0.5,2.4,0.8,3.9,0.8c2.8,0,4.9-0.9,6.3-2.7c1.4-1.8,2-3.8,2-6
		c0-2.6-0.8-4.7-2.4-6.1c-1.6-1.4-3.5-2.2-5.8-2.2c-1.6,0-3,0.3-4.2,1s-2.2,1.5-3,2.6l-4.1-0.2l2.9-20.4h19.7v4.6h-16.1l-1.6,10.5
		c0.9-0.7,1.7-1.2,2.5-1.5c1.4-0.6,3-0.9,4.9-0.9c3.5,0,6.4,1.1,8.8,3.4c2.4,2.2,3.6,5.1,3.6,8.5c0,3.6-1.1,6.7-3.3,9.5
		s-5.7,4.1-10.6,4.1c-3.1,0-5.8-0.9-8.2-2.6c-2.4-1.7-3.7-4.4-4-8H1173.2z"/>
	<path d="M1221.9,980.4c1.7,3.1,2.5,7.4,2.5,12.8c0,5.1-0.8,9.4-2.3,12.8c-2.2,4.8-5.8,7.2-10.9,7.2c-4.5,0-7.9-2-10.1-5.9
		c-1.8-3.3-2.8-7.7-2.8-13.3c0-4.3,0.6-8,1.7-11.1c2.1-5.7,5.8-8.6,11.3-8.6C1216.1,974.4,1219.7,976.4,1221.9,980.4z
		 M1217.1,1005.6c1.5-2.2,2.2-6.3,2.2-12.2c0-4.3-0.5-7.8-1.6-10.6c-1.1-2.8-3.1-4.2-6.2-4.2c-2.8,0-4.9,1.3-6.2,4
		s-1.9,6.5-1.9,11.6c0,3.9,0.4,7,1.2,9.3c1.3,3.6,3.4,5.4,6.5,5.4C1213.6,1008.9,1215.6,1007.8,1217.1,1005.6z"/>
	<path d="M1244.2,978.2c1.8,1.8,2.7,4,2.7,6.5c0,2.5-0.9,4.7-2.7,6.5s-4,2.7-6.5,2.7c-2.5,0-4.7-0.9-6.5-2.7s-2.7-4-2.7-6.5
		c0-2.5,0.9-4.7,2.7-6.5s4-2.7,6.5-2.7C1240.2,975.5,1242.4,976.4,1244.2,978.2z M1241.5,988.6c1.1-1.1,1.6-2.3,1.6-3.8
		c0-1.5-0.5-2.8-1.6-3.8c-1.1-1.1-2.4-1.6-3.9-1.6c-1.5,0-2.8,0.5-3.8,1.6c-1.1,1.1-1.6,2.3-1.6,3.9c0,1.5,0.5,2.8,1.6,3.8
		c1.1,1.1,2.3,1.6,3.8,1.6C1239.2,990.2,1240.4,989.6,1241.5,988.6z M1259.8,974.5h2.9l-21.2,38.7h-3L1259.8,974.5z M1270.1,996.5
		c1.8,1.8,2.7,4,2.7,6.5c0,2.5-0.9,4.7-2.7,6.5s-4,2.7-6.5,2.7c-2.6,0-4.7-0.9-6.5-2.7s-2.7-4-2.7-6.5c0-2.5,0.9-4.7,2.7-6.5
		c1.8-1.8,4-2.7,6.5-2.7C1266.1,993.8,1268.3,994.7,1270.1,996.5z M1267.4,1006.8c1.1-1.1,1.6-2.4,1.6-3.9c0-1.5-0.5-2.8-1.6-3.9
		c-1.1-1.1-2.3-1.6-3.8-1.6c-1.5,0-2.8,0.5-3.9,1.6c-1.1,1.1-1.6,2.4-1.6,3.9c0,1.5,0.5,2.8,1.6,3.9c1.1,1.1,2.4,1.6,3.9,1.6
		C1265.1,1008.4,1266.4,1007.9,1267.4,1006.8z"/>
	<path d="M1297.4,999.7c0.1,2.2,0.6,4,1.5,5.4c1.7,2.6,4.6,3.9,8.9,3.9c1.9,0,3.6-0.3,5.2-0.8c3-1.1,4.5-3,4.5-5.9
		c0-2.1-0.6-3.6-1.9-4.5c-1.3-0.9-3.3-1.6-6.1-2.3l-5.1-1.2c-3.3-0.8-5.7-1.6-7.1-2.6c-2.4-1.6-3.6-4-3.6-7.3c0-3.5,1.2-6.4,3.5-8.6
		c2.3-2.2,5.7-3.4,10-3.4c4,0,7.3,1,10.1,2.9c2.8,2,4.2,5.1,4.2,9.4h-4.9c-0.3-2.1-0.8-3.7-1.6-4.8c-1.5-2-4.1-3-7.8-3
		c-3,0-5.1,0.7-6.4,2c-1.3,1.3-2,2.8-2,4.5c0,1.9,0.8,3.3,2.3,4.2c1,0.6,3.3,1.3,6.8,2.1l5.3,1.2c2.5,0.6,4.5,1.4,5.9,2.5
		c2.4,1.8,3.6,4.4,3.6,7.9c0,4.3-1.5,7.4-4.6,9.2c-3,1.8-6.6,2.8-10.6,2.8c-4.7,0-8.4-1.2-11.1-3.7c-2.7-2.4-4-5.8-3.9-10H1297.4z"
		/>
	<path d="M1330.4,976h4.8v7.9h4.5v3.9h-4.5v18.5c0,1,0.3,1.6,1,2c0.4,0.2,1,0.3,1.8,0.3c0.2,0,0.5,0,0.7,0c0.3,0,0.6,0,0.9-0.1v3.8
		c-0.5,0.2-1.1,0.3-1.7,0.3c-0.6,0.1-1.2,0.1-1.9,0.1c-2.2,0-3.7-0.6-4.5-1.7c-0.8-1.1-1.2-2.6-1.2-4.4v-18.7h-3.8v-3.9h3.8V976z"/>
	<path d="M1344.6,983.9h4.5v4.9c0.4-1,1.3-2.1,2.7-3.5c1.4-1.4,3.1-2,5-2c0.1,0,0.2,0,0.4,0s0.6,0.1,1.1,0.1v5
		c-0.3-0.1-0.5-0.1-0.8-0.1c-0.2,0-0.5,0-0.8,0c-2.4,0-4.2,0.8-5.5,2.3c-1.3,1.5-1.9,3.3-1.9,5.3v16.3h-4.8V983.9z"/>
	<path d="M1377.7,995.1c1.1-0.1,1.8-0.6,2.2-1.4c0.2-0.4,0.3-1,0.3-1.8c0-1.6-0.6-2.8-1.7-3.5c-1.2-0.7-2.8-1.1-4.9-1.1
		c-2.5,0-4.2,0.7-5.3,2c-0.6,0.7-1,1.9-1.1,3.3h-4.4c0.1-3.5,1.2-5.9,3.4-7.3s4.7-2.1,7.6-2.1c3.3,0,6,0.6,8.1,1.9
		c2.1,1.3,3.1,3.2,3.1,5.9v16.3c0,0.5,0.1,0.9,0.3,1.2c0.2,0.3,0.6,0.4,1.3,0.4c0.2,0,0.4,0,0.7,0c0.3,0,0.5-0.1,0.8-0.1v3.5
		c-0.7,0.2-1.3,0.3-1.7,0.4c-0.4,0.1-0.9,0.1-1.6,0.1c-1.6,0-2.8-0.6-3.6-1.7c-0.4-0.6-0.7-1.5-0.8-2.6c-1,1.3-2.4,2.4-4.2,3.3
		c-1.8,0.9-3.8,1.4-6,1.4c-2.6,0-4.8-0.8-6.4-2.4c-1.7-1.6-2.5-3.6-2.5-6c0-2.6,0.8-4.7,2.5-6.1c1.6-1.4,3.8-2.3,6.4-2.7
		L1377.7,995.1z M1367.7,1007.9c1,0.8,2.2,1.2,3.6,1.2c1.7,0,3.3-0.4,4.9-1.2c2.6-1.3,4-3.4,4-6.3v-3.8c-0.6,0.4-1.3,0.7-2.2,0.9
		s-1.8,0.4-2.7,0.5l-2.9,0.4c-1.7,0.2-3,0.6-3.9,1.1c-1.5,0.8-2.2,2.1-2.2,4C1366.2,1006,1366.7,1007.1,1367.7,1007.9z"/>
	<path d="M1394.8,983.9l5.4,22.3l5.5-22.3h5.3l5.5,22.2l5.8-22.2h4.8l-8.2,28.3h-4.9l-5.8-21.9l-5.6,21.9h-4.9l-8.2-28.3H1394.8z"/>
	<path d="M1431.3,973.2h4.6v14.1c1-1.4,2.3-2.4,3.7-3.1c1.4-0.7,3-1.1,4.7-1.1c3.5,0,6.4,1.2,8.6,3.6c2.2,2.4,3.3,6,3.3,10.7
		c0,4.5-1.1,8.2-3.3,11.2c-2.2,3-5.2,4.4-9,4.4c-2.2,0-4-0.5-5.5-1.6c-0.9-0.6-1.8-1.6-2.8-3v3.6h-4.4V973.2z M1449.5,1005.8
		c1.3-2,1.9-4.7,1.9-8.1c0-3-0.6-5.4-1.9-7.4s-3.2-2.9-5.7-2.9c-2.2,0-4.1,0.8-5.7,2.4s-2.5,4.2-2.5,7.9c0,2.7,0.3,4.8,1,6.5
		c1.3,3.1,3.6,4.7,7,4.7C1446.3,1008.9,1448.2,1007.9,1449.5,1005.8z"/>
	<path d="M1479.3,984.7c1.9,0.9,3.3,2.2,4.3,3.7c0.9,1.4,1.6,3.1,1.9,5c0.3,1.3,0.4,3.4,0.4,6.2h-20.6c0.1,2.9,0.8,5.2,2,6.9
		c1.3,1.7,3.2,2.6,5.8,2.6c2.5,0,4.4-0.8,5.9-2.5c0.8-1,1.4-2.1,1.7-3.3h4.7c-0.1,1-0.5,2.2-1.2,3.5c-0.7,1.3-1.5,2.3-2.3,3.1
		c-1.4,1.4-3.2,2.4-5.3,2.9c-1.1,0.3-2.4,0.4-3.9,0.4c-3.5,0-6.5-1.3-8.9-3.8s-3.7-6.2-3.7-10.8c0-4.5,1.2-8.2,3.7-11.1
		c2.5-2.8,5.7-4.3,9.6-4.3C1475.5,983.3,1477.4,983.7,1479.3,984.7z M1481,995.8c-0.2-2.1-0.6-3.7-1.3-4.9c-1.3-2.3-3.5-3.4-6.5-3.4
		c-2.2,0-4,0.8-5.4,2.4c-1.5,1.6-2.2,3.6-2.3,6H1481z"/>
	<path d="M1492,983.9h4.5v4.9c0.4-1,1.3-2.1,2.7-3.5c1.4-1.4,3.1-2,5-2c0.1,0,0.2,0,0.5,0c0.2,0,0.6,0.1,1.1,0.1v5
		c-0.3-0.1-0.5-0.1-0.8-0.1c-0.2,0-0.5,0-0.8,0c-2.4,0-4.2,0.8-5.5,2.3c-1.3,1.5-1.9,3.3-1.9,5.3v16.3h-4.8V983.9z"/>
	<path d="M1510,983.9h4.5v4.9c0.4-1,1.3-2.1,2.7-3.5c1.4-1.4,3.1-2,5-2c0.1,0,0.2,0,0.4,0s0.6,0.1,1.1,0.1v5
		c-0.3-0.1-0.5-0.1-0.8-0.1c-0.2,0-0.5,0-0.8,0c-2.4,0-4.2,0.8-5.5,2.3c-1.3,1.5-1.9,3.3-1.9,5.3v16.3h-4.8V983.9z"/>
	<path d="M1545.6,983.9h5.3c-0.7,1.8-2.2,6-4.5,12.4c-1.7,4.9-3.2,8.8-4.3,11.9c-2.7,7.2-4.7,11.6-5.8,13.2
		c-1.1,1.6-3.1,2.4-5.8,2.4c-0.7,0-1.2,0-1.5-0.1c-0.4-0.1-0.8-0.1-1.3-0.3v-4.3c0.8,0.2,1.4,0.4,1.8,0.4c0.4,0.1,0.7,0.1,1,0.1
		c0.9,0,1.5-0.1,1.9-0.4c0.4-0.3,0.8-0.6,1-1.1c0.1-0.1,0.4-0.9,0.9-2.2c0.5-1.3,0.9-2.3,1.2-2.9l-10.5-29.1h5.4l7.6,23.1
		L1545.6,983.9z"/>
</g>
<g>
	<path d="M688.3,910v4.1c-1.2,1.2-2.8,3.2-4.8,6.2c-2,2.9-3.8,6.1-5.4,9.5c-1.5,3.3-2.7,6.3-3.5,9c-0.5,1.7-1.2,4.6-2,8.4h-5.3
		c1.2-7.2,3.8-14.4,7.9-21.6c2.4-4.2,5-7.8,7.6-10.9H662V910H688.3z"/>
	<path d="M696.8,937.6c0.3,2.7,1.6,4.6,3.8,5.6c1.1,0.5,2.4,0.8,3.9,0.8c2.8,0,4.9-0.9,6.3-2.7c1.4-1.8,2-3.8,2-6
		c0-2.6-0.8-4.7-2.4-6.1c-1.6-1.4-3.5-2.2-5.8-2.2c-1.6,0-3,0.3-4.2,1s-2.2,1.5-3,2.6l-4.1-0.2l2.9-20.4h19.7v4.6h-16.1l-1.6,10.5
		c0.9-0.7,1.7-1.2,2.5-1.5c1.4-0.6,3-0.9,4.9-0.9c3.5,0,6.4,1.1,8.8,3.4c2.4,2.2,3.6,5.1,3.6,8.5c0,3.6-1.1,6.7-3.3,9.5
		s-5.7,4.1-10.6,4.1c-3.1,0-5.8-0.9-8.2-2.6c-2.4-1.7-3.7-4.4-4-8H696.8z"/>
	<path d="M737.7,913.3c1.8,1.8,2.7,4,2.7,6.5c0,2.5-0.9,4.7-2.7,6.5s-4,2.7-6.5,2.7c-2.5,0-4.7-0.9-6.5-2.7s-2.7-4-2.7-6.5
		c0-2.5,0.9-4.7,2.7-6.5s4-2.7,6.5-2.7C733.7,910.5,735.9,911.4,737.7,913.3z M735,923.6c1.1-1.1,1.6-2.3,1.6-3.8
		c0-1.5-0.5-2.8-1.6-3.8c-1.1-1.1-2.4-1.6-3.9-1.6c-1.5,0-2.8,0.5-3.8,1.6c-1.1,1.1-1.6,2.3-1.6,3.9c0,1.5,0.5,2.8,1.6,3.8
		c1.1,1.1,2.3,1.6,3.8,1.6C732.7,925.2,734,924.7,735,923.6z M753.3,909.6h2.9l-21.2,38.7h-3L753.3,909.6z M763.6,931.5
		c1.8,1.8,2.7,4,2.7,6.5c0,2.5-0.9,4.7-2.7,6.5s-4,2.7-6.5,2.7c-2.6,0-4.7-0.9-6.5-2.7s-2.7-4-2.7-6.5c0-2.5,0.9-4.7,2.7-6.5
		c1.8-1.8,4-2.7,6.5-2.7C759.7,928.8,761.8,929.7,763.6,931.5z M761,941.9c1.1-1.1,1.6-2.4,1.6-3.9c0-1.5-0.5-2.8-1.6-3.9
		c-1.1-1.1-2.3-1.6-3.8-1.6c-1.5,0-2.8,0.5-3.9,1.6c-1.1,1.1-1.6,2.4-1.6,3.9c0,1.5,0.5,2.8,1.6,3.9c1.1,1.1,2.4,1.6,3.9,1.6
		C758.6,943.5,759.9,943,761,941.9z"/>
	<path d="M787.4,908.4h16.8c4.6,0,7.8,1.4,9.8,4.1c1.1,1.6,1.7,3.5,1.7,5.5c0,2.4-0.7,4.5-2.1,6c-0.7,0.8-1.8,1.6-3.1,2.3
		c2,0.8,3.5,1.6,4.5,2.6c1.7,1.7,2.6,4,2.6,7c0,2.5-0.8,4.8-2.4,6.8c-2.4,3-6.1,4.5-11.2,4.5h-16.5V908.4z M802.2,924.8
		c2.2,0,4-0.3,5.2-0.9c2-1,2.9-2.7,2.9-5.2c0-2.5-1-4.2-3.1-5.1c-1.2-0.5-2.9-0.7-5.2-0.7h-9.5v12H802.2z M804,942.8
		c3.3,0,5.6-0.9,7-2.8c0.9-1.2,1.3-2.6,1.3-4.3c0-2.8-1.3-4.7-3.8-5.8c-1.4-0.5-3.1-0.8-5.4-0.8h-10.5v13.7H804z"/>
	<path d="M838.1,930.1c1.1-0.1,1.8-0.6,2.2-1.4c0.2-0.4,0.3-1,0.3-1.8c0-1.6-0.6-2.8-1.7-3.5c-1.2-0.7-2.8-1.1-4.9-1.1
		c-2.5,0-4.2,0.7-5.3,2c-0.6,0.7-1,1.9-1.1,3.3h-4.4c0.1-3.5,1.2-5.9,3.4-7.3c2.2-1.4,4.7-2.1,7.6-2.1c3.3,0,6,0.6,8.1,1.9
		c2.1,1.3,3.1,3.2,3.1,5.9v16.3c0,0.5,0.1,0.9,0.3,1.2s0.6,0.4,1.3,0.4c0.2,0,0.4,0,0.7,0c0.3,0,0.5-0.1,0.8-0.1v3.5
		c-0.7,0.2-1.3,0.3-1.7,0.4c-0.4,0.1-0.9,0.1-1.6,0.1c-1.6,0-2.8-0.6-3.6-1.7c-0.4-0.6-0.7-1.5-0.8-2.6c-1,1.3-2.4,2.4-4.2,3.3
		c-1.8,0.9-3.8,1.4-6,1.4c-2.6,0-4.8-0.8-6.4-2.4c-1.7-1.6-2.5-3.6-2.5-6c0-2.6,0.8-4.7,2.5-6.1c1.6-1.4,3.8-2.3,6.4-2.7
		L838.1,930.1z M828.1,943c1,0.8,2.2,1.2,3.6,1.2c1.7,0,3.3-0.4,4.9-1.2c2.6-1.3,4-3.4,4-6.3v-3.8c-0.6,0.4-1.3,0.7-2.2,0.9
		s-1.8,0.4-2.7,0.5l-2.9,0.4c-1.7,0.2-3,0.6-3.9,1.1c-1.5,0.8-2.2,2.1-2.2,4C826.6,941.1,827.1,942.2,828.1,943z"/>
	<path d="M853.1,918.9h4.5v4c1.3-1.7,2.8-2.8,4.3-3.6c1.5-0.7,3.2-1.1,5-1.1c4,0,6.7,1.4,8.1,4.2c0.8,1.5,1.2,3.7,1.2,6.6v18.2h-4.8
		v-17.8c0-1.7-0.3-3.1-0.8-4.2c-0.8-1.8-2.4-2.6-4.6-2.6c-1.1,0-2.1,0.1-2.8,0.3c-1.3,0.4-2.4,1.2-3.4,2.3c-0.8,0.9-1.3,1.9-1.5,2.9
		c-0.2,1-0.4,2.4-0.4,4.3v14.8h-4.8V918.9z"/>
	<path d="M898.3,930.1c1.1-0.1,1.8-0.6,2.2-1.4c0.2-0.4,0.3-1,0.3-1.8c0-1.6-0.6-2.8-1.7-3.5c-1.2-0.7-2.8-1.1-4.9-1.1
		c-2.5,0-4.2,0.7-5.3,2c-0.6,0.7-1,1.9-1.1,3.3h-4.4c0.1-3.5,1.2-5.9,3.4-7.3c2.2-1.4,4.7-2.1,7.6-2.1c3.3,0,6,0.6,8.1,1.9
		c2.1,1.3,3.1,3.2,3.1,5.9v16.3c0,0.5,0.1,0.9,0.3,1.2c0.2,0.3,0.6,0.4,1.3,0.4c0.2,0,0.4,0,0.7,0c0.3,0,0.5-0.1,0.8-0.1v3.5
		c-0.7,0.2-1.3,0.3-1.7,0.4c-0.4,0.1-0.9,0.1-1.6,0.1c-1.6,0-2.8-0.6-3.6-1.7c-0.4-0.6-0.7-1.5-0.8-2.6c-1,1.3-2.4,2.4-4.2,3.3
		c-1.8,0.9-3.8,1.4-6,1.4c-2.6,0-4.8-0.8-6.4-2.4c-1.7-1.6-2.5-3.6-2.5-6c0-2.6,0.8-4.7,2.5-6.1c1.6-1.4,3.8-2.3,6.4-2.7
		L898.3,930.1z M888.3,943c1,0.8,2.2,1.2,3.6,1.2c1.7,0,3.3-0.4,4.9-1.2c2.6-1.3,4-3.4,4-6.3v-3.8c-0.6,0.4-1.3,0.7-2.2,0.9
		s-1.8,0.4-2.7,0.5l-2.9,0.4c-1.7,0.2-3,0.6-3.9,1.1c-1.5,0.8-2.2,2.1-2.2,4C886.8,941.1,887.3,942.2,888.3,943z"/>
	<path d="M913.3,918.9h4.5v4c1.3-1.7,2.8-2.8,4.3-3.6c1.5-0.7,3.2-1.1,5-1.1c4,0,6.7,1.4,8.1,4.2c0.8,1.5,1.2,3.7,1.2,6.6v18.2h-4.8
		v-17.8c0-1.7-0.3-3.1-0.8-4.2c-0.8-1.8-2.4-2.6-4.6-2.6c-1.1,0-2.1,0.1-2.8,0.3c-1.3,0.4-2.4,1.2-3.4,2.3c-0.8,0.9-1.3,1.9-1.5,2.9
		c-0.2,1-0.4,2.4-0.4,4.3v14.8h-4.8V918.9z"/>
	<path d="M958.5,930.1c1.1-0.1,1.8-0.6,2.2-1.4c0.2-0.4,0.3-1,0.3-1.8c0-1.6-0.6-2.8-1.7-3.5c-1.2-0.7-2.8-1.1-4.9-1.1
		c-2.5,0-4.2,0.7-5.3,2c-0.6,0.7-1,1.9-1.1,3.3h-4.4c0.1-3.5,1.2-5.9,3.4-7.3c2.2-1.4,4.7-2.1,7.6-2.1c3.3,0,6,0.6,8.1,1.9
		c2.1,1.3,3.1,3.2,3.1,5.9v16.3c0,0.5,0.1,0.9,0.3,1.2s0.6,0.4,1.3,0.4c0.2,0,0.4,0,0.7,0s0.5-0.1,0.8-0.1v3.5
		c-0.7,0.2-1.3,0.3-1.7,0.4c-0.4,0.1-0.9,0.1-1.6,0.1c-1.6,0-2.8-0.6-3.6-1.7c-0.4-0.6-0.7-1.5-0.8-2.6c-1,1.3-2.4,2.4-4.2,3.3
		c-1.8,0.9-3.8,1.4-6,1.4c-2.6,0-4.8-0.8-6.4-2.4c-1.7-1.6-2.5-3.6-2.5-6c0-2.6,0.8-4.7,2.5-6.1c1.6-1.4,3.8-2.3,6.4-2.7
		L958.5,930.1z M948.5,943c1,0.8,2.2,1.2,3.6,1.2c1.7,0,3.3-0.4,4.9-1.2c2.6-1.3,4-3.4,4-6.3v-3.8c-0.6,0.4-1.3,0.7-2.2,0.9
		s-1.8,0.4-2.7,0.5l-2.9,0.4c-1.7,0.2-3,0.6-3.9,1.1c-1.5,0.8-2.2,2.1-2.2,4C947,941.1,947.5,942.2,948.5,943z"/>
	<path d="M626.2,1003.7c1.2-2.4,3.5-4.6,6.9-6.6l5.1-2.9c2.3-1.3,3.9-2.5,4.8-3.4c1.4-1.5,2.2-3.1,2.2-5c0-2.2-0.7-4-2-5.3
		c-1.3-1.3-3.1-1.9-5.3-1.9c-3.3,0-5.5,1.2-6.8,3.7c-0.7,1.3-1,3.2-1.1,5.5h-4.8c0.1-3.3,0.7-6,1.8-8.1c2.1-3.7,5.7-5.5,10.9-5.5
		c4.3,0,7.5,1.2,9.5,3.5c2,2.3,3,5,3,7.8c0,3-1.1,5.6-3.2,7.8c-1.2,1.3-3.4,2.8-6.6,4.5l-3.6,2c-1.7,1-3.1,1.9-4.1,2.7
		c-1.8,1.5-2.9,3.2-3.3,5.1h20.7v4.5h-26C624.4,1008.9,625,1006.1,626.2,1003.7z"/>
	<path d="M659.3,1002.5c0.3,2.7,1.6,4.6,3.8,5.6c1.1,0.5,2.4,0.8,3.9,0.8c2.8,0,4.9-0.9,6.3-2.7c1.4-1.8,2-3.8,2-6
		c0-2.6-0.8-4.7-2.4-6.1c-1.6-1.4-3.5-2.2-5.8-2.2c-1.6,0-3,0.3-4.2,1s-2.2,1.5-3,2.6l-4.1-0.2l2.9-20.4h19.7v4.6h-16.1l-1.6,10.5
		c0.9-0.7,1.7-1.2,2.5-1.5c1.4-0.6,3-0.9,4.9-0.9c3.5,0,6.4,1.1,8.8,3.4c2.4,2.2,3.6,5.1,3.6,8.5c0,3.6-1.1,6.7-3.3,9.5
		s-5.7,4.1-10.6,4.1c-3.1,0-5.8-0.9-8.2-2.6c-2.4-1.7-3.7-4.4-4-8H659.3z"/>
	<path d="M700.2,978.2c1.8,1.8,2.7,4,2.7,6.5c0,2.5-0.9,4.7-2.7,6.5s-4,2.7-6.5,2.7c-2.5,0-4.7-0.9-6.5-2.7s-2.7-4-2.7-6.5
		c0-2.5,0.9-4.7,2.7-6.5s4-2.7,6.5-2.7C696.2,975.5,698.4,976.4,700.2,978.2z M697.5,988.6c1.1-1.1,1.6-2.3,1.6-3.8
		c0-1.5-0.5-2.8-1.6-3.8c-1.1-1.1-2.4-1.6-3.9-1.6c-1.5,0-2.8,0.5-3.8,1.6c-1.1,1.1-1.6,2.3-1.6,3.9c0,1.5,0.5,2.8,1.6,3.8
		c1.1,1.1,2.3,1.6,3.8,1.6C695.2,990.2,696.4,989.6,697.5,988.6z M715.8,974.5h2.9l-21.2,38.7h-3L715.8,974.5z M726.1,996.5
		c1.8,1.8,2.7,4,2.7,6.5c0,2.5-0.9,4.7-2.7,6.5s-4,2.7-6.5,2.7c-2.6,0-4.7-0.9-6.5-2.7s-2.7-4-2.7-6.5c0-2.5,0.9-4.7,2.7-6.5
		c1.8-1.8,4-2.7,6.5-2.7C722.1,993.8,724.3,994.7,726.1,996.5z M723.4,1006.8c1.1-1.1,1.6-2.4,1.6-3.9c0-1.5-0.5-2.8-1.6-3.9
		c-1.1-1.1-2.3-1.6-3.8-1.6c-1.5,0-2.8,0.5-3.9,1.6c-1.1,1.1-1.6,2.4-1.6,3.9c0,1.5,0.5,2.8,1.6,3.9c1.1,1.1,2.4,1.6,3.9,1.6
		C721.1,1008.4,722.4,1007.9,723.4,1006.8z"/>
	<path d="M753.4,999.7c0.1,2.2,0.6,4,1.5,5.4c1.7,2.6,4.6,3.9,8.9,3.9c1.9,0,3.6-0.3,5.2-0.8c3-1.1,4.5-3,4.5-5.9
		c0-2.1-0.6-3.6-1.9-4.5c-1.3-0.9-3.3-1.6-6.1-2.3l-5.1-1.2c-3.3-0.8-5.7-1.6-7.1-2.6c-2.4-1.6-3.6-4-3.6-7.3c0-3.5,1.2-6.4,3.5-8.6
		c2.3-2.2,5.7-3.4,10-3.4c4,0,7.3,1,10.1,2.9c2.8,2,4.2,5.1,4.2,9.4h-4.9c-0.3-2.1-0.8-3.7-1.6-4.8c-1.5-2-4.1-3-7.8-3
		c-3,0-5.1,0.7-6.4,2c-1.3,1.3-2,2.8-2,4.5c0,1.9,0.8,3.3,2.3,4.2c1,0.6,3.3,1.3,6.8,2.1l5.3,1.2c2.5,0.6,4.5,1.4,5.9,2.5
		c2.4,1.8,3.6,4.4,3.6,7.9c0,4.3-1.5,7.4-4.6,9.2c-3,1.8-6.6,2.8-10.6,2.8c-4.7,0-8.4-1.2-11.1-3.7c-2.7-2.4-4-5.8-3.9-10H753.4z"/>
	<path d="M786.4,976h4.8v7.9h4.5v3.9h-4.5v18.5c0,1,0.3,1.6,1,2c0.4,0.2,1,0.3,1.8,0.3c0.2,0,0.5,0,0.7,0c0.3,0,0.6,0,0.9-0.1v3.8
		c-0.5,0.2-1.1,0.3-1.7,0.3c-0.6,0.1-1.2,0.1-1.9,0.1c-2.2,0-3.7-0.6-4.5-1.7c-0.8-1.1-1.2-2.6-1.2-4.4v-18.7h-3.8v-3.9h3.8V976z"/>
	<path d="M800.6,983.9h4.5v4.9c0.4-1,1.3-2.1,2.7-3.5c1.4-1.4,3.1-2,5-2c0.1,0,0.2,0,0.4,0s0.6,0.1,1.1,0.1v5
		c-0.3-0.1-0.5-0.1-0.8-0.1c-0.2,0-0.5,0-0.8,0c-2.4,0-4.2,0.8-5.5,2.3c-1.3,1.5-1.9,3.3-1.9,5.3v16.3h-4.8V983.9z"/>
	<path d="M833.7,995.1c1.1-0.1,1.8-0.6,2.2-1.4c0.2-0.4,0.3-1,0.3-1.8c0-1.6-0.6-2.8-1.7-3.5c-1.2-0.7-2.8-1.1-4.9-1.1
		c-2.5,0-4.2,0.7-5.3,2c-0.6,0.7-1,1.9-1.1,3.3h-4.4c0.1-3.5,1.2-5.9,3.4-7.3s4.7-2.1,7.6-2.1c3.3,0,6,0.6,8.1,1.9
		c2.1,1.3,3.1,3.2,3.1,5.9v16.3c0,0.5,0.1,0.9,0.3,1.2c0.2,0.3,0.6,0.4,1.3,0.4c0.2,0,0.4,0,0.7,0c0.3,0,0.5-0.1,0.8-0.1v3.5
		c-0.7,0.2-1.3,0.3-1.7,0.4c-0.4,0.1-0.9,0.1-1.6,0.1c-1.6,0-2.8-0.6-3.6-1.7c-0.4-0.6-0.7-1.5-0.8-2.6c-1,1.3-2.4,2.4-4.2,3.3
		c-1.8,0.9-3.8,1.4-6,1.4c-2.6,0-4.8-0.8-6.4-2.4c-1.7-1.6-2.5-3.6-2.5-6c0-2.6,0.8-4.7,2.5-6.1c1.6-1.4,3.8-2.3,6.4-2.7
		L833.7,995.1z M823.7,1007.9c1,0.8,2.2,1.2,3.6,1.2c1.7,0,3.3-0.4,4.9-1.2c2.6-1.3,4-3.4,4-6.3v-3.8c-0.6,0.4-1.3,0.7-2.2,0.9
		s-1.8,0.4-2.7,0.5l-2.9,0.4c-1.7,0.2-3,0.6-3.9,1.1c-1.5,0.8-2.2,2.1-2.2,4C822.2,1006,822.7,1007.1,823.7,1007.9z"/>
	<path d="M850.8,983.9l5.4,22.3l5.5-22.3h5.3l5.5,22.2l5.8-22.2h4.8l-8.2,28.3H870l-5.8-21.9l-5.6,21.9h-4.9l-8.2-28.3H850.8z"/>
	<path d="M887.3,973.2h4.6v14.1c1-1.4,2.3-2.4,3.7-3.1c1.4-0.7,3-1.1,4.7-1.1c3.5,0,6.4,1.2,8.6,3.6c2.2,2.4,3.3,6,3.3,10.7
		c0,4.5-1.1,8.2-3.3,11.2c-2.2,3-5.2,4.4-9,4.4c-2.2,0-4-0.5-5.5-1.6c-0.9-0.6-1.8-1.6-2.8-3v3.6h-4.4V973.2z M905.5,1005.8
		c1.3-2,1.9-4.7,1.9-8.1c0-3-0.6-5.4-1.9-7.4s-3.2-2.9-5.7-2.9c-2.2,0-4.1,0.8-5.7,2.4s-2.5,4.2-2.5,7.9c0,2.7,0.3,4.8,1,6.5
		c1.3,3.1,3.6,4.7,7,4.7C902.3,1008.9,904.2,1007.9,905.5,1005.8z"/>
	<path d="M935.3,984.7c1.9,0.9,3.3,2.2,4.3,3.7c0.9,1.4,1.6,3.1,1.9,5c0.3,1.3,0.4,3.4,0.4,6.2h-20.6c0.1,2.9,0.8,5.2,2,6.9
		c1.3,1.7,3.2,2.6,5.8,2.6c2.5,0,4.4-0.8,5.9-2.5c0.8-1,1.4-2.1,1.7-3.3h4.7c-0.1,1-0.5,2.2-1.2,3.5c-0.7,1.3-1.5,2.3-2.3,3.1
		c-1.4,1.4-3.2,2.4-5.3,2.9c-1.1,0.3-2.4,0.4-3.9,0.4c-3.5,0-6.5-1.3-8.9-3.8s-3.7-6.2-3.7-10.8c0-4.5,1.2-8.2,3.7-11.1
		c2.5-2.8,5.7-4.3,9.6-4.3C931.5,983.3,933.4,983.7,935.3,984.7z M937,995.8c-0.2-2.1-0.6-3.7-1.3-4.9c-1.3-2.3-3.5-3.4-6.5-3.4
		c-2.2,0-4,0.8-5.4,2.4c-1.5,1.6-2.2,3.6-2.3,6H937z"/>
	<path d="M948,983.9h4.5v4.9c0.4-1,1.3-2.1,2.7-3.5c1.4-1.4,3.1-2,5-2c0.1,0,0.2,0,0.5,0c0.2,0,0.6,0.1,1.1,0.1v5
		c-0.3-0.1-0.5-0.1-0.8-0.1c-0.2,0-0.5,0-0.8,0c-2.4,0-4.2,0.8-5.5,2.3c-1.3,1.5-1.9,3.3-1.9,5.3v16.3H948V983.9z"/>
	<path d="M966,983.9h4.5v4.9c0.4-1,1.3-2.1,2.7-3.5c1.4-1.4,3.1-2,5-2c0.1,0,0.2,0,0.4,0s0.6,0.1,1.1,0.1v5
		c-0.3-0.1-0.5-0.1-0.8-0.1c-0.2,0-0.5,0-0.8,0c-2.4,0-4.2,0.8-5.5,2.3c-1.3,1.5-1.9,3.3-1.9,5.3v16.3H966V983.9z"/>
	<path d="M1001.6,983.9h5.3c-0.7,1.8-2.2,6-4.5,12.4c-1.7,4.9-3.2,8.8-4.3,11.9c-2.7,7.2-4.7,11.6-5.8,13.2
		c-1.1,1.6-3.1,2.4-5.8,2.4c-0.7,0-1.2,0-1.5-0.1c-0.4-0.1-0.8-0.1-1.3-0.3v-4.3c0.8,0.2,1.4,0.4,1.8,0.4c0.4,0.1,0.7,0.1,1,0.1
		c0.9,0,1.5-0.1,1.9-0.4c0.4-0.3,0.8-0.6,1-1.1c0.1-0.1,0.4-0.9,0.9-2.2c0.5-1.3,0.9-2.3,1.2-2.9L981,983.9h5.4l7.6,23.1
		L1001.6,983.9z"/>
</g>
<g>
	<path d="M1737.9,938.7c1.2-2.4,3.5-4.6,6.9-6.6l5.1-2.9c2.3-1.3,3.9-2.5,4.8-3.4c1.4-1.5,2.2-3.1,2.2-5c0-2.2-0.7-4-2-5.3
		c-1.3-1.3-3.1-1.9-5.3-1.9c-3.3,0-5.5,1.2-6.8,3.7c-0.7,1.3-1,3.2-1.1,5.5h-4.8c0.1-3.3,0.7-6,1.8-8.1c2.1-3.7,5.7-5.5,10.9-5.5
		c4.3,0,7.5,1.2,9.5,3.5c2,2.3,3,5,3,7.8c0,3-1.1,5.6-3.2,7.8c-1.2,1.3-3.4,2.8-6.6,4.5l-3.6,2c-1.7,1-3.1,1.9-4.1,2.7
		c-1.8,1.5-2.9,3.2-3.3,5.1h20.7v4.5h-26C1736.1,944,1736.8,941.2,1737.9,938.7z"/>
	<path d="M1771,937.6c0.3,2.7,1.6,4.6,3.8,5.6c1.1,0.5,2.4,0.8,3.9,0.8c2.8,0,4.9-0.9,6.3-2.7c1.4-1.8,2-3.8,2-6
		c0-2.6-0.8-4.7-2.4-6.1c-1.6-1.4-3.5-2.2-5.8-2.2c-1.6,0-3,0.3-4.2,1c-1.2,0.6-2.2,1.5-3,2.6l-4.1-0.2l2.9-20.4h19.7v4.6h-16.1
		l-1.6,10.5c0.9-0.7,1.7-1.2,2.5-1.5c1.4-0.6,3-0.9,4.9-0.9c3.5,0,6.4,1.1,8.8,3.4c2.4,2.2,3.6,5.1,3.6,8.5c0,3.6-1.1,6.7-3.3,9.5
		c-2.2,2.7-5.7,4.1-10.6,4.1c-3.1,0-5.8-0.9-8.2-2.6c-2.4-1.7-3.7-4.4-4-8H1771z"/>
	<path d="M1811.9,913.3c1.8,1.8,2.7,4,2.7,6.5c0,2.5-0.9,4.7-2.7,6.5s-4,2.7-6.5,2.7c-2.5,0-4.7-0.9-6.5-2.7s-2.7-4-2.7-6.5
		c0-2.5,0.9-4.7,2.7-6.5s4-2.7,6.5-2.7C1807.9,910.5,1810.1,911.4,1811.9,913.3z M1809.2,923.6c1.1-1.1,1.6-2.3,1.6-3.8
		c0-1.5-0.5-2.8-1.6-3.8s-2.4-1.6-3.9-1.6c-1.5,0-2.8,0.5-3.8,1.6c-1.1,1.1-1.6,2.3-1.6,3.9c0,1.5,0.5,2.8,1.6,3.8
		c1.1,1.1,2.3,1.6,3.8,1.6C1806.9,925.2,1808.2,924.7,1809.2,923.6z M1827.5,909.6h2.9l-21.2,38.7h-2.9L1827.5,909.6z M1837.8,931.5
		c1.8,1.8,2.7,4,2.7,6.5c0,2.5-0.9,4.7-2.7,6.5s-4,2.7-6.5,2.7c-2.6,0-4.7-0.9-6.5-2.7s-2.7-4-2.7-6.5c0-2.5,0.9-4.7,2.7-6.5
		c1.8-1.8,4-2.7,6.5-2.7C1833.9,928.8,1836,929.7,1837.8,931.5z M1835.2,941.9c1.1-1.1,1.6-2.4,1.6-3.9c0-1.5-0.5-2.8-1.6-3.9
		c-1.1-1.1-2.3-1.6-3.8-1.6c-1.5,0-2.8,0.5-3.9,1.6c-1.1,1.1-1.6,2.4-1.6,3.9c0,1.5,0.5,2.8,1.6,3.9c1.1,1.1,2.4,1.6,3.9,1.6
		C1832.8,943.5,1834.1,943,1835.2,941.9z"/>
	<path d="M1861.6,908.4h16.8c4.6,0,7.8,1.4,9.8,4.1c1.1,1.6,1.7,3.5,1.7,5.5c0,2.4-0.7,4.5-2.1,6c-0.7,0.8-1.8,1.6-3.1,2.3
		c2,0.8,3.5,1.6,4.5,2.6c1.7,1.7,2.6,4,2.6,7c0,2.5-0.8,4.8-2.4,6.8c-2.4,3-6.1,4.5-11.2,4.5h-16.5V908.4z M1876.4,924.8
		c2.2,0,4-0.3,5.2-0.9c2-1,2.9-2.7,2.9-5.2c0-2.5-1-4.2-3.1-5.1c-1.2-0.5-2.9-0.7-5.2-0.7h-9.5v12H1876.4z M1878.2,942.8
		c3.3,0,5.6-0.9,7-2.8c0.9-1.2,1.3-2.6,1.3-4.3c0-2.8-1.3-4.7-3.8-5.8c-1.4-0.5-3.1-0.8-5.4-0.8h-10.5v13.7H1878.2z"/>
	<path d="M1912.3,930.1c1.1-0.1,1.8-0.6,2.2-1.4c0.2-0.4,0.3-1,0.3-1.8c0-1.6-0.6-2.8-1.7-3.5c-1.2-0.7-2.8-1.1-4.9-1.1
		c-2.5,0-4.2,0.7-5.3,2c-0.6,0.7-1,1.9-1.1,3.3h-4.4c0.1-3.5,1.2-5.9,3.4-7.3c2.2-1.4,4.7-2.1,7.6-2.1c3.3,0,6,0.6,8.1,1.9
		c2.1,1.3,3.1,3.2,3.1,5.9v16.3c0,0.5,0.1,0.9,0.3,1.2s0.6,0.4,1.3,0.4c0.2,0,0.4,0,0.7,0s0.5-0.1,0.8-0.1v3.5
		c-0.7,0.2-1.3,0.3-1.7,0.4c-0.4,0.1-0.9,0.1-1.6,0.1c-1.6,0-2.8-0.6-3.6-1.7c-0.4-0.6-0.7-1.5-0.8-2.6c-1,1.3-2.4,2.4-4.2,3.3
		c-1.8,0.9-3.8,1.4-6,1.4c-2.6,0-4.8-0.8-6.4-2.4c-1.7-1.6-2.5-3.6-2.5-6c0-2.6,0.8-4.7,2.5-6.1c1.6-1.4,3.8-2.3,6.4-2.7
		L1912.3,930.1z M1902.3,943c1,0.8,2.2,1.2,3.6,1.2c1.7,0,3.3-0.4,4.9-1.2c2.6-1.3,4-3.4,4-6.3v-3.8c-0.6,0.4-1.3,0.7-2.2,0.9
		s-1.8,0.4-2.7,0.5l-2.9,0.4c-1.7,0.2-3,0.6-3.9,1.1c-1.5,0.8-2.2,2.1-2.2,4C1900.8,941.1,1901.3,942.2,1902.3,943z"/>
	<path d="M1927.3,918.9h4.5v4c1.3-1.7,2.8-2.8,4.3-3.6c1.5-0.7,3.2-1.1,5-1.1c4,0,6.7,1.4,8.1,4.2c0.8,1.5,1.2,3.7,1.2,6.6v18.2
		h-4.8v-17.8c0-1.7-0.3-3.1-0.8-4.2c-0.8-1.8-2.4-2.6-4.6-2.6c-1.1,0-2.1,0.1-2.8,0.3c-1.3,0.4-2.4,1.2-3.4,2.3
		c-0.8,0.9-1.3,1.9-1.5,2.9c-0.2,1-0.4,2.4-0.4,4.3v14.8h-4.8V918.9z"/>
	<path d="M1972.5,930.1c1.1-0.1,1.8-0.6,2.2-1.4c0.2-0.4,0.3-1,0.3-1.8c0-1.6-0.6-2.8-1.7-3.5c-1.2-0.7-2.8-1.1-4.9-1.1
		c-2.5,0-4.2,0.7-5.3,2c-0.6,0.7-1,1.9-1.1,3.3h-4.4c0.1-3.5,1.2-5.9,3.4-7.3s4.7-2.1,7.6-2.1c3.3,0,6,0.6,8.1,1.9
		c2.1,1.3,3.1,3.2,3.1,5.9v16.3c0,0.5,0.1,0.9,0.3,1.2c0.2,0.3,0.6,0.4,1.3,0.4c0.2,0,0.4,0,0.7,0c0.3,0,0.5-0.1,0.8-0.1v3.5
		c-0.7,0.2-1.3,0.3-1.7,0.4c-0.4,0.1-0.9,0.1-1.6,0.1c-1.6,0-2.8-0.6-3.6-1.7c-0.4-0.6-0.7-1.5-0.8-2.6c-1,1.3-2.4,2.4-4.2,3.3
		c-1.8,0.9-3.8,1.4-6,1.4c-2.6,0-4.8-0.8-6.4-2.4c-1.7-1.6-2.5-3.6-2.5-6c0-2.6,0.8-4.7,2.5-6.1c1.6-1.4,3.8-2.3,6.4-2.7
		L1972.5,930.1z M1962.5,943c1,0.8,2.2,1.2,3.6,1.2c1.7,0,3.3-0.4,4.9-1.2c2.6-1.3,4-3.4,4-6.3v-3.8c-0.6,0.4-1.3,0.7-2.2,0.9
		s-1.8,0.4-2.7,0.5l-2.9,0.4c-1.7,0.2-3,0.6-3.9,1.1c-1.5,0.8-2.2,2.1-2.2,4C1961,941.1,1961.5,942.2,1962.5,943z"/>
	<path d="M1987.5,918.9h4.5v4c1.3-1.7,2.8-2.8,4.3-3.6c1.5-0.7,3.2-1.1,5-1.1c4,0,6.7,1.4,8.1,4.2c0.8,1.5,1.2,3.7,1.2,6.6v18.2
		h-4.8v-17.8c0-1.7-0.3-3.1-0.8-4.2c-0.8-1.8-2.4-2.6-4.6-2.6c-1.1,0-2.1,0.1-2.8,0.3c-1.3,0.4-2.4,1.2-3.4,2.3
		c-0.8,0.9-1.3,1.9-1.5,2.9c-0.2,1-0.4,2.4-0.4,4.3v14.8h-4.8V918.9z"/>
	<path d="M2032.7,930.1c1.1-0.1,1.8-0.6,2.2-1.4c0.2-0.4,0.3-1,0.3-1.8c0-1.6-0.6-2.8-1.7-3.5c-1.2-0.7-2.8-1.1-4.9-1.1
		c-2.5,0-4.2,0.7-5.3,2c-0.6,0.7-1,1.9-1.1,3.3h-4.4c0.1-3.5,1.2-5.9,3.4-7.3c2.2-1.4,4.7-2.1,7.6-2.1c3.3,0,6,0.6,8.1,1.9
		c2.1,1.3,3.1,3.2,3.1,5.9v16.3c0,0.5,0.1,0.9,0.3,1.2s0.6,0.4,1.3,0.4c0.2,0,0.4,0,0.7,0c0.3,0,0.5-0.1,0.8-0.1v3.5
		c-0.7,0.2-1.3,0.3-1.7,0.4c-0.4,0.1-0.9,0.1-1.6,0.1c-1.6,0-2.8-0.6-3.6-1.7c-0.4-0.6-0.7-1.5-0.8-2.6c-1,1.3-2.4,2.4-4.2,3.3
		c-1.8,0.9-3.8,1.4-6,1.4c-2.6,0-4.8-0.8-6.4-2.4c-1.7-1.6-2.5-3.6-2.5-6c0-2.6,0.8-4.7,2.5-6.1c1.6-1.4,3.8-2.3,6.4-2.7
		L2032.7,930.1z M2022.7,943c1,0.8,2.2,1.2,3.6,1.2c1.7,0,3.3-0.4,4.9-1.2c2.6-1.3,4-3.4,4-6.3v-3.8c-0.6,0.4-1.3,0.7-2.2,0.9
		s-1.8,0.4-2.7,0.5l-2.9,0.4c-1.7,0.2-3,0.6-3.9,1.1c-1.5,0.8-2.2,2.1-2.2,4C2021.2,941.1,2021.7,942.2,2022.7,943z"/>
	<path d="M1725,975v4.1c-1.2,1.2-2.8,3.2-4.8,6.2c-2,2.9-3.8,6.1-5.4,9.5c-1.5,3.3-2.7,6.3-3.5,9c-0.5,1.7-1.2,4.6-2,8.4h-5.3
		c1.2-7.2,3.8-14.4,7.9-21.6c2.4-4.2,4.9-7.8,7.6-10.9h-20.9V975H1725z"/>
	<path d="M1733.5,1002.5c0.3,2.7,1.6,4.6,3.8,5.6c1.1,0.5,2.4,0.8,3.9,0.8c2.8,0,4.9-0.9,6.3-2.7c1.4-1.8,2-3.8,2-6
		c0-2.6-0.8-4.7-2.4-6.1c-1.6-1.4-3.5-2.2-5.8-2.2c-1.6,0-3,0.3-4.2,1c-1.2,0.6-2.2,1.5-3,2.6l-4.1-0.2l2.9-20.4h19.7v4.6h-16.1
		l-1.6,10.5c0.9-0.7,1.7-1.2,2.5-1.5c1.4-0.6,3-0.9,4.9-0.9c3.5,0,6.4,1.1,8.8,3.4c2.4,2.2,3.6,5.1,3.6,8.5c0,3.6-1.1,6.7-3.3,9.5
		c-2.2,2.7-5.7,4.1-10.6,4.1c-3.1,0-5.8-0.9-8.2-2.6c-2.4-1.7-3.7-4.4-4-8H1733.5z"/>
	<path d="M1774.4,978.2c1.8,1.8,2.7,4,2.7,6.5c0,2.5-0.9,4.7-2.7,6.5s-4,2.7-6.5,2.7c-2.5,0-4.7-0.9-6.5-2.7s-2.7-4-2.7-6.5
		c0-2.5,0.9-4.7,2.7-6.5s4-2.7,6.5-2.7C1770.4,975.5,1772.6,976.4,1774.4,978.2z M1771.7,988.6c1.1-1.1,1.6-2.3,1.6-3.8
		c0-1.5-0.5-2.8-1.6-3.8s-2.4-1.6-3.9-1.6c-1.5,0-2.8,0.5-3.8,1.6c-1.1,1.1-1.6,2.3-1.6,3.9c0,1.5,0.5,2.8,1.6,3.8
		c1.1,1.1,2.3,1.6,3.8,1.6C1769.4,990.2,1770.6,989.6,1771.7,988.6z M1790,974.5h2.9l-21.2,38.7h-2.9L1790,974.5z M1800.3,996.5
		c1.8,1.8,2.7,4,2.7,6.5c0,2.5-0.9,4.7-2.7,6.5s-4,2.7-6.5,2.7c-2.6,0-4.7-0.9-6.5-2.7s-2.7-4-2.7-6.5c0-2.5,0.9-4.7,2.7-6.5
		c1.8-1.8,4-2.7,6.5-2.7C1796.3,993.8,1798.5,994.7,1800.3,996.5z M1797.6,1006.8c1.1-1.1,1.6-2.4,1.6-3.9c0-1.5-0.5-2.8-1.6-3.9
		c-1.1-1.1-2.3-1.6-3.8-1.6c-1.5,0-2.8,0.5-3.9,1.6c-1.1,1.1-1.6,2.4-1.6,3.9c0,1.5,0.5,2.8,1.6,3.9c1.1,1.1,2.4,1.6,3.9,1.6
		C1795.3,1008.4,1796.6,1007.9,1797.6,1006.8z"/>
	<path d="M1827.6,999.7c0.1,2.2,0.6,4,1.5,5.4c1.7,2.6,4.6,3.9,8.9,3.9c1.9,0,3.6-0.3,5.2-0.8c3-1.1,4.5-3,4.5-5.9
		c0-2.1-0.6-3.6-1.9-4.5c-1.3-0.9-3.3-1.6-6.1-2.3l-5.1-1.2c-3.3-0.8-5.7-1.6-7.1-2.6c-2.4-1.6-3.6-4-3.6-7.3c0-3.5,1.2-6.4,3.5-8.6
		c2.3-2.2,5.7-3.4,10-3.4c4,0,7.3,1,10.1,2.9s4.2,5.1,4.2,9.4h-4.9c-0.3-2.1-0.8-3.7-1.6-4.8c-1.5-2-4.1-3-7.8-3c-3,0-5.1,0.7-6.4,2
		s-2,2.8-2,4.5c0,1.9,0.8,3.3,2.3,4.2c1,0.6,3.3,1.3,6.8,2.1l5.3,1.2c2.5,0.6,4.5,1.4,5.9,2.5c2.4,1.8,3.6,4.4,3.6,7.9
		c0,4.3-1.5,7.4-4.6,9.2c-3,1.8-6.6,2.8-10.6,2.8c-4.7,0-8.4-1.2-11.1-3.7c-2.7-2.4-4-5.8-3.9-10H1827.6z"/>
	<path d="M1860.6,976h4.8v7.9h4.5v3.9h-4.5v18.5c0,1,0.3,1.6,1,2c0.4,0.2,1,0.3,1.8,0.3c0.2,0,0.5,0,0.7,0c0.3,0,0.6,0,0.9-0.1v3.8
		c-0.5,0.2-1.1,0.3-1.7,0.3c-0.6,0.1-1.2,0.1-1.9,0.1c-2.2,0-3.7-0.6-4.5-1.7s-1.2-2.6-1.2-4.4v-18.7h-3.8v-3.9h3.8V976z"/>
	<path d="M1874.8,983.9h4.5v4.9c0.4-1,1.3-2.1,2.7-3.5c1.4-1.4,3.1-2,5-2c0.1,0,0.2,0,0.5,0c0.2,0,0.6,0.1,1.1,0.1v5
		c-0.3-0.1-0.5-0.1-0.8-0.1c-0.2,0-0.5,0-0.8,0c-2.4,0-4.2,0.8-5.5,2.3c-1.3,1.5-1.9,3.3-1.9,5.3v16.3h-4.8V983.9z"/>
	<path d="M1907.9,995.1c1.1-0.1,1.8-0.6,2.2-1.4c0.2-0.4,0.3-1,0.3-1.8c0-1.6-0.6-2.8-1.7-3.5c-1.2-0.7-2.8-1.1-4.9-1.1
		c-2.5,0-4.2,0.7-5.3,2c-0.6,0.7-1,1.9-1.1,3.3h-4.4c0.1-3.5,1.2-5.9,3.4-7.3c2.2-1.4,4.7-2.1,7.6-2.1c3.3,0,6,0.6,8.1,1.9
		c2.1,1.3,3.1,3.2,3.1,5.9v16.3c0,0.5,0.1,0.9,0.3,1.2c0.2,0.3,0.6,0.4,1.3,0.4c0.2,0,0.4,0,0.7,0c0.3,0,0.5-0.1,0.8-0.1v3.5
		c-0.7,0.2-1.3,0.3-1.7,0.4c-0.4,0.1-0.9,0.1-1.6,0.1c-1.6,0-2.8-0.6-3.6-1.7c-0.4-0.6-0.7-1.5-0.8-2.6c-1,1.3-2.4,2.4-4.2,3.3
		c-1.8,0.9-3.8,1.4-6,1.4c-2.6,0-4.8-0.8-6.4-2.4c-1.7-1.6-2.5-3.6-2.5-6c0-2.6,0.8-4.7,2.5-6.1c1.6-1.4,3.8-2.3,6.4-2.7
		L1907.9,995.1z M1897.9,1007.9c1,0.8,2.2,1.2,3.6,1.2c1.7,0,3.3-0.4,4.9-1.2c2.6-1.3,4-3.4,4-6.3v-3.8c-0.6,0.4-1.3,0.7-2.2,0.9
		s-1.8,0.4-2.7,0.5l-2.9,0.4c-1.7,0.2-3,0.6-3.9,1.1c-1.5,0.8-2.2,2.1-2.2,4C1896.3,1006,1896.9,1007.1,1897.9,1007.9z"/>
	<path d="M1925,983.9l5.4,22.3l5.5-22.3h5.3l5.5,22.2l5.8-22.2h4.8l-8.2,28.3h-4.9l-5.8-21.9l-5.6,21.9h-4.9l-8.2-28.3H1925z"/>
	<path d="M1961.5,973.2h4.6v14.1c1-1.4,2.3-2.4,3.7-3.1c1.5-0.7,3-1.1,4.7-1.1c3.5,0,6.4,1.2,8.6,3.6c2.2,2.4,3.3,6,3.3,10.7
		c0,4.5-1.1,8.2-3.3,11.2c-2.2,3-5.2,4.4-9,4.4c-2.2,0-4-0.5-5.5-1.6c-0.9-0.6-1.8-1.6-2.8-3v3.6h-4.4V973.2z M1979.7,1005.8
		c1.3-2,1.9-4.7,1.9-8.1c0-3-0.6-5.4-1.9-7.4s-3.2-2.9-5.7-2.9c-2.2,0-4.1,0.8-5.7,2.4s-2.5,4.2-2.5,7.9c0,2.7,0.3,4.8,1,6.5
		c1.3,3.1,3.6,4.7,7,4.7C1976.5,1008.9,1978.4,1007.9,1979.7,1005.8z"/>
	<path d="M2009.5,984.7c1.9,0.9,3.3,2.2,4.3,3.7c0.9,1.4,1.6,3.1,1.9,5c0.3,1.3,0.4,3.4,0.4,6.2h-20.6c0.1,2.9,0.8,5.2,2,6.9
		c1.3,1.7,3.2,2.6,5.8,2.6c2.5,0,4.4-0.8,5.9-2.5c0.8-1,1.4-2.1,1.7-3.3h4.7c-0.1,1-0.5,2.2-1.2,3.5c-0.7,1.3-1.5,2.3-2.3,3.1
		c-1.4,1.4-3.2,2.4-5.3,2.9c-1.1,0.3-2.4,0.4-3.9,0.4c-3.5,0-6.5-1.3-8.9-3.8s-3.6-6.2-3.6-10.8c0-4.5,1.2-8.2,3.7-11.1
		c2.5-2.8,5.7-4.3,9.6-4.3C2005.7,983.3,2007.6,983.7,2009.5,984.7z M2011.2,995.8c-0.2-2.1-0.6-3.7-1.3-4.9
		c-1.3-2.3-3.5-3.4-6.5-3.4c-2.2,0-4,0.8-5.5,2.4c-1.5,1.6-2.2,3.6-2.3,6H2011.2z"/>
	<path d="M2022.2,983.9h4.5v4.9c0.4-1,1.3-2.1,2.7-3.5c1.4-1.4,3.1-2,5-2c0.1,0,0.2,0,0.4,0s0.6,0.1,1.1,0.1v5
		c-0.3-0.1-0.5-0.1-0.8-0.1c-0.2,0-0.5,0-0.8,0c-2.4,0-4.2,0.8-5.5,2.3c-1.3,1.5-1.9,3.3-1.9,5.3v16.3h-4.8V983.9z"/>
	<path d="M2040.2,983.9h4.5v4.9c0.4-1,1.3-2.1,2.7-3.5c1.4-1.4,3.1-2,5-2c0.1,0,0.2,0,0.5,0c0.2,0,0.6,0.1,1.1,0.1v5
		c-0.3-0.1-0.5-0.1-0.8-0.1c-0.2,0-0.5,0-0.8,0c-2.4,0-4.2,0.8-5.5,2.3c-1.3,1.5-1.9,3.3-1.9,5.3v16.3h-4.8V983.9z"/>
	<path d="M2075.8,983.9h5.3c-0.7,1.8-2.2,6-4.5,12.4c-1.7,4.9-3.2,8.8-4.3,11.9c-2.7,7.2-4.7,11.6-5.8,13.2
		c-1.1,1.6-3.1,2.4-5.8,2.4c-0.7,0-1.2,0-1.5-0.1c-0.4-0.1-0.8-0.1-1.3-0.3v-4.3c0.8,0.2,1.4,0.4,1.8,0.4c0.4,0.1,0.7,0.1,1,0.1
		c0.9,0,1.5-0.1,1.9-0.4c0.4-0.3,0.8-0.6,1-1.1c0.1-0.1,0.4-0.9,0.9-2.2c0.5-1.3,0.9-2.3,1.2-2.9l-10.5-29.1h5.4l7.6,23.1
		L2075.8,983.9z"/>
</g>
</svg>
