<?xml version="1.0" encoding="utf-8"?>
<!-- Generator: Adobe Illustrator 22.1.0, SVG Export Plug-In . SVG Version: 6.00 Build 0)  -->
<svg version="1.1" id="Layer_1" xmlns="http://www.w3.org/2000/svg" xmlns:xlink="http://www.w3.org/1999/xlink" x="0px" y="0px"
	 viewBox="0 0 2172 2336" style="enable-background:new 0 0 2172 2336;" xml:space="preserve">
<style type="text/css">
	.st0{fill:#EFEFEF;}
	.st1{fill:#8BBC4E;}
	.st2{fill:#599029;}
	.st3{fill:#994517;}
	.st4{fill:#739C40;}
	.st5{fill:#BED573;}
	.st6{fill:#446F1C;}
	.st7{fill:#793712;}
	.st8{fill:#BEDBFF;}
	.st9{fill:#FFFFFF;}
	.st10{fill:#FFFFFF;fill-opacity:0.466;}
	.st11{opacity:0;}
	.st12{fill:#F5DF3F;}
	.st13{fill:#FFFFFF;fill-opacity:0.585;}
	.st14{fill:url(#SVGID_1_);}
	.st15{fill:#FFFFFF;fill-opacity:0.4898;}
	.st16{opacity:0.5;}
	.st17{fill:url(#SVGID_2_);}
	.st18{fill:#F51B1B;}
	.st19{fill:url(#SVGID_3_);}
	.st20{fill:#3B6620;}
	.st21{fill:#F0A6A6;}
	.st22{fill:#A55325;}
	.st23{fill:#E7CC00;}
	.st24{fill:#F17D23;}
	.st25{fill:url(#SVGID_4_);}
	.st26{fill:url(#SVGID_5_);}
	.st27{fill:url(#SVGID_6_);}
</style>
<g>
	<circle class="st0" cx="1162.6" cy="712.2" r="252"/>
</g>
<g>
	<circle class="st0" cx="1777" cy="1745" r="252"/>
</g>
<g>
	<circle class="st0" cx="548" cy="1745" r="252"/>
</g>
<g id="_255613040_2_">
	<path class="st1" d="M1195.3,147c-5.4-13.4-20.3-18.7-38.5-18c-19.6,0.1-32.9,17.6-36.5,43.7c-6.5,48-15.3,82.9-31.3,107.3
		c-23.2,35.2-25.6,73,2.6,105.8c14.5,16.9,37.1,23.1,68.8,23.7c41.8,0.7,73.9-12.7,89.4-48.3c17.1-39.4,5.7-80.3-21.6-121.7
		C1212.3,215.3,1206.6,175,1195.3,147z"/>
	<path class="st2" d="M1230.3,100h4.9c3.5,5.2,5.6,11,7.2,17.2l-3.6,1.8C1236.7,112.5,1234.1,106.1,1230.3,100z"/>
	<path class="st3" d="M1158.1,147c3.8,0.2,7.5,0.4,11.3,0.5c15.9-26.4,34-49.7,72.7-44.4c-2.7-6.9-5.5-13.9-8.2-20.8
		C1193.3,85.6,1173.4,113.6,1158.1,147z"/>
	<path class="st2" d="M1227.1,117.6c5.3-3.9,8.1-2.4,12.1-3.6c6.2-2.7,8.6-6.6,18.5-8.2c15.8-1.8,21.7,4,26.7,18.2
		c9.9,28.1-3.8,65.1,0.3,91.9c-45.8-12.3-69.1-29.4-70.1-67C1214.1,135.1,1217.7,124.6,1227.1,117.6z"/>
	<path class="st4" d="M1163.7,151.1c-8.5-0.6-12.9-5.6-16.9-11c11.5,6.6,24.3,7.8,38.5,2.9C1180.5,147.1,1176,151.5,1163.7,151.1z"
		/>
	<polygon class="st5" points="1241.5,122.8 1245.6,121.6 1251.4,135 1272,138.4 1253.6,139.1 1260.2,155.6 1278.2,158.2 
		1262.5,161.6 1267.9,182 1257.1,164.4 1246.6,172 1254.9,159.2 1247.8,141.6 1232.9,152.7 1246.2,136.8 	"/>
	<path class="st6" d="M1246.6,172l8.3-12.8l-7.1-17.6l-14.9,11.1l13.3-15.9l-4.7-14l1.4-0.4l-1.9-4.5l-1.7-4c-0.1,0-0.1,0-0.2,0.1
		c-0.7,0.2-1.3,0.3-1.9,0.4c-3.1,0.4-5.7-0.1-10.1,3.2c-9.4,7-13,17.5-12.6,31.3c1.1,37.5,24.2,54.7,69.7,66.9l-16.7-35.4l0.4,1.5
		l-10.7-17.6L1246.6,172z"/>
	<path class="st7" d="M1239.7,97c-5.3-0.5-10.4-0.8-15.1-0.5c-6.2,0.4-11.7,1.8-16.3,3.7c-4.6,1.8-8.3,4-11.9,6.6
		c-3.6,2.6-7.1,5.5-10.8,9.5c-3.4,3.6-6.9,8.1-11,14.3c-0.5,0.7-0.9,1.4-1.4,2.2c-2.4,3.8-4.9,8.3-7.5,13.1c1.5,0.1,3,0.1,4.6,0
		c2.9-4.8,5.9-9.4,9-13.8c12.3-16.9,27.6-29.9,52.2-29.8c1.7,0,3.3,0.1,5,0.2c1.7,0.1,3.5,0.3,5.4,0.6L1239.7,97z"/>
	<path class="st4" d="M1225.6,235.1c1.1,8.9,2.2,18.4,3,29.4c1.3,16.8,2.2,37.1,0.7,54.8c-1.5,17.7-5.5,33-11.1,43.3
		c-5.6,10.4-12.9,15.9-22.5,20s-21.5,7.1-42,9.5c-13.6,1.6-31,3-49.7,4.4c14,8.9,32.7,12.5,56.5,12.9c41.8,0.7,73.9-12.7,89.4-48.3
		c17.1-39.4,5.7-80.3-21.6-121.7C1227.3,238,1226.4,236.6,1225.6,235.1z"/>
</g>
<g transform="matrix(.56618 0 0 .56618 -452.28 21.535)">
	<path class="st8" d="M2660.3,904.6l20.3,611c94.8,66.9,234.9,62.5,336,4.7l46.9-609.5C2906.5,851.1,2780.1,869.6,2660.3,904.6
		L2660.3,904.6z"/>
	<g>
		<path class="st9" d="M2675.7,931.8l34.9,522.3c92.6,39,190.7,41.7,284.4-6.3l53.3-512.2C2909.3,992,2770.7,978.3,2675.7,931.8
			L2675.7,931.8z"/>
		<path class="st9" d="M2689.7,920c99-34.5,250.8-39.8,343.4,3.5C2914.2,976.7,2757.9,958.2,2689.7,920z"/>
	</g>
	<path class="st10" d="M2674.2,913.1c-0.6,0.7,76.7,40.6,176.7,42.1c104.6,1.5,202.8-34.7,196.8-38.8c0,0-76.5-33.2-170.2-35.1
		S2674.2,913.1,2674.2,913.1L2674.2,913.1z"/>
	<g>
		<path class="st1" d="M2675.7,931.8l34.9,522.3c92.6,39,190.7,41.7,284.4-6.3l53.3-512.2C2909.3,992,2770.7,978.3,2675.7,931.8
			L2675.7,931.8z"/>
		<path class="st1" d="M2689.7,920c99-34.5,250.8-39.8,343.4,3.5C2914.2,976.7,2757.9,958.2,2689.7,920z"/>
	</g>
	<g class="st11">
		<path class="st12" d="M2675.7,931.8l34.9,522.3c92.6,39,190.7,41.7,284.4-6.3l53.3-512.2C2909.3,992,2770.7,978.3,2675.7,931.8
			L2675.7,931.8z"/>
		<path class="st12" d="M2689.7,920c99-34.5,250.8-39.8,343.4,3.5C2914.2,976.7,2757.9,958.2,2689.7,920z"/>
	</g>
	<path class="st13" d="M2688.6,922.3c14.2,6.4,28.3,12.2,42,17l12.1,606.2c-9.9-3.3-19.7-7.1-29.1-12.5L2688.6,922.3L2688.6,922.3z"
		/>
	
		<linearGradient id="SVGID_1_" gradientUnits="userSpaceOnUse" x1="6001.748" y1="3023.5293" x2="5871.248" y2="3039.3093" gradientTransform="matrix(0.5662 0 0 -0.5662 -350.3724 2953.3276)">
		<stop  offset="0" style="stop-color:#FFFFFF;stop-opacity:0.7922"/>
		<stop  offset="1" style="stop-color:#FFFFFF;stop-opacity:0"/>
	</linearGradient>
	<path class="st14" d="M2982.6,943.5c24.3-6.9,46.9-14.2,69.7-24.8l-63.7,613.7c-23.6,10.4-36.2,14.3-52.1,18.9L2982.6,943.5
		L2982.6,943.5z"/>
	<path class="st15" d="M2928.7,1552.6l45.6-606.9l-16.5,4.5l-42.3,605.7L2928.7,1552.6L2928.7,1552.6z"/>
</g>
<g>
	<g transform="matrix(.56618 0 0 .56618 -452.28 21.535)">
		<path class="st8" d="M2120.7,1819.3l20.3,611c94.8,66.9,234.9,62.5,336,4.7l46.9-609.5C2366.9,1765.7,2240.6,1784.2,2120.7,1819.3
			L2120.7,1819.3z"/>
		<g>
			<path class="st9" d="M2136.1,1846.4l34.9,522.3c92.6,39,190.7,41.7,284.4-6.3l53.3-512.2
				C2369.7,1906.6,2231.2,1893,2136.1,1846.4L2136.1,1846.4z"/>
			<path class="st9" d="M2150.1,1834.7c99-34.5,250.8-39.8,343.4,3.5C2374.7,1891.3,2218.3,1872.8,2150.1,1834.7z"/>
		</g>
		<path class="st10" d="M2134.6,1827.7c-0.6,0.7,76.7,40.6,176.7,42.1c104.6,1.5,202.8-34.7,196.8-38.8c0,0-76.5-33.2-170.2-35.1
			S2134.6,1827.7,2134.6,1827.7L2134.6,1827.7z"/>
		<g>
			<path class="st1" d="M2136.1,1846.4l34.9,522.3c92.6,39,190.7,41.7,284.4-6.3l53.3-512.2
				C2369.7,1906.6,2231.2,1893,2136.1,1846.4L2136.1,1846.4z"/>
			<path class="st1" d="M2150.1,1834.7c99-34.5,250.8-39.8,343.4,3.5C2374.7,1891.3,2218.3,1872.8,2150.1,1834.7z"/>
		</g>
		<g class="st16">
			<path class="st12" d="M2136.1,1846.4l34.9,522.3c92.6,39,190.7,41.7,284.4-6.3l53.3-512.2
				C2369.7,1906.6,2231.2,1893,2136.1,1846.4L2136.1,1846.4z"/>
			<path class="st12" d="M2150.1,1834.7c99-34.5,250.8-39.8,343.4,3.5C2374.7,1891.3,2218.3,1872.8,2150.1,1834.7z"/>
		</g>
		<path class="st13" d="M2149,1836.9c14.2,6.4,28.3,12.2,42,17l12.1,606.2c-9.9-3.3-19.7-7.1-29.1-12.5L2149,1836.9L2149,1836.9z"/>
		
			<linearGradient id="SVGID_2_" gradientUnits="userSpaceOnUse" x1="5048.7275" y1="1408.1261" x2="4918.2275" y2="1423.9061" gradientTransform="matrix(0.5662 0 0 -0.5662 -350.3724 2953.3276)">
			<stop  offset="0" style="stop-color:#FFFFFF;stop-opacity:0.7922"/>
			<stop  offset="1" style="stop-color:#FFFFFF;stop-opacity:0"/>
		</linearGradient>
		<path class="st17" d="M2443,1858.1c24.3-6.9,46.9-14.2,69.7-24.8l-63.7,613.7c-23.6,10.4-36.2,14.3-52.1,18.9L2443,1858.1
			L2443,1858.1z"/>
		<path class="st15" d="M2389.1,2467.2l45.6-606.9l-16.5,4.5l-42.3,605.7L2389.1,2467.2L2389.1,2467.2z"/>
	</g>
	<g transform="matrix(.56618 0 0 .56618 -452.28 21.535)">
		<path class="st8" d="M3199.9,1819.3l20.3,611c94.8,66.9,234.9,62.5,336,4.7l46.9-609.5C3446.1,1765.7,3319.7,1784.2,3199.9,1819.3
			L3199.9,1819.3z"/>
		<g>
			<path class="st9" d="M3215.3,1846.4l34.9,522.3c92.6,39,190.7,41.7,284.4-6.3l53.3-512.2
				C3448.9,1906.6,3310.3,1893,3215.3,1846.4L3215.3,1846.4z"/>
			<path class="st9" d="M3229.3,1834.7c99-34.5,250.8-39.8,343.4,3.5C3453.8,1891.3,3297.5,1872.8,3229.3,1834.7z"/>
		</g>
		<path class="st10" d="M3213.8,1827.7c-0.6,0.7,76.7,40.6,176.7,42.1c104.6,1.5,202.8-34.7,196.8-38.8c0,0-76.5-33.2-170.2-35.1
			S3213.8,1827.7,3213.8,1827.7L3213.8,1827.7z"/>
		<g>
			<path class="st1" d="M3215.3,1846.4l34.9,522.3c92.6,39,190.7,41.7,284.4-6.3l53.3-512.2
				C3448.9,1906.6,3310.3,1893,3215.3,1846.4L3215.3,1846.4z"/>
			<path class="st1" d="M3229.3,1834.7c99-34.5,250.8-39.8,343.4,3.5C3453.8,1891.3,3297.5,1872.8,3229.3,1834.7z"/>
		</g>
		<g class="st16">
			<path class="st18" d="M3215.3,1846.4l34.9,522.3c92.6,39,190.7,41.7,284.4-6.3l53.3-512.2
				C3448.9,1906.6,3310.3,1893,3215.3,1846.4L3215.3,1846.4z"/>
			<path class="st18" d="M3229.3,1834.7c99-34.5,250.8-39.8,343.4,3.5C3453.8,1891.3,3297.5,1872.8,3229.3,1834.7z"/>
		</g>
		<path class="st13" d="M3228.2,1836.9c14.2,6.4,28.3,12.2,42,17l12.1,606.2c-9.9-3.3-19.7-7.1-29.1-12.5L3228.2,1836.9
			L3228.2,1836.9z"/>
		
			<linearGradient id="SVGID_3_" gradientUnits="userSpaceOnUse" x1="6954.7681" y1="1408.1261" x2="6824.2681" y2="1423.9061" gradientTransform="matrix(0.5662 0 0 -0.5662 -350.3724 2953.3276)">
			<stop  offset="0" style="stop-color:#FFFFFF;stop-opacity:0.7922"/>
			<stop  offset="1" style="stop-color:#FFFFFF;stop-opacity:0"/>
		</linearGradient>
		<path class="st19" d="M3522.2,1858.1c24.3-6.9,46.9-14.2,69.7-24.8l-63.7,613.7c-23.6,10.4-36.2,14.3-52.1,18.9L3522.2,1858.1
			L3522.2,1858.1z"/>
		<path class="st15" d="M3468.3,2467.2l45.6-606.9l-16.5,4.5l-42.3,605.7L3468.3,2467.2L3468.3,2467.2z"/>
	</g>
</g>
<g id="_566188592_4_">
	<path class="st20" d="M1979.3,2064.6c-8.7-7.6-17-11.3-27.9-13c6.8-4.1,14.3-5.9,22.9-3.7c-4-9.8-9.9-18.1-18.1-24.7
		c10.8,0.5,19.2,3.6,23.7,10.8c3.2-14.5,9.7-25.5,20-32.6c-2.9,11.1-2.7,21.7-0.3,32.1c13.8-11.3,28.1-18.5,42.9-21.8
		c-4.1,5.5-6.8,11.4-5.3,19c14.1-6,27.9-8.4,41.3-5.2c-7.6,5.1-11.4,10.9-11.3,17.3c15.1,1.2,23.5,8.5,29.5,18.2
		c-13.4-3.3-17.7-1.6-18.4,2.1c11,1.5,17.9,6.3,21.8,13.4c-13.8-1.8-28.5,0.1-43.7,3.9L1979.3,2064.6z"/>
	<path class="st2" d="M2006.1,2066.8c-4.3-0.3-8.6-0.7-12.9-1.1c-7.4-11.7-11-22.6-5.8-31.8
		C1991.9,2045.3,1998.3,2056.2,2006.1,2066.8z"/>
	<path class="st1" d="M2025.3,2068.6c-3.3,0.2-6.7,0.3-10,0.5c-4.7-16-2.3-28.6,9.5-36.5C2022.7,2044.6,2022.8,2056.6,2025.3,2068.6
		z"/>
	<path class="st2" d="M2050,2077.6c-6.1-2.3-12.3-4.6-18.4-6.8c4.2-16.6,11.3-28.8,23.9-32.1c-2.5,4.7-3.7,9.5-2.4,14.2
		c8.3-0.4,13.6,0.5,15.5,2.9C2059.9,2060.1,2053.9,2067.6,2050,2077.6z"/>
	<path class="st18" d="M1930.7,2091.5c8.6-14.9,21.6-28.6,49.4-30c32.2-1.6,59.2,6.7,81.5,18.4c28,14.6,31.7,32.4,28.4,51.5
		c-7.8,44.9-35.8,71.9-70.5,96.8c-16.1,11.5-31.1,19.5-48.9,17.9c-21.7-2-31.2-17.5-36.8-37.3
		C1919.8,2159.2,1915.2,2118.2,1930.7,2091.5z"/>
	<path class="st21" d="M2055.4,2101.6c-3.3-0.5-3,11.7,3.4,3.8C2060.7,2103,2055.5,2101.6,2055.4,2101.6z"/>
	<path class="st21" d="M2011.6,2087.4c-3.3-0.5-3,11.7,3.5,3.8C2017,2088.8,2011.7,2087.4,2011.6,2087.4z"/>
	<path class="st21" d="M1985.9,2119c-3.3-0.5-3,11.7,3.4,3.8C1991.3,2120.5,1986,2119,1985.9,2119z"/>
	<path class="st21" d="M2028.8,2142.4c3.3-0.3,0.3-12.1-4.2-2.9C2023.3,2142.1,2028.7,2142.4,2028.8,2142.4z"/>
	<path class="st21" d="M2039.3,2189.6c3.4-0.3,0.3-12.1-4.2-2.9C2033.7,2189.3,2039.2,2189.6,2039.3,2189.6z"/>
	<path class="st21" d="M1955.7,2178.6c3.4-0.3,0.3-12.1-4.2-2.9C1950.2,2178.3,1955.7,2178.6,1955.7,2178.6z"/>
	<path class="st21" d="M2033.1,2090.8c-9.5,4.2,2,14.7,2.9,1.2C2036.1,2090.2,2034.2,2090.3,2033.1,2090.8z"/>
	<path class="st21" d="M2007.3,2122.4c-9.5,4.2,2,14.7,2.9,1.2C2010.3,2121.9,2008.5,2121.9,2007.3,2122.4z"/>
	<path class="st21" d="M1989.3,2076.6c-9.5,4.2,2,14.8,2.9,1.2C1992.3,2076,1990.4,2076.1,1989.3,2076.6z"/>
	<path class="st21" d="M1963.6,2108.2c-9.5,4.2,2,14.7,2.9,1.2C1966.6,2107.7,1964.7,2107.7,1963.6,2108.2z"/>
	<path class="st21" d="M2012.1,2182.4c-9.5,4.2,2,14.8,2.9,1.2C2015.1,2181.9,2013.3,2181.9,2012.1,2182.4z"/>
	<path class="st21" d="M1958.2,2078.2c-9.5,4.2,2,14.7,2.9,1.2C1961.3,2077.6,1959.4,2077.7,1958.2,2078.2z"/>
	<path class="st21" d="M2053,2148.1c8.3-6.2-5.2-14-3.1-0.5C2050.2,2149.3,2052,2148.8,2053,2148.1z"/>
	<path class="st21" d="M1999.4,2180.1c8.3-6.2-5.2-14-3.1-0.5C1996.6,2181.2,1998.4,2180.8,1999.4,2180.1z"/>
	<path class="st21" d="M1983.6,2184.7c8.3-6.2-5.1-14-3.1-0.5C1980.8,2185.9,1982.6,2185.5,1983.6,2184.7z"/>
	<path class="st21" d="M2038.2,2109.6c-12.2,5.4,2.4,13.9,2,1.8C2040.1,2110.8,2038.5,2109.4,2038.2,2109.6z"/>
	<path class="st21" d="M1965.1,2145.8c-12.2,5.3,2.5,13.9,2,1.8C1967.1,2147,1965.4,2145.6,1965.1,2145.8z"/>
	<path class="st21" d="M2012.5,2141.2c-12.2,5.3,2.4,13.9,2,1.8C2014.4,2142.4,2012.8,2141.1,2012.5,2141.2z"/>
	<path class="st21" d="M2037.6,2150.3c-12.2,5.4,2.4,13.9,2,1.8C2039.6,2151.5,2038,2150.2,2037.6,2150.3z"/>
	<path class="st21" d="M1964.6,2186.5c-12.2,5.3,2.5,13.9,2,1.8C1966.5,2187.7,1964.9,2186.4,1964.6,2186.5z"/>
	<path class="st21" d="M1994.4,2095.4c-12.2,5.4,2.5,13.9,2,1.9C1996.4,2096.6,1994.7,2095.2,1994.4,2095.4z"/>
	<path class="st21" d="M1968.7,2127c-12.2,5.4,2.5,13.9,2,1.8C1970.7,2128.2,1969,2126.9,1968.7,2127z"/>
	<path class="st21" d="M2007,2211.7c-12.2,5.3,2.5,13.9,2,1.8C2009,2213,2007.3,2211.6,2007,2211.7z"/>
	<path class="st21" d="M2043.9,2130.8c10.7-7.9-5.4-13-2.4-1.4C2041.7,2130.1,2043.6,2131,2043.9,2130.8z"/>
	<path class="st21" d="M1970.8,2167c10.7-7.9-5.4-13-2.3-1.4C1968.6,2166.3,1970.5,2167.2,1970.8,2167z"/>
	<path class="st21" d="M2015.8,2107.3c-10.6,5.7,3.2,13.6,3.5,2.5C2019.4,2108.3,2016.7,2106.9,2015.8,2107.3z"/>
	<path class="st21" d="M1990.1,2139c-10.6,5.7,3.2,13.6,3.5,2.5C1993.7,2140,1991,2138.5,1990.1,2139z"/>
	<path class="st21" d="M2027.4,2168.6c-10.6,5.7,3.2,13.6,3.5,2.5C2031,2169.6,2028.2,2168.1,2027.4,2168.6z"/>
	<path class="st21" d="M2008.5,2158.7c-10.5,5.7,3.2,13.6,3.5,2.5C2012.1,2159.7,2009.4,2158.2,2008.5,2158.7z"/>
	<path class="st21" d="M2023.8,2194c-10.6,5.7,3.2,13.6,3.5,2.5C2027.4,2194.9,2024.6,2193.5,2023.8,2194z"/>
	<path class="st21" d="M2050.9,2165c-10.6,5.7,3.2,13.6,3.5,2.5C2054.5,2166,2051.7,2164.6,2050.9,2165z"/>
	<path class="st21" d="M1977.8,2201.2c-10.5,5.7,3.2,13.6,3.5,2.5C1981.4,2202.2,1978.6,2200.8,1977.8,2201.2z"/>
	<path class="st21" d="M1955,2212c-10.5,5.7,3.2,13.6,3.6,2.5C1958.6,2213,1955.8,2211.6,1955,2212z"/>
	<path class="st21" d="M1972,2093.2c-10.5,5.7,3.2,13.6,3.5,2.5C1975.6,2094.1,1972.9,2092.7,1972,2093.2z"/>
	<path class="st21" d="M1946.3,2124.8c-10.5,5.7,3.2,13.6,3.5,2.5C1949.9,2125.8,1947.2,2124.3,1946.3,2124.8z"/>
	<path class="st21" d="M2000.9,2193.1c-10.5,5.7,3.2,13.6,3.6,2.5C2004.5,2194.2,2001.8,2192.7,2000.9,2193.1z"/>
	<path class="st21" d="M1945.9,2150.3c-10.6,5.7,3.2,13.6,3.5,2.5C1949.5,2151.3,1946.8,2149.8,1945.9,2150.3z"/>
	<path class="st21" d="M1944.9,2101.1c-10.5,5.7,3.2,13.6,3.5,2.5C1948.5,2102.1,1945.7,2100.6,1944.9,2101.1z"/>
	<path class="st21" d="M1979.6,2225c-10.6,5.7,3.2,13.6,3.5,2.5C1983.2,2226,1980.4,2224.5,1979.6,2225z"/>
	<path class="st21" d="M2066.2,2128.2c9.1-7.8-6.1-12.6-4-1.7C2062.4,2128,2065.4,2128.8,2066.2,2128.2z"/>
	<path class="st21" d="M1993.1,2164.3c9-7.8-6.1-12.5-4-1.7C1989.4,2164.2,1992.4,2165,1993.1,2164.3z"/>
</g>
<g id="_699425632_8_">
	<path class="st12" d="M374.9,1972.9c1.2,9.7,13.2,44.7,8.5,53.5c-74.6,146.2-173.2,175.2-272.9,167.4c-7.4-2.1-13.1-6.1-20.5-9.8
		c-2,6.8-4.6,13.6-6.6,20.3c9.5,6,13.9,8.7,21.3,11.3c179.8,149.5,351.9-64.9,303.3-187.4c1.7-7.5-9-46.2-11.3-55.5
		C390.7,1969.6,380.5,1971.6,374.9,1972.9z"/>
	<path class="st22" d="M94,2188.6l-4.7-2.7c-1.9,6.2-4.3,12.3-6,18.5c7.5,4.7,11.8,7.4,16.9,9.6c0.7-1.7,1.3-3.2,1.8-4.6
		c1.5-3.7,2.4-6.2,2.7-8.4c0.4-2.2,0.1-4-0.6-5.3c-0.7-1.3-1.9-2.2-3.6-3.4C98.7,2191.2,96.3,2189.9,94,2188.6z"/>
	<path class="st23" d="M312.9,2184.1c52.6-30.7,75-92.2,93.8-155.9l-22.4-5c-0.2,1.3-0.5,2.4-0.9,3.2
		c-74.6,146.2-173.2,175.2-272.9,167.4c-7.4-2.1-13.1-6.1-20.5-9.8c-0.2,0.6-0.4,1.3-0.6,1.9l4.7,2.7c2.4,1.3,4.7,2.6,6.5,3.7
		c1.8,1.1,2.9,2,3.6,3.4c0.7,1.4,1,3.2,0.6,5.3c-0.2,1.3-0.6,2.8-1.3,4.5C174,2215.9,245.4,2223.5,312.9,2184.1z"/>
	<path class="st24" d="M114.6,2211.5c2.1-2.3,7.8,0.8,10.8,1.5c0.4,0.1,0.4,3.1-5.3,1C118,2213.1,114.5,2211.6,114.6,2211.5z"/>
	<path class="st24" d="M194.5,2222.2c1.3-2.8,7.7-1.4,10.8-1.6c0.4,0,1.3,2.9-4.9,2.4C198.2,2222.9,194.5,2222.4,194.5,2222.2z"/>
	<path class="st24" d="M147,2214c-2.8,1.5-12.9-6-13.4,0.1c-0.1,1.6,10.2,3.1,11.9,3C145.5,2217.1,148.3,2213.3,147,2214z"/>
	<path class="st24" d="M226.3,2215.5c-2.3,2.2-14.1-2.1-12.8,3.9c0.3,1.5,10.7,0.1,12.2-0.4C225.7,2218.9,227.4,2214.5,226.3,2215.5
		z"/>
	<path class="st24" d="M104.9,2209.4c-2.3,1.2-1.7,4.4,1.9,5.8c3,1.2,7.5,7.3,8.6,3.2c0.4-1.4-3.9-6.9-6.2-7.8
		C108.6,2210.5,105,2209.4,104.9,2209.4z"/>
	<path class="st24" d="M120.8,2218.2c4.3,2,10.1,1.2,15,3c1.2,0.4,6.6,0.5,5,3.1c-1.5,2.3-21.2-3.2-20.3-5.2
		C120.6,2218.9,120.8,2218.2,120.8,2218.2z"/>
	<path class="st24" d="M190.9,2248.7c4.7,0.8,10.1-1.4,15.2-0.9c1.2,0.1,6.5-1.2,5.6,1.7c-0.8,2.6-21.3,2.2-20.9,0.1
		C190.8,2249.4,190.9,2248.7,190.9,2248.7z"/>
	<path class="st24" d="M202.3,2227c4.7,0.7,10-1.7,15.2-1.3c1.3,0.1,6.5-1.4,5.7,1.6c-0.7,2.6-21.2,2.8-20.9,0.7
		C202.3,2227.6,202.4,2227,202.3,2227z"/>
	<path class="st24" d="M242.7,2251c4.7,0.7,10-1.7,15.2-1.3c1.3,0.1,6.5-1.4,5.7,1.6c-0.7,2.7-21.3,2.9-20.9,0.7
		C242.7,2251.7,242.7,2251,242.7,2251z"/>
	<path class="st24" d="M288.4,2218c4.4-1.8,7.7-6.6,12.3-9c1.1-0.6,4.9-4.6,5.7-1.6c0.7,2.7-16.8,13.4-17.6,11.4
		C288.7,2218.6,288.4,2218,288.4,2218z"/>
	<path class="st24" d="M123.9,2225.6c0.4-0.5,15.2,5.7,19.5,6c2,0.1,5.4,1.3,4.3,4.2c-1.7,4.6-10.4-0.5-13.3-2.2
		c-3-1.8-3.3-2.8-7.3-4.2c-1.2-0.5-3.6-1.9-3.2-3.3L123.9,2225.6z"/>
	<path class="st24" d="M207.4,2233.2c0.2-0.6,16.2,1.2,20.4,0.2c2-0.4,5.6-0.3,5.4,2.8c-0.3,4.9-10.2,2.5-13.3,1.6
		c-3.4-0.9-4-1.8-8.2-2c-1.3-0.1-3.9-0.8-4-2.2L207.4,2233.2z"/>
	<path class="st24" d="M222.3,2258.1c0.2-0.6,16.2,1.2,20.4,0.2c1.9-0.5,5.5-0.2,5.3,2.8c-0.3,4.9-10.2,2.5-13.3,1.6
		c-3.4-0.9-4-1.8-8.2-2c-1.3-0.1-3.9-0.8-3.9-2.2L222.3,2258.1z"/>
	<path class="st24" d="M298.3,2224.4c-0.1-0.6,14.5-7.3,17.6-10.3c1.4-1.4,4.6-3.1,6-0.4c2.2,4.4-7.5,7.3-10.6,8.3
		c-3.3,1-4.3,0.6-8.1,2.5c-1.1,0.6-3.8,1.4-4.6,0.1L298.3,2224.4z"/>
	<path class="st24" d="M165.4,2216.5c-0.9-0.3-11.8-2.3-12.4-1.9c-5.6,3.8,2.7,7.6,6.4,7.4c2.8-0.2,9.1,1.6,9.2-2.2
		C168.7,2218.8,166.3,2216.8,165.4,2216.5z"/>
	<path class="st24" d="M244.7,2212.7c-1-0.1-12,1.1-12.5,1.7c-4.3,5.2,4.7,6.5,8.3,5.2c2.6-0.9,9.1-1,8.2-4.6
		C248.4,2214,245.7,2212.8,244.7,2212.7z"/>
	<path class="st24" d="M319.1,2189.5c-0.8,0.4-9.7,7.1-9.8,7.9c-1,6.7,7.4,3.2,9.8,0.2c1.8-2.2,7.3-5.6,4.7-8.2
		C323.1,2188.6,320,2189,319.1,2189.5z"/>
	<path class="st24" d="M351.5,2157.5c-0.8,0.4-9.7,7.1-9.8,7.9c-1,6.7,7.4,3.1,9.8,0.2c1.8-2.2,7.3-5.6,4.7-8.2
		C355.4,2156.7,352.4,2157.1,351.5,2157.5z"/>
	<path class="st24" d="M155.4,2237.1c1.8,1.7,26.6,10.5,29.9,10.9c1.8,0.2-0.8,2.9-3.8,3.2c-3.3,0.3-28.7-3.1-25.9-9.7
		C155.9,2240.4,156.1,2237.8,155.4,2237.1z"/>
	<path class="st24" d="M240.8,2235.3c2.3,1.2,28.5,2.6,31.7,2c1.7-0.3,0.1,3-2.8,4.1c-3,1.3-28.4,5.1-27.6-2.1
		C242.3,2238.3,241.8,2235.8,240.8,2235.3z"/>
	<path class="st24" d="M327.5,2210.8c2.5-0.2,25.8-12.5,28.2-14.6c1.4-1.2,1.6,2.5-0.3,5c-2,2.6-21.7,19-24.7,12.5
		C330.3,2212.6,328.5,2210.7,327.5,2210.8z"/>
	<path class="st24" d="M360.9,2190.9c2.1-1.4,16.4-23.5,17.5-26.5c0.6-1.7,2.6,1.4,2.2,4.5c-0.4,3.3-9.7,27.2-15.5,23
		C364.2,2191.1,361.8,2190.3,360.9,2190.9z"/>
	<path class="st24" d="M273,2204.9c2.5,0.1,27-9.6,29.7-11.4c1.5-1,1.3,2.7-0.8,4.9c-2.3,2.4-23.7,16.5-26,9.7
		C275.6,2207,274.1,2205,273,2204.9z"/>
	<path class="st24" d="M376.5,2122.2c1.9-1.7,12.9-25.6,13.6-28.7c0.4-1.7,2.8,1,2.8,4.1c0,3.3-5.8,28.3-12.1,24.9
		C379.9,2121.9,377.3,2121.4,376.5,2122.2z"/>
	<path class="st24" d="M400.2,2106c1.3-2.2,4.8-28.3,4.5-31.5c-0.2-1.8,2.9,0.1,3.9,3.1c1,3.1,2.8,28.7-4.2,27.4
		C403.3,2104.8,400.8,2105.1,400.2,2106z"/>
	<path class="st24" d="M149.6,2225.1c6.4,1.8,12,3.8,18.5,5.1c6.4,1.3,7.3,8.1-0.1,5.5c-1.3-0.4-20.8-5.9-19.6-8.8
		C148.8,2226,148.6,2224.8,149.6,2225.1z"/>
	<path class="st24" d="M213.9,2242.8c6.4,1.8,12,3.8,18.5,5.1c6.4,1.3,7.3,8.1-0.1,5.5c-1.3-0.4-20.8-6-19.6-8.8
		C213.1,2243.7,212.9,2242.5,213.9,2242.8z"/>
	<path class="st24" d="M231.9,2225.5c6.6-0.1,12.6,0.3,19.1-0.3c6.5-0.6,9.2,5.7,1.5,5.3c-1.4-0.1-21.6,0.1-21.3-3
		C231.4,2226.6,230.9,2225.5,231.9,2225.5z"/>
	<path class="st24" d="M314.8,2206.9c5.7-3.5,11-6.2,16.3-10.1c5.3-3.9,10.9,0.1,4,3.8c-1.2,0.6-18.4,11.3-19.7,8.4
		C314.9,2208.2,313.9,2207.4,314.8,2206.9z"/>
	<path class="st24" d="M396.8,2086.4c0.4-6.6,1.3-12.6,1.2-19.1c-0.1-6.5,6.4-8.8,5.4-1.1c-0.2,1.4-1.5,21.5-4.6,21
		C397.9,2087,396.7,2087.4,396.8,2086.4z"/>
	<path class="st24" d="M407.2,2064.1c-0.6-6.6-0.7-12.6-1.9-19.1c-1.1-6.4,4.9-9.7,5.2-1.9c0,1.4,1.9,21.5-1.2,21.4
		C408.3,2064.5,407.3,2065.1,407.2,2064.1z"/>
	<path class="st24" d="M262.8,2256.6c6.1-2.7,11.7-4.7,17.5-7.8c5.7-3.1,10.8,1.6,3.5,4.3c-1.3,0.5-19.8,8.6-20.7,5.6
		C262.7,2257.8,261.8,2257,262.8,2256.6z"/>
	<path class="st24" d="M313.9,2236.6c4.8-4.6,9.4-8.4,13.7-13.3c4.3-4.9,10.6-2.2,4.7,2.9c-1,0.9-15.6,14.9-17.5,12.4
		C314.3,2237.8,313.2,2237.3,313.9,2236.6z"/>
	<path class="st24" d="M193.1,2218.5c-0.4,0.1-10.5-1.7-15-1c-12.8,2,7,9.5,14.2,0.9C192.7,2218,192.9,2218.6,193.1,2218.5z"/>
	<path class="st24" d="M271.8,2206.9c-0.4,0.3-10.6,1.3-14.7,3.2c-11.7,5.5,9.4,7.1,13.9-3.1C271.2,2206.5,271.7,2207,271.8,2206.9z
		"/>
	<path class="st24" d="M293.8,2234.3c-0.3,0.3-10.6,1.3-14.7,3.2c-11.7,5.5,9.4,7.1,13.9-3.1
		C293.2,2233.9,293.6,2234.4,293.8,2234.3z"/>
	<path class="st24" d="M307.2,2238.9c-0.4,0.3-10.6,1.3-14.7,3.3c-11.7,5.5,9.4,7.1,13.9-3.1C306.6,2238.5,307.1,2239,307.2,2238.9z
		"/>
	<path class="st24" d="M339.4,2170.4c-0.2,0.4-8.4,6.6-11,10.4c-7.2,10.7,11.7,1.2,10.3-9.8C338.7,2170.4,339.3,2170.6,339.4,2170.4
		z"/>
	<path class="st24" d="M371.7,2138.5c-0.2,0.4-8.4,6.6-11,10.4c-7.2,10.7,11.7,1.2,10.3-9.8C371,2138.5,371.7,2138.7,371.7,2138.5z"
		/>
	<path class="st24" d="M387.5,2122.8c-0.2,0.4-8.4,6.6-10.9,10.3c-7.2,10.8,11.7,1.3,10.3-9.8C386.8,2122.8,387.4,2123,387.5,2122.8
		z"/>
	<path class="st24" d="M397.1,2128.5c-0.2,0.4-8.4,6.6-11,10.4c-7.2,10.8,11.7,1.3,10.3-9.8C396.4,2128.5,397,2128.7,397.1,2128.5z"
		/>
	<path class="st24" d="M178.5,2227.4c0.8-0.4,18.6-2.8,17.9,1c-1.4,7.2-10.8,2.3-16.5,1.9C177.2,2230.1,178.8,2227.3,178.5,2227.4z"
		/>
	<path class="st24" d="M260.3,2219.6c0.7-0.6,17.1-7.9,17.4-4.1c0.6,7.3-9.7,5.2-15.3,6.4C259.7,2222.5,260.6,2219.3,260.3,2219.6z"
		/>
	<path class="st24" d="M295.6,2232.8c0.7-0.6,17.1-7.9,17.4-4.1c0.6,7.3-9.8,5.2-15.3,6.4C295,2235.8,295.9,2232.6,295.6,2232.8z"/>
	<path class="st24" d="M336.1,2187.2c0.3-0.9,10.6-15.6,12.8-12.5c4.3,5.9-5.6,9.5-9.8,13.4C337.1,2190,336.2,2186.9,336.1,2187.2z"
		/>
	<path class="st24" d="M354.5,2172.6c0.3-0.9,10.6-15.6,12.8-12.5c4.3,5.9-5.7,9.5-9.8,13.4C355.5,2175.4,354.6,2172.2,354.5,2172.6
		z"/>
	<path class="st24" d="M368.4,2155.3c0.3-0.9,10.6-15.6,12.8-12.5c4.3,5.9-5.6,9.5-9.8,13.4C369.4,2158.1,368.5,2154.9,368.4,2155.3
		z"/>
	<path class="st24" d="M399.2,2127.5c-0.2-0.9,2.4-18.7,5.8-16.9c6.5,3.3-0.8,11-2.7,16.4C401.4,2129.6,399.2,2127.2,399.2,2127.5z"
		/>
	<path class="st24" d="M179.4,2235.9c0.3,0.1,19.2,1,21,0.9c0.9-0.1,4.7,1.2,1.1,3.9c-3.8,2.9-22.8-3.5-22.7-3.6
		C178.8,2237.1,179.3,2235.9,179.4,2235.9z"/>
	<path class="st24" d="M263.5,2227.4c0.3,0,18.7-4.4,20.4-5c0.8-0.3,4.9-0.2,2.2,3.4c-2.9,3.8-22.8,3.1-22.8,3
		S263.4,2227.4,263.5,2227.4z"/>
	<path class="st24" d="M342.9,2192.3c0.3-0.2,13.8-13.4,14.9-14.8c0.6-0.7,4.1-2.7,3.6,1.8c-0.5,4.8-18,14.4-18,14.3
		C343.3,2193.6,342.8,2192.4,342.9,2192.3z"/>
	<path class="st24" d="M375.2,2160.4c0.3-0.2,13.8-13.4,14.9-14.8c0.6-0.7,4.1-2.7,3.6,1.8c-0.5,4.7-18,14.4-18,14.3
		C375.7,2161.6,375.1,2160.5,375.2,2160.4z"/>
	<path class="st24" d="M391.5,2128.7c0.1-0.3,2.5-19.1,2.6-20.9c0-0.9,1.6-4.7,4-0.8c2.6,4-5.2,22.4-5.3,22.4
		C392.6,2129.4,391.5,2128.8,391.5,2128.7z"/>
	<path class="st24" d="M195.4,2256.2c0.3,0,18.7-4.4,20.4-5c0.8-0.3,4.9-0.2,2.2,3.4c-2.9,3.8-22.8,3.1-22.8,3
		C195.1,2257.5,195.3,2256.2,195.4,2256.2z"/>
	<path class="st23" d="M395.1,2025.7l-7.8-54.6c-4.5,0.1-9.2,1.1-12.4,1.8c1.1,8.8,11,38.3,9.4,50.3L395.1,2025.7z"/>
</g>
<g>
	<g transform="matrix(.56618 0 0 .56618 -452.28 21.535)">
		<path class="st8" d="M1577.6,2733.9l20.3,611c94.8,66.9,234.9,62.5,336,4.7l46.9-609.5C1823.8,2680.3,1697.4,2698.8,1577.6,2733.9
			L1577.6,2733.9z"/>
		<path class="st10" d="M1591.5,2742.4c-0.6,0.7,76.7,40.6,176.7,42.1c104.6,1.5,202.8-34.7,196.8-38.8c0,0-76.5-33.2-170.2-35.1
			C1701,2708.5,1591.5,2742.4,1591.5,2742.4L1591.5,2742.4z"/>
		<g>
			<path class="st12" d="M1593,2761l34.9,522.3c92.6,39,190.7,41.7,284.4-6.3l53.3-512.2C1826.6,2821.2,1688,2807.6,1593,2761
				L1593,2761z"/>
			<path class="st12" d="M1607,2749.3c99-34.5,250.8-39.8,343.4,3.5C1831.6,2805.9,1675.2,2787.4,1607,2749.3z"/>
		</g>
		<path class="st13" d="M1605.9,2751.5c14.2,6.4,28.3,12.2,42,17l12.1,606.2c-9.9-3.3-19.7-7.1-29.1-12.5L1605.9,2751.5
			L1605.9,2751.5z"/>
		
			<linearGradient id="SVGID_4_" gradientUnits="userSpaceOnUse" x1="4089.468" y1="-207.2772" x2="3958.968" y2="-191.4972" gradientTransform="matrix(0.5662 0 0 -0.5662 -350.3724 2953.3276)">
			<stop  offset="0" style="stop-color:#FFFFFF;stop-opacity:0.7922"/>
			<stop  offset="1" style="stop-color:#FFFFFF;stop-opacity:0"/>
		</linearGradient>
		<path class="st25" d="M1899.9,2772.7c24.3-6.9,46.9-14.2,69.7-24.8l-63.7,613.7c-23.6,10.4-36.2,14.3-52.1,18.9L1899.9,2772.7
			L1899.9,2772.7z"/>
		<path class="st15" d="M1846,3381.8l45.6-606.9l-16.5,4.5l-42.3,605.7L1846,3381.8L1846,3381.8z"/>
	</g>
	<g transform="matrix(.56618 0 0 .56618 -452.28 21.535)">
		<path class="st8" d="M3743,2733.9l20.3,611c94.8,66.9,234.9,62.5,336,4.7l46.9-609.5C3989.2,2680.3,3862.8,2698.8,3743,2733.9
			L3743,2733.9z"/>
		<path class="st10" d="M3756.9,2742.4c-0.6,0.7,76.7,40.6,176.7,42.1c104.6,1.5,202.8-34.7,196.8-38.8c0,0-76.5-33.2-170.2-35.1
			C3866.4,2708.5,3756.9,2742.4,3756.9,2742.4L3756.9,2742.4z"/>
		<g>
			<path class="st18" d="M3758.4,2761l34.9,522.3c92.6,39,190.7,41.7,284.4-6.3l53.3-512.2C3992,2821.2,3853.4,2807.6,3758.4,2761
				L3758.4,2761z"/>
			<path class="st18" d="M3772.4,2749.3c99-34.5,250.8-39.8,343.4,3.5C3996.9,2805.9,3840.6,2787.4,3772.4,2749.3z"/>
		</g>
		<path class="st13" d="M3771.3,2751.5c14.2,6.4,28.3,12.2,42,17l12.1,606.2c-9.9-3.3-19.7-7.1-29.1-12.5L3771.3,2751.5
			L3771.3,2751.5z"/>
		
			<linearGradient id="SVGID_5_" gradientUnits="userSpaceOnUse" x1="7914.0278" y1="-207.2772" x2="7783.5278" y2="-191.4972" gradientTransform="matrix(0.5662 0 0 -0.5662 -350.3724 2953.3276)">
			<stop  offset="0" style="stop-color:#FFFFFF;stop-opacity:0.7922"/>
			<stop  offset="1" style="stop-color:#FFFFFF;stop-opacity:0"/>
		</linearGradient>
		<path class="st26" d="M4065.3,2772.7c24.3-6.9,46.9-14.2,69.7-24.8l-63.7,613.7c-23.6,10.4-36.2,14.3-52.1,18.9L4065.3,2772.7
			L4065.3,2772.7z"/>
		<path class="st15" d="M4011.4,3381.8l45.6-606.9l-16.5,4.5l-42.3,605.7L4011.4,3381.8L4011.4,3381.8z"/>
	</g>
	<g transform="matrix(.56618 0 0 .56618 -452.28 21.535)">
		<path class="st8" d="M2660.3,2733.9l20.3,611c94.8,66.9,234.9,62.5,336,4.7l46.9-609.5C2906.5,2680.3,2780.1,2698.8,2660.3,2733.9
			L2660.3,2733.9z"/>
		<g>
			<path class="st9" d="M2675.7,2761l34.9,522.3c92.6,39,190.7,41.7,284.4-6.3l53.3-512.2C2909.3,2821.2,2770.7,2807.6,2675.7,2761
				L2675.7,2761z"/>
			<path class="st9" d="M2689.7,2749.3c99-34.5,250.8-39.8,343.4,3.5C2914.2,2805.9,2757.9,2787.4,2689.7,2749.3z"/>
		</g>
		<path class="st10" d="M2674.2,2742.4c-0.6,0.7,76.7,40.6,176.7,42.1c104.6,1.5,202.8-34.7,196.8-38.8c0,0-76.5-33.2-170.2-35.1
			C2783.7,2708.5,2674.2,2742.4,2674.2,2742.4L2674.2,2742.4z"/>
		<g>
			<path class="st12" d="M2675.7,2761l34.9,522.3c92.6,39,190.7,41.7,284.4-6.3l53.3-512.2C2909.3,2821.2,2770.7,2807.6,2675.7,2761
				L2675.7,2761z"/>
			<path class="st12" d="M2689.7,2749.3c99-34.5,250.8-39.8,343.4,3.5C2914.2,2805.9,2757.9,2787.4,2689.7,2749.3z"/>
		</g>
		<g class="st16">
			<path class="st18" d="M2675.7,2761l34.9,522.3c92.6,39,190.7,41.7,284.4-6.3l53.3-512.2C2909.3,2821.2,2770.7,2807.6,2675.7,2761
				L2675.7,2761z"/>
			<path class="st18" d="M2689.7,2749.3c99-34.5,250.8-39.8,343.4,3.5C2914.2,2805.9,2757.9,2787.4,2689.7,2749.3z"/>
		</g>
		<path class="st13" d="M2688.6,2751.5c14.2,6.4,28.3,12.2,42,17l12.1,606.2c-9.9-3.3-19.7-7.1-29.1-12.5L2688.6,2751.5
			L2688.6,2751.5z"/>
		
			<linearGradient id="SVGID_6_" gradientUnits="userSpaceOnUse" x1="6001.748" y1="-207.2772" x2="5871.248" y2="-191.4972" gradientTransform="matrix(0.5662 0 0 -0.5662 -350.3724 2953.3276)">
			<stop  offset="0" style="stop-color:#FFFFFF;stop-opacity:0.7922"/>
			<stop  offset="1" style="stop-color:#FFFFFF;stop-opacity:0"/>
		</linearGradient>
		<path class="st27" d="M2982.6,2772.7c24.3-6.9,46.9-14.2,69.7-24.8l-63.7,613.7c-23.6,10.4-36.2,14.3-52.1,18.9L2982.6,2772.7
			L2982.6,2772.7z"/>
		<path class="st15" d="M2928.7,3381.8l45.6-606.9l-16.5,4.5l-42.3,605.7L2928.7,3381.8L2928.7,3381.8z"/>
	</g>
</g>
</svg>
