<?xml version="1.0" encoding="utf-8"?>
<!-- Generator: Adobe Illustrator 22.1.0, SVG Export Plug-In . SVG Version: 6.00 Build 0)  -->
<svg version="1.1" id="Layer_1" xmlns="http://www.w3.org/2000/svg" xmlns:xlink="http://www.w3.org/1999/xlink" x="0px" y="0px"
	 viewBox="0 0 3096 3209" style="enable-background:new 0 0 3096 3209;" xml:space="preserve">
<style type="text/css">
	.st0{fill:#EFEFEF;}
	.st1{fill:#BEDBFF;}
	.st2{fill:#FFFFFF;}
	.st3{fill:#FFFFFF;fill-opacity:0.466;}
	.st4{fill:#8BBC4E;}
	.st5{opacity:0;}
	.st6{fill:#F5DF3F;}
	.st7{fill:#FFFFFF;fill-opacity:0.585;}
	.st8{fill:url(#SVGID_1_);}
	.st9{fill:#FFFFFF;fill-opacity:0.4898;}
	.st10{opacity:0.25;}
	.st11{fill:url(#SVGID_2_);}
	.st12{fill:#F51B1B;}
	.st13{fill:url(#SVGID_3_);}
	.st14{fill:url(#SVGID_4_);}
	.st15{opacity:0.5;}
	.st16{fill:url(#SVGID_5_);}
	.st17{fill:url(#SVGID_6_);}
	.st18{fill:url(#SVGID_7_);}
	.st19{fill:url(#SVGID_8_);}
	.st20{opacity:0.75;}
	.st21{fill:url(#SVGID_9_);}
	.st22{fill:url(#SVGID_10_);}
	.st23{fill:url(#SVGID_11_);}
	.st24{fill:url(#SVGID_12_);}
	.st25{fill:url(#SVGID_13_);}
	.st26{fill:url(#SVGID_14_);}
	.st27{fill:url(#SVGID_15_);}
	.st28{fill:#599029;}
	.st29{fill:#994517;}
	.st30{fill:#739C40;}
	.st31{fill:#BED573;}
	.st32{fill:#446F1C;}
	.st33{fill:#793712;}
	.st34{fill:#3B6620;}
	.st35{fill:#F0A6A6;}
	.st36{fill:#A55325;}
	.st37{fill:#E7CC00;}
	.st38{fill:#F17D23;}
</style>
<g>
	<circle class="st0" cx="517" cy="2599" r="252"/>
</g>
<g>
	<circle class="st0" cx="1617" cy="696" r="252"/>
</g>
<g>
	<circle class="st0" cx="2720" cy="2599" r="252"/>
</g>
<g transform="matrix(.56618 0 0 .56618 -452.28 21.535)">
	<path class="st1" d="M3464,878.2l20.3,611c94.8,66.9,234.9,62.5,336,4.7l46.9-609.5C3710.2,824.6,3583.8,843.1,3464,878.2
		L3464,878.2z"/>
	<g>
		<path class="st2" d="M3479.4,905.3l34.9,522.3c92.6,39,190.7,41.7,284.4-6.3l53.3-512.2C3713,965.5,3574.4,951.9,3479.4,905.3
			L3479.4,905.3z"/>
		<path class="st2" d="M3493.4,893.6c99-34.5,250.8-39.8,343.4,3.5C3717.9,950.2,3561.6,931.7,3493.4,893.6z"/>
	</g>
	<path class="st3" d="M3477.9,886.6c-0.6,0.7,76.7,40.6,176.7,42.1c104.6,1.5,202.8-34.7,196.8-38.8c0,0-76.5-33.2-170.2-35.1
		S3477.9,886.6,3477.9,886.6L3477.9,886.6z"/>
	<g>
		<path class="st4" d="M3479.4,905.3l34.9,522.3c92.6,39,190.7,41.7,284.4-6.3l53.3-512.2C3713,965.5,3574.4,951.9,3479.4,905.3
			L3479.4,905.3z"/>
		<path class="st4" d="M3493.4,893.6c99-34.5,250.8-39.8,343.4,3.5C3717.9,950.2,3561.6,931.7,3493.4,893.6z"/>
	</g>
	<g class="st5">
		<path class="st6" d="M3479.4,905.3l34.9,522.3c92.6,39,190.7,41.7,284.4-6.3l53.3-512.2C3713,965.5,3574.4,951.9,3479.4,905.3
			L3479.4,905.3z"/>
		<path class="st6" d="M3493.4,893.6c99-34.5,250.8-39.8,343.4,3.5C3717.9,950.2,3561.6,931.7,3493.4,893.6z"/>
	</g>
	<path class="st7" d="M3492.3,895.8c14.2,6.4,28.3,12.2,42,17l12.1,606.2c-9.9-3.3-19.7-7.1-29.1-12.5L3492.3,895.8L3492.3,895.8z"
		/>
	
		<linearGradient id="SVGID_1_" gradientUnits="userSpaceOnUse" x1="6804.1299" y1="5088.1436" x2="6673.6299" y2="5103.9238" gradientTransform="matrix(0.5662 0 0 -0.5662 -0.9748 4095.7776)">
		<stop  offset="0" style="stop-color:#FFFFFF;stop-opacity:0.7922"/>
		<stop  offset="1" style="stop-color:#FFFFFF;stop-opacity:0"/>
	</linearGradient>
	<path class="st8" d="M3786.3,917c24.3-6.9,46.9-14.2,69.7-24.8l-63.7,613.7c-23.6,10.4-36.2,14.3-52.1,18.9L3786.3,917L3786.3,917z
		"/>
	<path class="st9" d="M3732.4,1526.1l45.6-606.9l-16.5,4.5l-42.3,605.7L3732.4,1526.1L3732.4,1526.1z"/>
</g>
<g>
	<g transform="matrix(.56618 0 0 .56618 -452.28 21.535)">
		<path class="st1" d="M2967.7,1721.1l20.3,611c94.8,66.9,234.9,62.5,336,4.7l46.9-609.5C3213.9,1667.5,3087.5,1686,2967.7,1721.1
			L2967.7,1721.1z"/>
		<g>
			<path class="st2" d="M2983.1,1748.2l34.9,522.3c92.6,39,190.7,41.7,284.4-6.3l53.3-512.2
				C3216.7,1808.4,3078.1,1794.8,2983.1,1748.2L2983.1,1748.2z"/>
			<path class="st2" d="M2997.1,1736.5c99-34.5,250.8-39.8,343.4,3.5C3221.6,1793.1,3065.3,1774.6,2997.1,1736.5z"/>
		</g>
		<path class="st3" d="M2981.6,1729.6c-0.6,0.7,76.7,40.6,176.7,42.1c104.6,1.5,202.8-34.7,196.8-38.8c0,0-76.5-33.2-170.2-35.1
			S2981.6,1729.6,2981.6,1729.6L2981.6,1729.6z"/>
		<g>
			<path class="st4" d="M2983.1,1748.2l34.9,522.3c92.6,39,190.7,41.7,284.4-6.3l53.3-512.2
				C3216.7,1808.4,3078.1,1794.8,2983.1,1748.2L2983.1,1748.2z"/>
			<path class="st4" d="M2997.1,1736.5c99-34.5,250.8-39.8,343.4,3.5C3221.6,1793.1,3065.3,1774.6,2997.1,1736.5z"/>
		</g>
		<g class="st10">
			<path class="st6" d="M2983.1,1748.2l34.9,522.3c92.6,39,190.7,41.7,284.4-6.3l53.3-512.2
				C3216.7,1808.4,3078.1,1794.8,2983.1,1748.2L2983.1,1748.2z"/>
			<path class="st6" d="M2997.1,1736.5c99-34.5,250.8-39.8,343.4,3.5C3221.6,1793.1,3065.3,1774.6,2997.1,1736.5z"/>
		</g>
		<path class="st7" d="M2996,1738.7c14.2,6.4,28.3,12.2,42,17l12.1,606.2c-9.9-3.3-19.7-7.1-29.1-12.5L2996,1738.7L2996,1738.7z"/>
		
			<linearGradient id="SVGID_2_" gradientUnits="userSpaceOnUse" x1="5927.5381" y1="3599.3418" x2="5797.0381" y2="3615.1218" gradientTransform="matrix(0.5662 0 0 -0.5662 -0.9748 4095.7776)">
			<stop  offset="0" style="stop-color:#FFFFFF;stop-opacity:0.7922"/>
			<stop  offset="1" style="stop-color:#FFFFFF;stop-opacity:0"/>
		</linearGradient>
		<path class="st11" d="M3290,1759.9c24.3-6.9,46.9-14.2,69.7-24.8l-63.7,613.7c-23.6,10.4-36.2,14.3-52.1,18.9L3290,1759.9
			L3290,1759.9z"/>
		<path class="st9" d="M3236.1,2369.1l45.6-606.9l-16.5,4.5l-42.3,605.7L3236.1,2369.1L3236.1,2369.1z"/>
	</g>
	<g transform="matrix(.56618 0 0 .56618 -452.28 21.535)">
		<path class="st1" d="M3960.3,1721.1l20.3,611c94.8,66.9,234.9,62.5,336,4.7l46.9-609.5C4206.5,1667.5,4080.1,1686,3960.3,1721.1
			L3960.3,1721.1z"/>
		<g>
			<path class="st2" d="M3975.7,1748.2l34.9,522.3c92.6,39,190.7,41.7,284.4-6.3l53.3-512.2
				C4209.3,1808.4,4070.7,1794.8,3975.7,1748.2L3975.7,1748.2z"/>
			<path class="st2" d="M3989.7,1736.5c99-34.5,250.8-39.8,343.4,3.5C4214.2,1793.1,4057.9,1774.6,3989.7,1736.5z"/>
		</g>
		<path class="st3" d="M3974.2,1729.6c-0.6,0.7,76.7,40.6,176.7,42.1c104.6,1.5,202.8-34.7,196.8-38.8c0,0-76.5-33.2-170.2-35.1
			C4083.7,1695.7,3974.2,1729.6,3974.2,1729.6L3974.2,1729.6z"/>
		<g>
			<path class="st4" d="M3975.7,1748.2l34.9,522.3c92.6,39,190.7,41.7,284.4-6.3l53.3-512.2
				C4209.3,1808.4,4070.7,1794.8,3975.7,1748.2L3975.7,1748.2z"/>
			<path class="st4" d="M3989.7,1736.5c99-34.5,250.8-39.8,343.4,3.5C4214.2,1793.1,4057.9,1774.6,3989.7,1736.5z"/>
		</g>
		<g class="st10">
			<path class="st12" d="M3975.7,1748.2l34.9,522.3c92.6,39,190.7,41.7,284.4-6.3l53.3-512.2
				C4209.3,1808.4,4070.7,1794.8,3975.7,1748.2L3975.7,1748.2z"/>
			<path class="st12" d="M3989.7,1736.5c99-34.5,250.8-39.8,343.4,3.5C4214.2,1793.1,4057.9,1774.6,3989.7,1736.5z"/>
		</g>
		<path class="st7" d="M3988.6,1738.7c14.2,6.4,28.3,12.2,42,17l12.1,606.2c-9.9-3.3-19.7-7.1-29.1-12.5L3988.6,1738.7
			L3988.6,1738.7z"/>
		
			<linearGradient id="SVGID_3_" gradientUnits="userSpaceOnUse" x1="7680.7212" y1="3599.3418" x2="7550.2212" y2="3615.1218" gradientTransform="matrix(0.5662 0 0 -0.5662 -0.9748 4095.7776)">
			<stop  offset="0" style="stop-color:#FFFFFF;stop-opacity:0.7922"/>
			<stop  offset="1" style="stop-color:#FFFFFF;stop-opacity:0"/>
		</linearGradient>
		<path class="st13" d="M4282.6,1759.9c24.3-6.9,46.9-14.2,69.7-24.8l-63.7,613.7c-23.6,10.4-36.2,14.3-52.1,18.9L4282.6,1759.9
			L4282.6,1759.9z"/>
		<path class="st9" d="M4228.7,2369.1l45.6-606.9l-16.5,4.5l-42.3,605.7L4228.7,2369.1L4228.7,2369.1z"/>
	</g>
</g>
<g>
	<g transform="matrix(.56618 0 0 .56618 -452.28 21.535)">
		<path class="st1" d="M3464,2564l20.3,611c94.8,66.9,234.9,62.5,336,4.7l46.9-609.5C3710.2,2510.5,3583.8,2528.9,3464,2564
			L3464,2564z"/>
		<g>
			<path class="st4" d="M3479.4,2591.2l34.9,522.3c92.6,39,190.7,41.7,284.4-6.3L3852,2595C3713,2651.3,3574.4,2637.7,3479.4,2591.2
				L3479.4,2591.2z"/>
			<path class="st4" d="M3493.4,2579.4c99-34.5,250.8-39.8,343.4,3.5C3717.9,2636,3561.6,2617.5,3493.4,2579.4z"/>
		</g>
		<g class="st10">
			<path class="st6" d="M3479.4,2591.2l34.9,522.3c92.6,39,190.7,41.7,284.4-6.3L3852,2595C3713,2651.3,3574.4,2637.7,3479.4,2591.2
				L3479.4,2591.2z"/>
			<path class="st6" d="M3493.4,2579.4c99-34.5,250.8-39.8,343.4,3.5C3717.9,2636,3561.6,2617.5,3493.4,2579.4z"/>
		</g>
		<g class="st10">
			<path class="st12" d="M3479.4,2591.2l34.9,522.3c92.6,39,190.7,41.7,284.4-6.3L3852,2595
				C3713,2651.3,3574.4,2637.7,3479.4,2591.2L3479.4,2591.2z"/>
			<path class="st12" d="M3493.4,2579.4c99-34.5,250.8-39.8,343.4,3.5C3717.9,2636,3561.6,2617.5,3493.4,2579.4z"/>
		</g>
		<path class="st3" d="M3477.9,2572.5c-0.6,0.7,76.7,40.6,176.7,42.1c104.6,1.5,202.8-34.7,196.8-38.8c0,0-76.5-33.2-170.2-35.1
			C3587.4,2538.6,3477.9,2572.5,3477.9,2572.5L3477.9,2572.5z"/>
		<path class="st7" d="M3492.3,2581.6c14.2,6.4,28.3,12.2,42,17l12.1,606.2c-9.9-3.3-19.7-7.1-29.1-12.5L3492.3,2581.6
			L3492.3,2581.6z"/>
		
			<linearGradient id="SVGID_4_" gradientUnits="userSpaceOnUse" x1="6804.1299" y1="2110.54" x2="6673.6299" y2="2126.3201" gradientTransform="matrix(0.5662 0 0 -0.5662 -0.9748 4095.7776)">
			<stop  offset="0" style="stop-color:#FFFFFF;stop-opacity:0.7922"/>
			<stop  offset="1" style="stop-color:#FFFFFF;stop-opacity:0"/>
		</linearGradient>
		<path class="st14" d="M3786.3,2602.8c24.3-6.9,46.9-14.2,69.7-24.8l-63.7,613.7c-23.6,10.4-36.2,14.3-52.1,18.9L3786.3,2602.8
			L3786.3,2602.8z"/>
		<path class="st9" d="M3732.4,3212l45.6-606.9l-16.5,4.5l-42.3,605.7L3732.4,3212L3732.4,3212z"/>
	</g>
	<g transform="matrix(.56618 0 0 .56618 -452.28 21.535)">
		<path class="st1" d="M2474.9,2564l20.3,611c94.8,66.9,234.9,62.5,336,4.7l46.9-609.5C2721.1,2510.5,2594.7,2528.9,2474.9,2564
			L2474.9,2564z"/>
		<g>
			<path class="st2" d="M2490.3,2591.2l34.9,522.3c92.6,39,190.7,41.7,284.4-6.3l53.3-512.2
				C2723.9,2651.3,2585.3,2637.7,2490.3,2591.2L2490.3,2591.2z"/>
			<path class="st2" d="M2504.3,2579.4c99-34.5,250.8-39.8,343.4,3.5C2728.9,2636,2572.5,2617.5,2504.3,2579.4z"/>
		</g>
		<path class="st3" d="M2488.8,2572.5c-0.6,0.7,76.7,40.6,176.7,42.1c104.6,1.5,202.8-34.7,196.8-38.8c0,0-76.5-33.2-170.2-35.1
			C2598.3,2538.6,2488.8,2572.5,2488.8,2572.5L2488.8,2572.5z"/>
		<g>
			<path class="st4" d="M2490.3,2591.2l34.9,522.3c92.6,39,190.7,41.7,284.4-6.3l53.3-512.2
				C2723.9,2651.3,2585.3,2637.7,2490.3,2591.2L2490.3,2591.2z"/>
			<path class="st4" d="M2504.3,2579.4c99-34.5,250.8-39.8,343.4,3.5C2728.9,2636,2572.5,2617.5,2504.3,2579.4z"/>
		</g>
		<g class="st15">
			<path class="st6" d="M2490.3,2591.2l34.9,522.3c92.6,39,190.7,41.7,284.4-6.3l53.3-512.2
				C2723.9,2651.3,2585.3,2637.7,2490.3,2591.2L2490.3,2591.2z"/>
			<path class="st6" d="M2504.3,2579.4c99-34.5,250.8-39.8,343.4,3.5C2728.9,2636,2572.5,2617.5,2504.3,2579.4z"/>
		</g>
		<path class="st7" d="M2503.2,2581.6c14.2,6.4,28.3,12.2,42,17l12.1,606.2c-9.9-3.3-19.7-7.1-29.1-12.5L2503.2,2581.6
			L2503.2,2581.6z"/>
		
			<linearGradient id="SVGID_5_" gradientUnits="userSpaceOnUse" x1="5057.186" y1="2110.54" x2="4926.686" y2="2126.3201" gradientTransform="matrix(0.5662 0 0 -0.5662 -0.9748 4095.7776)">
			<stop  offset="0" style="stop-color:#FFFFFF;stop-opacity:0.7922"/>
			<stop  offset="1" style="stop-color:#FFFFFF;stop-opacity:0"/>
		</linearGradient>
		<path class="st16" d="M2797.2,2602.8c24.3-6.9,46.9-14.2,69.7-24.8l-63.7,613.7c-23.6,10.4-36.2,14.3-52.1,18.9L2797.2,2602.8
			L2797.2,2602.8z"/>
		<path class="st9" d="M2743.3,3212l45.6-606.9l-16.5,4.5l-42.3,605.7L2743.3,3212L2743.3,3212z"/>
	</g>
	<g transform="matrix(.56618 0 0 .56618 -452.28 21.535)">
		<path class="st1" d="M4453.1,2564l20.3,611c94.8,66.9,234.9,62.5,336,4.7l46.9-609.5C4699.3,2510.5,4572.9,2528.9,4453.1,2564
			L4453.1,2564z"/>
		<g>
			<path class="st2" d="M4468.5,2591.2l34.9,522.3c92.6,39,190.7,41.7,284.4-6.3L4841,2595
				C4702.1,2651.3,4563.5,2637.7,4468.5,2591.2L4468.5,2591.2z"/>
			<path class="st2" d="M4482.5,2579.4c99-34.5,250.8-39.8,343.4,3.5C4707,2636,4550.7,2617.5,4482.5,2579.4z"/>
		</g>
		<path class="st3" d="M4467,2572.5c-0.6,0.7,76.7,40.6,176.7,42.1c104.6,1.5,202.8-34.7,196.8-38.8c0,0-76.5-33.2-170.2-35.1
			C4576.5,2538.6,4467,2572.5,4467,2572.5L4467,2572.5z"/>
		<g>
			<path class="st4" d="M4468.5,2591.2l34.9,522.3c92.6,39,190.7,41.7,284.4-6.3L4841,2595
				C4702.1,2651.3,4563.5,2637.7,4468.5,2591.2L4468.5,2591.2z"/>
			<path class="st4" d="M4482.5,2579.4c99-34.5,250.8-39.8,343.4,3.5C4707,2636,4550.7,2617.5,4482.5,2579.4z"/>
		</g>
		<g class="st15">
			<path class="st12" d="M4468.5,2591.2l34.9,522.3c92.6,39,190.7,41.7,284.4-6.3L4841,2595
				C4702.1,2651.3,4563.5,2637.7,4468.5,2591.2L4468.5,2591.2z"/>
			<path class="st12" d="M4482.5,2579.4c99-34.5,250.8-39.8,343.4,3.5C4707,2636,4550.7,2617.5,4482.5,2579.4z"/>
		</g>
		<path class="st7" d="M4481.4,2581.6c14.2,6.4,28.3,12.2,42,17l12.1,606.2c-9.9-3.3-19.7-7.1-29.1-12.5L4481.4,2581.6
			L4481.4,2581.6z"/>
		
			<linearGradient id="SVGID_6_" gradientUnits="userSpaceOnUse" x1="8551.0742" y1="2110.54" x2="8420.5742" y2="2126.3201" gradientTransform="matrix(0.5662 0 0 -0.5662 -0.9748 4095.7776)">
			<stop  offset="0" style="stop-color:#FFFFFF;stop-opacity:0.7922"/>
			<stop  offset="1" style="stop-color:#FFFFFF;stop-opacity:0"/>
		</linearGradient>
		<path class="st17" d="M4775.4,2602.8c24.3-6.9,46.9-14.2,69.7-24.8l-63.7,613.7c-23.6,10.4-36.2,14.3-52.1,18.9L4775.4,2602.8
			L4775.4,2602.8z"/>
		<path class="st9" d="M4721.5,3212l45.6-606.9l-16.5,4.5l-42.3,605.7L4721.5,3212L4721.5,3212z"/>
	</g>
</g>
<g>
	<g transform="matrix(.56618 0 0 .56618 -452.28 21.535)">
		<path class="st1" d="M3952.9,3406.9l20.3,611c94.8,66.9,234.9,62.5,336,4.7l46.9-609.5C4199.1,3353.4,4072.8,3371.9,3952.9,3406.9
			L3952.9,3406.9z"/>
		<g>
			<path class="st12" d="M3968.3,3434.1l34.9,522.3c92.6,39,190.7,41.7,284.4-6.3l53.3-512.2
				C4201.9,3494.3,4063.4,3480.6,3968.3,3434.1L3968.3,3434.1z"/>
			<path class="st12" d="M3982.3,3422.3c99-34.5,250.8-39.8,343.4,3.5C4206.9,3479,4050.5,3460.5,3982.3,3422.3z"/>
		</g>
		<g class="st10">
			<path class="st6" d="M3968.3,3434.1l34.9,522.3c92.6,39,190.7,41.7,284.4-6.3l53.3-512.2
				C4201.9,3494.3,4063.4,3480.6,3968.3,3434.1L3968.3,3434.1z"/>
			<path class="st6" d="M3982.3,3422.3c99-34.5,250.8-39.8,343.4,3.5C4206.9,3479,4050.5,3460.5,3982.3,3422.3z"/>
		</g>
		<g class="st10">
			<path class="st4" d="M3968.3,3434.1l34.9,522.3c92.6,39,190.7,41.7,284.4-6.3l53.3-512.2
				C4201.9,3494.3,4063.4,3480.6,3968.3,3434.1L3968.3,3434.1z"/>
			<path class="st4" d="M3982.3,3422.3c99-34.5,250.8-39.8,343.4,3.5C4206.9,3479,4050.5,3460.5,3982.3,3422.3z"/>
		</g>
		<path class="st3" d="M3966.8,3415.4c-0.6,0.7,76.7,40.6,176.7,42.1c104.6,1.5,202.8-34.7,196.8-38.8c0,0-76.5-33.2-170.2-35.1
			C4076.3,3381.6,3966.8,3415.4,3966.8,3415.4L3966.8,3415.4z"/>
		<path class="st7" d="M3981.2,3424.6c14.2,6.4,28.3,12.2,42,17l12.1,606.2c-9.9-3.3-19.7-7.1-29.1-12.5L3981.2,3424.6
			L3981.2,3424.6z"/>
		
			<linearGradient id="SVGID_7_" gradientUnits="userSpaceOnUse" x1="7667.7231" y1="621.7382" x2="7537.2231" y2="637.5182" gradientTransform="matrix(0.5662 0 0 -0.5662 -0.9748 4095.7776)">
			<stop  offset="0" style="stop-color:#FFFFFF;stop-opacity:0.7922"/>
			<stop  offset="1" style="stop-color:#FFFFFF;stop-opacity:0"/>
		</linearGradient>
		<path class="st18" d="M4275.2,3445.8c24.3-6.9,46.9-14.2,69.7-24.8l-63.7,613.7c-23.6,10.4-36.2,14.3-52.1,18.9L4275.2,3445.8
			L4275.2,3445.8z"/>
		<path class="st9" d="M4221.3,4054.9l45.6-606.9l-16.5,4.5l-42.3,605.7L4221.3,4054.9L4221.3,4054.9z"/>
	</g>
	<g transform="matrix(.56618 0 0 .56618 -452.28 21.535)">
		<path class="st1" d="M2975,3406.9l20.3,611c94.8,66.9,234.9,62.5,336,4.7l46.9-609.5C3221.2,3353.4,3094.9,3371.9,2975,3406.9
			L2975,3406.9z"/>
		<g>
			<path class="st6" d="M2990.4,3434.1l34.9,522.3c92.6,39,190.7,41.7,284.4-6.3L3363,3438C3224,3494.3,3085.5,3480.6,2990.4,3434.1
				L2990.4,3434.1z"/>
			<path class="st6" d="M3004.4,3422.3c99-34.5,250.8-39.8,343.4,3.5C3229,3479,3072.6,3460.5,3004.4,3422.3z"/>
		</g>
		<g class="st10">
			<path class="st4" d="M2990.4,3434.1l34.9,522.3c92.6,39,190.7,41.7,284.4-6.3L3363,3438C3224,3494.3,3085.5,3480.6,2990.4,3434.1
				L2990.4,3434.1z"/>
			<path class="st4" d="M3004.4,3422.3c99-34.5,250.8-39.8,343.4,3.5C3229,3479,3072.6,3460.5,3004.4,3422.3z"/>
		</g>
		<g class="st10">
			<path class="st12" d="M2990.4,3434.1l34.9,522.3c92.6,39,190.7,41.7,284.4-6.3L3363,3438
				C3224,3494.3,3085.5,3480.6,2990.4,3434.1L2990.4,3434.1z"/>
			<path class="st12" d="M3004.4,3422.3c99-34.5,250.8-39.8,343.4,3.5C3229,3479,3072.6,3460.5,3004.4,3422.3z"/>
		</g>
		<path class="st3" d="M2988.9,3415.4c-0.6,0.7,76.7,40.6,176.7,42.1c104.6,1.5,202.8-34.7,196.8-38.8c0,0-76.5-33.2-170.2-35.1
			C3098.4,3381.6,2988.9,3415.4,2988.9,3415.4L2988.9,3415.4z"/>
		<path class="st7" d="M3003.3,3424.6c14.2,6.4,28.3,12.2,42,17l12.1,606.2c-9.9-3.3-19.7-7.1-29.1-12.5L3003.3,3424.6
			L3003.3,3424.6z"/>
		
			<linearGradient id="SVGID_8_" gradientUnits="userSpaceOnUse" x1="5940.5366" y1="621.7382" x2="5810.0366" y2="637.5182" gradientTransform="matrix(0.5662 0 0 -0.5662 -0.9748 4095.7776)">
			<stop  offset="0" style="stop-color:#FFFFFF;stop-opacity:0.7922"/>
			<stop  offset="1" style="stop-color:#FFFFFF;stop-opacity:0"/>
		</linearGradient>
		<path class="st19" d="M3297.3,3445.8c24.3-6.9,46.9-14.2,69.7-24.8l-63.7,613.7c-23.6,10.4-36.2,14.3-52.1,18.9L3297.3,3445.8
			L3297.3,3445.8z"/>
		<path class="st9" d="M3243.4,4054.9L3289,3448l-16.5,4.5l-42.3,605.7L3243.4,4054.9L3243.4,4054.9z"/>
	</g>
	<g transform="matrix(.56618 0 0 .56618 -452.28 21.535)">
		<path class="st1" d="M1997.1,3406.9l20.3,611c94.8,66.9,234.9,62.5,336,4.7l46.9-609.5C2243.3,3353.4,2117,3371.9,1997.1,3406.9
			L1997.1,3406.9z"/>
		<g>
			<path class="st2" d="M2012.5,3434.1l34.9,522.3c92.6,39,190.7,41.7,284.4-6.3l53.3-512.2
				C2246.1,3494.3,2107.6,3480.6,2012.5,3434.1L2012.5,3434.1z"/>
			<path class="st2" d="M2026.5,3422.3c99-34.5,250.8-39.8,343.4,3.5C2251.1,3479,2094.7,3460.5,2026.5,3422.3z"/>
		</g>
		<path class="st3" d="M2011,3415.4c-0.6,0.7,76.7,40.6,176.7,42.1c104.6,1.5,202.8-34.7,196.8-38.8c0,0-76.5-33.2-170.2-35.1
			C2120.5,3381.6,2011,3415.4,2011,3415.4L2011,3415.4z"/>
		<g>
			<path class="st4" d="M2012.5,3434.1l34.9,522.3c92.6,39,190.7,41.7,284.4-6.3l53.3-512.2
				C2246.1,3494.3,2107.6,3480.6,2012.5,3434.1L2012.5,3434.1z"/>
			<path class="st4" d="M2026.5,3422.3c99-34.5,250.8-39.8,343.4,3.5C2251.1,3479,2094.7,3460.5,2026.5,3422.3z"/>
		</g>
		<g class="st20">
			<path class="st6" d="M2012.5,3434.1l34.9,522.3c92.6,39,190.7,41.7,284.4-6.3l53.3-512.2
				C2246.1,3494.3,2107.6,3480.6,2012.5,3434.1L2012.5,3434.1z"/>
			<path class="st6" d="M2026.5,3422.3c99-34.5,250.8-39.8,343.4,3.5C2251.1,3479,2094.7,3460.5,2026.5,3422.3z"/>
		</g>
		<path class="st7" d="M2025.4,3424.6c14.2,6.4,28.3,12.2,42,17l12.1,606.2c-9.9-3.3-19.7-7.1-29.1-12.5L2025.4,3424.6
			L2025.4,3424.6z"/>
		
			<linearGradient id="SVGID_9_" gradientUnits="userSpaceOnUse" x1="4213.3496" y1="621.7382" x2="4082.8496" y2="637.5182" gradientTransform="matrix(0.5662 0 0 -0.5662 -0.9748 4095.7776)">
			<stop  offset="0" style="stop-color:#FFFFFF;stop-opacity:0.7922"/>
			<stop  offset="1" style="stop-color:#FFFFFF;stop-opacity:0"/>
		</linearGradient>
		<path class="st21" d="M2319.4,3445.8c24.3-6.9,46.9-14.2,69.7-24.8l-63.7,613.7c-23.6,10.4-36.2,14.3-52.1,18.9L2319.4,3445.8
			L2319.4,3445.8z"/>
		<path class="st9" d="M2265.5,4054.9l45.6-606.9l-16.5,4.5l-42.3,605.7L2265.5,4054.9L2265.5,4054.9z"/>
	</g>
	<g transform="matrix(.56618 0 0 .56618 -452.28 21.535)">
		<path class="st1" d="M4930.8,3406.9l20.3,611c94.8,66.9,234.9,62.5,336,4.7l46.9-609.5C5177,3353.4,5050.7,3371.9,4930.8,3406.9
			L4930.8,3406.9z"/>
		<g>
			<path class="st2" d="M4946.2,3434.1l34.9,522.3c92.6,39,190.7,41.7,284.4-6.3l53.3-512.2
				C5179.8,3494.3,5041.3,3480.6,4946.2,3434.1L4946.2,3434.1z"/>
			<path class="st2" d="M4960.2,3422.3c99-34.5,250.8-39.8,343.4,3.5C5184.8,3479,5028.4,3460.5,4960.2,3422.3z"/>
		</g>
		<path class="st3" d="M4944.7,3415.4c-0.6,0.7,76.7,40.6,176.7,42.1c104.6,1.5,202.8-34.7,196.8-38.8c0,0-76.5-33.2-170.2-35.1
			C5054.2,3381.6,4944.7,3415.4,4944.7,3415.4L4944.7,3415.4z"/>
		<g>
			<path class="st4" d="M4946.2,3434.1l34.9,522.3c92.6,39,190.7,41.7,284.4-6.3l53.3-512.2
				C5179.8,3494.3,5041.3,3480.6,4946.2,3434.1L4946.2,3434.1z"/>
			<path class="st4" d="M4960.2,3422.3c99-34.5,250.8-39.8,343.4,3.5C5184.8,3479,5028.4,3460.5,4960.2,3422.3z"/>
		</g>
		<g class="st20">
			<path class="st12" d="M4946.2,3434.1l34.9,522.3c92.6,39,190.7,41.7,284.4-6.3l53.3-512.2
				C5179.8,3494.3,5041.3,3480.6,4946.2,3434.1L4946.2,3434.1z"/>
			<path class="st12" d="M4960.2,3422.3c99-34.5,250.8-39.8,343.4,3.5C5184.8,3479,5028.4,3460.5,4960.2,3422.3z"/>
		</g>
		<path class="st7" d="M4959.1,3424.6c14.2,6.4,28.3,12.2,42,17l12.1,606.2c-9.9-3.3-19.7-7.1-29.1-12.5L4959.1,3424.6
			L4959.1,3424.6z"/>
		
			<linearGradient id="SVGID_10_" gradientUnits="userSpaceOnUse" x1="9394.9102" y1="621.7382" x2="9264.4102" y2="637.5182" gradientTransform="matrix(0.5662 0 0 -0.5662 -0.9748 4095.7776)">
			<stop  offset="0" style="stop-color:#FFFFFF;stop-opacity:0.7922"/>
			<stop  offset="1" style="stop-color:#FFFFFF;stop-opacity:0"/>
		</linearGradient>
		<path class="st22" d="M5253.1,3445.8c24.3-6.9,46.9-14.2,69.7-24.8l-63.7,613.7c-23.6,10.4-36.2,14.3-52.1,18.9L5253.1,3445.8
			L5253.1,3445.8z"/>
		<path class="st9" d="M5199.2,4054.9l45.6-606.9l-16.5,4.5l-42.3,605.7L5199.2,4054.9L5199.2,4054.9z"/>
	</g>
</g>
<g>
	<g transform="matrix(.56618 0 0 .56618 -452.28 21.535)">
		<path class="st1" d="M1523.8,4249.9l20.3,611c94.8,66.9,234.9,62.5,336,4.7l46.9-609.5C1770,4196.3,1643.6,4214.8,1523.8,4249.9
			L1523.8,4249.9z"/>
		<path class="st3" d="M1537.7,4258.4c-0.6,0.7,76.7,40.6,176.7,42.1c104.6,1.5,202.8-34.7,196.8-38.8c0,0-76.5-33.2-170.2-35.1
			S1537.7,4258.4,1537.7,4258.4L1537.7,4258.4z"/>
		<g>
			<path class="st6" d="M1539.2,4277l34.9,522.3c92.6,39,190.7,41.7,284.4-6.3l53.3-512.2C1772.8,4337.2,1634.2,4323.6,1539.2,4277
				L1539.2,4277z"/>
			<path class="st6" d="M1553.2,4265.3c99-34.5,250.8-39.8,343.4,3.5C1777.7,4321.9,1621.4,4303.4,1553.2,4265.3z"/>
		</g>
		<path class="st7" d="M1552.1,4267.5c14.2,6.4,28.3,12.2,42,17l12.1,606.2c-9.9-3.3-19.7-7.1-29.1-12.5L1552.1,4267.5
			L1552.1,4267.5z"/>
		
			<linearGradient id="SVGID_11_" gradientUnits="userSpaceOnUse" x1="3377.312" y1="-867.0636" x2="3246.812" y2="-851.2836" gradientTransform="matrix(0.5662 0 0 -0.5662 -0.9748 4095.7776)">
			<stop  offset="0" style="stop-color:#FFFFFF;stop-opacity:0.7922"/>
			<stop  offset="1" style="stop-color:#FFFFFF;stop-opacity:0"/>
		</linearGradient>
		<path class="st23" d="M1846.1,4288.7c24.3-6.9,46.9-14.2,69.7-24.8l-63.7,613.7c-23.6,10.4-36.2,14.3-52.1,18.9L1846.1,4288.7
			L1846.1,4288.7z"/>
		<path class="st9" d="M1792.2,4897.8l45.6-606.9l-16.5,4.5l-42.3,605.7L1792.2,4897.8L1792.2,4897.8z"/>
	</g>
	<g transform="matrix(.56618 0 0 .56618 -452.28 21.535)">
		<path class="st1" d="M5404.2,4249.9l20.3,611c94.8,66.9,234.9,62.5,336,4.7l46.9-609.5C5650.4,4196.3,5524,4214.8,5404.2,4249.9
			L5404.2,4249.9z"/>
		<path class="st3" d="M5418.1,4258.4c-0.6,0.7,76.7,40.6,176.7,42.1c104.6,1.5,202.8-34.7,196.8-38.8c0,0-76.5-33.2-170.2-35.1
			S5418.1,4258.4,5418.1,4258.4L5418.1,4258.4z"/>
		<g>
			<path class="st12" d="M5419.6,4277l34.9,522.3c92.6,39,190.7,41.7,284.4-6.3l53.3-512.2C5653.2,4337.2,5514.6,4323.6,5419.6,4277
				L5419.6,4277z"/>
			<path class="st12" d="M5433.6,4265.3c99-34.5,250.8-39.8,343.4,3.5C5658.1,4321.9,5501.8,4303.4,5433.6,4265.3z"/>
		</g>
		<path class="st7" d="M5432.5,4267.5c14.2,6.4,28.3,12.2,42,17l12.1,606.2c-9.9-3.3-19.7-7.1-29.1-12.5L5432.5,4267.5
			L5432.5,4267.5z"/>
		
			<linearGradient id="SVGID_12_" gradientUnits="userSpaceOnUse" x1="10230.9473" y1="-867.0636" x2="10100.4473" y2="-851.2836" gradientTransform="matrix(0.5662 0 0 -0.5662 -0.9748 4095.7776)">
			<stop  offset="0" style="stop-color:#FFFFFF;stop-opacity:0.7922"/>
			<stop  offset="1" style="stop-color:#FFFFFF;stop-opacity:0"/>
		</linearGradient>
		<path class="st24" d="M5726.5,4288.7c24.3-6.9,46.9-14.2,69.7-24.8l-63.7,613.7c-23.6,10.4-36.2,14.3-52.1,18.9L5726.5,4288.7
			L5726.5,4288.7z"/>
		<path class="st9" d="M5672.6,4897.8l45.6-606.9l-16.5,4.5l-42.3,605.7L5672.6,4897.8L5672.6,4897.8z"/>
	</g>
	<g transform="matrix(.56618 0 0 .56618 -452.28 21.535)">
		<path class="st1" d="M3464,4249.9l20.3,611c94.8,66.9,234.9,62.5,336,4.7l46.9-609.5C3710.2,4196.3,3583.8,4214.8,3464,4249.9
			L3464,4249.9z"/>
		<g>
			<path class="st2" d="M3479.4,4277l34.9,522.3c92.6,39,190.7,41.7,284.4-6.3l53.3-512.2C3713,4337.2,3574.4,4323.6,3479.4,4277
				L3479.4,4277z"/>
			<path class="st2" d="M3493.4,4265.3c99-34.5,250.8-39.8,343.4,3.5C3717.9,4321.9,3561.6,4303.4,3493.4,4265.3z"/>
		</g>
		<path class="st3" d="M3477.9,4258.4c-0.6,0.7,76.7,40.6,176.7,42.1c104.6,1.5,202.8-34.7,196.8-38.8c0,0-76.5-33.2-170.2-35.1
			S3477.9,4258.4,3477.9,4258.4L3477.9,4258.4z"/>
		<g>
			<path class="st6" d="M3479.4,4277l34.9,522.3c92.6,39,190.7,41.7,284.4-6.3l53.3-512.2C3713,4337.2,3574.4,4323.6,3479.4,4277
				L3479.4,4277z"/>
			<path class="st6" d="M3493.4,4265.3c99-34.5,250.8-39.8,343.4,3.5C3717.9,4321.9,3561.6,4303.4,3493.4,4265.3z"/>
		</g>
		<g class="st15">
			<path class="st12" d="M3479.4,4277l34.9,522.3c92.6,39,190.7,41.7,284.4-6.3l53.3-512.2C3713,4337.2,3574.4,4323.6,3479.4,4277
				L3479.4,4277z"/>
			<path class="st12" d="M3493.4,4265.3c99-34.5,250.8-39.8,343.4,3.5C3717.9,4321.9,3561.6,4303.4,3493.4,4265.3z"/>
		</g>
		<path class="st7" d="M3492.3,4267.5c14.2,6.4,28.3,12.2,42,17l12.1,606.2c-9.9-3.3-19.7-7.1-29.1-12.5L3492.3,4267.5
			L3492.3,4267.5z"/>
		
			<linearGradient id="SVGID_13_" gradientUnits="userSpaceOnUse" x1="6804.1299" y1="-867.0636" x2="6673.6299" y2="-851.2836" gradientTransform="matrix(0.5662 0 0 -0.5662 -0.9748 4095.7776)">
			<stop  offset="0" style="stop-color:#FFFFFF;stop-opacity:0.7922"/>
			<stop  offset="1" style="stop-color:#FFFFFF;stop-opacity:0"/>
		</linearGradient>
		<path class="st25" d="M3786.3,4288.7c24.3-6.9,46.9-14.2,69.7-24.8l-63.7,613.7c-23.6,10.4-36.2,14.3-52.1,18.9L3786.3,4288.7
			L3786.3,4288.7z"/>
		<path class="st9" d="M3732.4,4897.8l45.6-606.9l-16.5,4.5l-42.3,605.7L3732.4,4897.8L3732.4,4897.8z"/>
	</g>
	<g transform="matrix(.56618 0 0 .56618 -452.28 21.535)">
		<path class="st1" d="M2493.9,4249.9l20.3,611c94.8,66.9,234.9,62.5,336,4.7l46.9-609.5C2740.1,4196.3,2613.7,4214.8,2493.9,4249.9
			L2493.9,4249.9z"/>
		<g>
			<path class="st2" d="M2509.3,4277l34.9,522.3c92.6,39,190.7,41.7,284.4-6.3l53.3-512.2C2742.9,4337.2,2604.3,4323.6,2509.3,4277
				L2509.3,4277z"/>
			<path class="st2" d="M2523.3,4265.3c99-34.5,250.8-39.8,343.4,3.5C2747.8,4321.9,2591.5,4303.4,2523.3,4265.3z"/>
		</g>
		<path class="st3" d="M2507.8,4258.4c-0.6,0.7,76.7,40.6,176.7,42.1c104.6,1.5,202.8-34.7,196.8-38.8c0,0-76.5-33.2-170.2-35.1
			S2507.8,4258.4,2507.8,4258.4L2507.8,4258.4z"/>
		<g>
			<path class="st6" d="M2509.3,4277l34.9,522.3c92.6,39,190.7,41.7,284.4-6.3l53.3-512.2C2742.9,4337.2,2604.3,4323.6,2509.3,4277
				L2509.3,4277z"/>
			<path class="st6" d="M2523.3,4265.3c99-34.5,250.8-39.8,343.4,3.5C2747.8,4321.9,2591.5,4303.4,2523.3,4265.3z"/>
		</g>
		<g class="st10">
			<path class="st12" d="M2509.3,4277l34.9,522.3c92.6,39,190.7,41.7,284.4-6.3l53.3-512.2C2742.9,4337.2,2604.3,4323.6,2509.3,4277
				L2509.3,4277z"/>
			<path class="st12" d="M2523.3,4265.3c99-34.5,250.8-39.8,343.4,3.5C2747.8,4321.9,2591.5,4303.4,2523.3,4265.3z"/>
		</g>
		<path class="st7" d="M2522.2,4267.5c14.2,6.4,28.3,12.2,42,17l12.1,606.2c-9.9-3.3-19.7-7.1-29.1-12.5L2522.2,4267.5
			L2522.2,4267.5z"/>
		
			<linearGradient id="SVGID_14_" gradientUnits="userSpaceOnUse" x1="5090.7207" y1="-867.0636" x2="4960.2207" y2="-851.2836" gradientTransform="matrix(0.5662 0 0 -0.5662 -0.9748 4095.7776)">
			<stop  offset="0" style="stop-color:#FFFFFF;stop-opacity:0.7922"/>
			<stop  offset="1" style="stop-color:#FFFFFF;stop-opacity:0"/>
		</linearGradient>
		<path class="st26" d="M2816.2,4288.7c24.3-6.9,46.9-14.2,69.7-24.8l-63.7,613.7c-23.6,10.4-36.2,14.3-52.1,18.9L2816.2,4288.7
			L2816.2,4288.7z"/>
		<path class="st9" d="M2762.3,4897.8l45.6-606.9l-16.5,4.5l-42.3,605.7L2762.3,4897.8L2762.3,4897.8z"/>
	</g>
	<g transform="matrix(.56618 0 0 .56618 -452.28 21.535)">
		<path class="st1" d="M4434.1,4249.9l20.3,611c94.8,66.9,234.9,62.5,336,4.7l46.9-609.5C4680.3,4196.3,4553.9,4214.8,4434.1,4249.9
			L4434.1,4249.9z"/>
		<g>
			<path class="st2" d="M4449.5,4277l34.9,522.3c92.6,39,190.7,41.7,284.4-6.3l53.3-512.2C4683.1,4337.2,4544.5,4323.6,4449.5,4277
				L4449.5,4277z"/>
			<path class="st2" d="M4463.5,4265.3c99-34.5,250.8-39.8,343.4,3.5C4688,4321.9,4531.7,4303.4,4463.5,4265.3z"/>
		</g>
		<path class="st3" d="M4448,4258.4c-0.6,0.7,76.7,40.6,176.7,42.1c104.6,1.5,202.8-34.7,196.8-38.8c0,0-76.5-33.2-170.2-35.1
			S4448,4258.4,4448,4258.4L4448,4258.4z"/>
		<g>
			<path class="st6" d="M4449.5,4277l34.9,522.3c92.6,39,190.7,41.7,284.4-6.3l53.3-512.2C4683.1,4337.2,4544.5,4323.6,4449.5,4277
				L4449.5,4277z"/>
			<path class="st6" d="M4463.5,4265.3c99-34.5,250.8-39.8,343.4,3.5C4688,4321.9,4531.7,4303.4,4463.5,4265.3z"/>
		</g>
		<g class="st20">
			<path class="st12" d="M4449.5,4277l34.9,522.3c92.6,39,190.7,41.7,284.4-6.3l53.3-512.2C4683.1,4337.2,4544.5,4323.6,4449.5,4277
				L4449.5,4277z"/>
			<path class="st12" d="M4463.5,4265.3c99-34.5,250.8-39.8,343.4,3.5C4688,4321.9,4531.7,4303.4,4463.5,4265.3z"/>
		</g>
		<path class="st7" d="M4462.4,4267.5c14.2,6.4,28.3,12.2,42,17l12.1,606.2c-9.9-3.3-19.7-7.1-29.1-12.5L4462.4,4267.5
			L4462.4,4267.5z"/>
		
			<linearGradient id="SVGID_15_" gradientUnits="userSpaceOnUse" x1="8517.5391" y1="-867.0636" x2="8387.0391" y2="-851.2836" gradientTransform="matrix(0.5662 0 0 -0.5662 -0.9748 4095.7776)">
			<stop  offset="0" style="stop-color:#FFFFFF;stop-opacity:0.7922"/>
			<stop  offset="1" style="stop-color:#FFFFFF;stop-opacity:0"/>
		</linearGradient>
		<path class="st27" d="M4756.4,4288.7c24.3-6.9,46.9-14.2,69.7-24.8l-63.7,613.7c-23.6,10.4-36.2,14.3-52.1,18.9L4756.4,4288.7
			L4756.4,4288.7z"/>
		<path class="st9" d="M4702.5,4897.8l45.6-606.9l-16.5,4.5l-42.3,605.7L4702.5,4897.8L4702.5,4897.8z"/>
	</g>
</g>
<g id="_255613040_3_">
	<path class="st4" d="M1636.3,133c-5.4-13.4-20.3-18.7-38.5-18c-19.6,0.1-32.9,17.6-36.5,43.7c-6.5,48-15.3,82.9-31.3,107.3
		c-23.2,35.2-25.6,73,2.6,105.8c14.5,16.9,37.1,23.1,68.8,23.7c41.8,0.7,73.9-12.7,89.4-48.3c17.1-39.4,5.7-80.3-21.6-121.7
		C1653.3,201.3,1647.6,161,1636.3,133z"/>
	<path class="st28" d="M1671.3,86h4.9c3.5,5.2,5.6,11,7.2,17.2l-3.6,1.8C1677.7,98.5,1675.1,92.1,1671.3,86z"/>
	<path class="st29" d="M1599.1,133c3.8,0.2,7.5,0.4,11.3,0.5c15.9-26.4,34-49.7,72.7-44.4c-2.7-6.9-5.5-13.9-8.2-20.8
		C1634.3,71.6,1614.4,99.6,1599.1,133z"/>
	<path class="st28" d="M1668.1,103.6c5.3-3.9,8.1-2.4,12.1-3.6c6.2-2.7,8.6-6.6,18.5-8.2c15.8-1.8,21.7,4,26.7,18.2
		c9.9,28.1-3.8,65.1,0.3,91.9c-45.8-12.3-69.1-29.4-70.1-67C1655.1,121.1,1658.7,110.6,1668.1,103.6z"/>
	<path class="st30" d="M1604.7,137.1c-8.5-0.6-12.9-5.6-16.9-11c11.5,6.6,24.3,7.8,38.5,2.9C1621.5,133.1,1617,137.5,1604.7,137.1z"
		/>
	<polygon class="st31" points="1682.5,108.8 1686.6,107.6 1692.4,121 1713,124.4 1694.6,125.1 1701.2,141.6 1719.2,144.2 
		1703.5,147.6 1708.9,168 1698.1,150.4 1687.6,158 1695.9,145.2 1688.8,127.6 1673.9,138.7 1687.2,122.8 	"/>
	<path class="st32" d="M1687.6,158l8.3-12.8l-7.1-17.6l-14.9,11.1l13.3-15.9l-4.7-14l1.4-0.4l-1.9-4.5l-1.7-4c-0.1,0-0.1,0-0.2,0.1
		c-0.7,0.2-1.3,0.3-1.9,0.4c-3.1,0.4-5.7-0.1-10.1,3.2c-9.4,7-13,17.5-12.6,31.3c1.1,37.5,24.2,54.7,69.7,66.9l-16.7-35.4l0.4,1.5
		l-10.7-17.6L1687.6,158z"/>
	<path class="st33" d="M1680.7,83c-5.3-0.5-10.4-0.8-15.1-0.5c-6.2,0.4-11.7,1.8-16.3,3.7c-4.6,1.8-8.3,4-11.9,6.6
		c-3.6,2.6-7.1,5.5-10.8,9.5c-3.4,3.6-6.9,8.1-11,14.3c-0.5,0.7-0.9,1.4-1.4,2.2c-2.4,3.8-4.9,8.3-7.5,13.1c1.5,0.1,3,0.1,4.6,0
		c2.9-4.8,5.9-9.4,9-13.8c12.3-16.9,27.6-29.9,52.2-29.8c1.7,0,3.3,0.1,5,0.2c1.7,0.1,3.5,0.3,5.4,0.6L1680.7,83z"/>
	<path class="st30" d="M1666.6,221.1c1.1,8.9,2.2,18.4,3,29.4c1.3,16.8,2.2,37.1,0.7,54.8c-1.5,17.7-5.5,33-11.1,43.3
		c-5.6,10.4-12.9,15.9-22.5,20s-21.5,7.1-42,9.5c-13.6,1.6-31,3-49.7,4.4c14,8.9,32.7,12.5,56.5,12.9c41.8,0.7,73.9-12.7,89.4-48.3
		c17.1-39.4,5.7-80.3-21.6-121.7C1668.3,224,1667.4,222.6,1666.6,221.1z"/>
</g>
<g id="_566188592_3_">
	<path class="st34" d="M2910.3,2899.6c-8.7-7.6-17-11.3-27.9-13c6.8-4.1,14.3-5.9,22.9-3.7c-4-9.8-9.9-18.1-18.1-24.7
		c10.8,0.5,19.2,3.6,23.7,10.8c3.2-14.5,9.7-25.5,20-32.6c-2.9,11.1-2.7,21.7-0.3,32.1c13.8-11.3,28.1-18.5,42.9-21.8
		c-4.1,5.5-6.8,11.4-5.3,19c14.1-6,27.9-8.4,41.3-5.2c-7.6,5.1-11.4,10.9-11.3,17.3c15.1,1.2,23.5,8.5,29.5,18.2
		c-13.4-3.3-17.7-1.6-18.4,2.1c11,1.5,17.9,6.3,21.8,13.4c-13.8-1.8-28.5,0.1-43.7,3.9L2910.3,2899.6z"/>
	<path class="st28" d="M2937.1,2901.8c-4.3-0.3-8.6-0.7-12.9-1.1c-7.4-11.7-11-22.6-5.8-31.8
		C2922.9,2880.3,2929.3,2891.2,2937.1,2901.8z"/>
	<path class="st4" d="M2956.3,2903.6c-3.3,0.2-6.7,0.3-10,0.5c-4.7-16-2.3-28.6,9.5-36.5C2953.7,2879.6,2953.8,2891.6,2956.3,2903.6
		z"/>
	<path class="st28" d="M2981,2912.6c-6.1-2.3-12.3-4.6-18.4-6.8c4.2-16.6,11.3-28.8,23.9-32.1c-2.5,4.7-3.7,9.5-2.4,14.2
		c8.3-0.4,13.6,0.5,15.5,2.9C2990.9,2895.1,2984.9,2902.6,2981,2912.6z"/>
	<path class="st12" d="M2861.7,2926.5c8.6-14.9,21.6-28.6,49.4-30c32.2-1.6,59.2,6.7,81.5,18.4c28,14.6,31.7,32.4,28.4,51.5
		c-7.8,44.9-35.8,71.9-70.5,96.8c-16.1,11.5-31.1,19.5-48.9,17.9c-21.7-2-31.2-17.5-36.8-37.3
		C2850.8,2994.2,2846.2,2953.2,2861.7,2926.5z"/>
	<path class="st35" d="M2986.4,2936.6c-3.3-0.5-3,11.7,3.4,3.8C2991.7,2938,2986.5,2936.6,2986.4,2936.6z"/>
	<path class="st35" d="M2942.6,2922.4c-3.3-0.5-3,11.7,3.5,3.8C2948,2923.8,2942.7,2922.4,2942.6,2922.4z"/>
	<path class="st35" d="M2916.9,2954c-3.3-0.5-3,11.7,3.4,3.8C2922.3,2955.5,2917,2954,2916.9,2954z"/>
	<path class="st35" d="M2959.8,2977.4c3.3-0.3,0.3-12.1-4.2-2.9C2954.3,2977.1,2959.7,2977.4,2959.8,2977.4z"/>
	<path class="st35" d="M2970.3,3024.6c3.4-0.3,0.3-12.1-4.2-2.9C2964.7,3024.3,2970.2,3024.6,2970.3,3024.6z"/>
	<path class="st35" d="M2886.7,3013.6c3.4-0.3,0.3-12.1-4.2-2.9C2881.2,3013.3,2886.7,3013.6,2886.7,3013.6z"/>
	<path class="st35" d="M2964.1,2925.8c-9.5,4.2,2,14.7,2.9,1.2C2967.1,2925.2,2965.2,2925.3,2964.1,2925.8z"/>
	<path class="st35" d="M2938.3,2957.4c-9.5,4.2,2,14.7,2.9,1.2C2941.3,2956.9,2939.5,2956.9,2938.3,2957.4z"/>
	<path class="st35" d="M2920.3,2911.6c-9.5,4.2,2,14.8,2.9,1.2C2923.3,2911,2921.4,2911.1,2920.3,2911.6z"/>
	<path class="st35" d="M2894.6,2943.2c-9.5,4.2,2,14.7,2.9,1.2C2897.6,2942.7,2895.7,2942.7,2894.6,2943.2z"/>
	<path class="st35" d="M2943.1,3017.4c-9.5,4.2,2,14.8,2.9,1.2C2946.1,3016.9,2944.3,3016.9,2943.1,3017.4z"/>
	<path class="st35" d="M2889.2,2913.2c-9.5,4.2,2,14.7,2.9,1.2C2892.3,2912.6,2890.4,2912.7,2889.2,2913.2z"/>
	<path class="st35" d="M2984,2983.1c8.3-6.2-5.2-14-3.1-0.5C2981.2,2984.3,2983,2983.8,2984,2983.1z"/>
	<path class="st35" d="M2930.4,3015.1c8.3-6.2-5.2-14-3.1-0.5C2927.6,3016.2,2929.4,3015.8,2930.4,3015.1z"/>
	<path class="st35" d="M2914.6,3019.7c8.3-6.2-5.1-14-3.1-0.5C2911.8,3020.9,2913.6,3020.5,2914.6,3019.7z"/>
	<path class="st35" d="M2969.2,2944.6c-12.2,5.4,2.4,13.9,2,1.8C2971.1,2945.8,2969.5,2944.4,2969.2,2944.6z"/>
	<path class="st35" d="M2896.1,2980.8c-12.2,5.3,2.5,13.9,2,1.8C2898.1,2982,2896.4,2980.6,2896.1,2980.8z"/>
	<path class="st35" d="M2943.5,2976.2c-12.2,5.3,2.4,13.9,2,1.8C2945.4,2977.4,2943.8,2976.1,2943.5,2976.2z"/>
	<path class="st35" d="M2968.6,2985.3c-12.2,5.4,2.4,13.9,2,1.8C2970.6,2986.5,2969,2985.2,2968.6,2985.3z"/>
	<path class="st35" d="M2895.6,3021.5c-12.2,5.3,2.5,13.9,2,1.8C2897.5,3022.7,2895.9,3021.4,2895.6,3021.5z"/>
	<path class="st35" d="M2925.4,2930.4c-12.2,5.4,2.5,13.9,2,1.9C2927.4,2931.6,2925.7,2930.2,2925.4,2930.4z"/>
	<path class="st35" d="M2899.7,2962c-12.2,5.4,2.5,13.9,2,1.8C2901.7,2963.2,2900,2961.9,2899.7,2962z"/>
	<path class="st35" d="M2938,3046.7c-12.2,5.3,2.5,13.9,2,1.8C2940,3048,2938.3,3046.6,2938,3046.7z"/>
	<path class="st35" d="M2974.9,2965.8c10.7-7.9-5.4-13-2.4-1.4C2972.7,2965.1,2974.6,2966,2974.9,2965.8z"/>
	<path class="st35" d="M2901.8,3002c10.7-7.9-5.4-13-2.3-1.4C2899.6,3001.3,2901.5,3002.2,2901.8,3002z"/>
	<path class="st35" d="M2946.8,2942.3c-10.6,5.7,3.2,13.6,3.5,2.5C2950.4,2943.3,2947.7,2941.9,2946.8,2942.3z"/>
	<path class="st35" d="M2921.1,2974c-10.6,5.7,3.2,13.6,3.5,2.5C2924.7,2975,2922,2973.5,2921.1,2974z"/>
	<path class="st35" d="M2958.4,3003.6c-10.6,5.7,3.2,13.6,3.5,2.5C2962,3004.6,2959.2,3003.1,2958.4,3003.6z"/>
	<path class="st35" d="M2939.5,2993.7c-10.5,5.7,3.2,13.6,3.5,2.5C2943.1,2994.7,2940.4,2993.2,2939.5,2993.7z"/>
	<path class="st35" d="M2954.8,3029c-10.6,5.7,3.2,13.6,3.5,2.5C2958.4,3029.9,2955.6,3028.5,2954.8,3029z"/>
	<path class="st35" d="M2981.9,3000c-10.6,5.7,3.2,13.6,3.5,2.5C2985.5,3001,2982.7,2999.6,2981.9,3000z"/>
	<path class="st35" d="M2908.8,3036.2c-10.5,5.7,3.2,13.6,3.5,2.5C2912.4,3037.2,2909.6,3035.8,2908.8,3036.2z"/>
	<path class="st35" d="M2886,3047c-10.5,5.7,3.2,13.6,3.6,2.5C2889.6,3048,2886.8,3046.6,2886,3047z"/>
	<path class="st35" d="M2903,2928.2c-10.5,5.7,3.2,13.6,3.5,2.5C2906.6,2929.1,2903.9,2927.7,2903,2928.2z"/>
	<path class="st35" d="M2877.3,2959.8c-10.5,5.7,3.2,13.6,3.5,2.5C2880.9,2960.8,2878.2,2959.3,2877.3,2959.8z"/>
	<path class="st35" d="M2931.9,3028.1c-10.5,5.7,3.2,13.6,3.6,2.5C2935.5,3029.2,2932.8,3027.7,2931.9,3028.1z"/>
	<path class="st35" d="M2876.9,2985.3c-10.6,5.7,3.2,13.6,3.5,2.5C2880.5,2986.3,2877.8,2984.8,2876.9,2985.3z"/>
	<path class="st35" d="M2875.9,2936.1c-10.5,5.7,3.2,13.6,3.5,2.5C2879.5,2937.1,2876.7,2935.6,2875.9,2936.1z"/>
	<path class="st35" d="M2910.6,3060c-10.6,5.7,3.2,13.6,3.5,2.5C2914.2,3061,2911.4,3059.5,2910.6,3060z"/>
	<path class="st35" d="M2997.2,2963.2c9.1-7.8-6.1-12.6-4-1.7C2993.4,2963,2996.4,2963.8,2997.2,2963.2z"/>
	<path class="st35" d="M2924.1,2999.3c9-7.8-6.1-12.5-4-1.7C2920.4,2999.2,2923.4,3000,2924.1,2999.3z"/>
</g>
<g id="_699425632_1_">
	<path class="st6" d="M356.9,2812.9c1.2,9.7,13.2,44.7,8.5,53.5c-74.6,146.2-173.2,175.2-272.9,167.4c-7.4-2.1-13.1-6.1-20.5-9.8
		c-2,6.8-4.6,13.6-6.6,20.3c9.5,6,13.9,8.7,21.3,11.3c179.8,149.5,351.9-64.9,303.3-187.4c1.7-7.5-9-46.2-11.3-55.5
		C372.7,2809.6,362.5,2811.6,356.9,2812.9z"/>
	<path class="st36" d="M76,3028.6l-4.7-2.7c-1.9,6.2-4.3,12.3-6,18.5c7.5,4.7,11.8,7.4,16.9,9.6c0.7-1.7,1.3-3.2,1.8-4.6
		c1.5-3.7,2.4-6.2,2.7-8.4c0.4-2.2,0.1-4-0.6-5.3c-0.7-1.3-1.9-2.2-3.6-3.4C80.7,3031.2,78.3,3029.9,76,3028.6z"/>
	<path class="st37" d="M294.9,3024.1c52.6-30.7,75-92.2,93.8-155.9l-22.4-5c-0.2,1.3-0.5,2.4-0.9,3.2
		c-74.6,146.2-173.2,175.2-272.9,167.4c-7.4-2.1-13.1-6.1-20.5-9.8c-0.2,0.6-0.4,1.3-0.6,1.9l4.7,2.7c2.4,1.3,4.7,2.6,6.5,3.7
		c1.8,1.1,2.9,2,3.6,3.4c0.7,1.4,1,3.2,0.6,5.3c-0.2,1.3-0.6,2.8-1.3,4.5C156,3055.9,227.4,3063.5,294.9,3024.1z"/>
	<path class="st38" d="M96.6,3051.5c2.1-2.3,7.8,0.8,10.8,1.5c0.4,0.1,0.4,3.1-5.3,1C100,3053.1,96.5,3051.6,96.6,3051.5z"/>
	<path class="st38" d="M176.5,3062.2c1.3-2.8,7.7-1.4,10.8-1.6c0.4,0,1.3,2.9-4.9,2.4C180.2,3062.9,176.5,3062.4,176.5,3062.2z"/>
	<path class="st38" d="M129,3054c-2.8,1.5-12.9-6-13.4,0.1c-0.1,1.6,10.2,3.1,11.9,3C127.5,3057.1,130.3,3053.3,129,3054z"/>
	<path class="st38" d="M208.3,3055.5c-2.3,2.2-14.1-2.1-12.8,3.9c0.3,1.5,10.7,0.1,12.2-0.4C207.7,3058.9,209.4,3054.5,208.3,3055.5
		z"/>
	<path class="st38" d="M86.9,3049.4c-2.3,1.2-1.7,4.4,1.9,5.8c3,1.2,7.5,7.3,8.6,3.2c0.4-1.4-3.9-6.9-6.2-7.8
		C90.6,3050.5,87,3049.4,86.9,3049.4z"/>
	<path class="st38" d="M102.8,3058.2c4.3,2,10.1,1.2,15,3c1.2,0.4,6.6,0.5,5,3.1c-1.5,2.3-21.2-3.2-20.3-5.2
		C102.6,3058.9,102.8,3058.2,102.8,3058.2z"/>
	<path class="st38" d="M172.9,3088.7c4.7,0.8,10.1-1.4,15.2-0.9c1.2,0.1,6.5-1.2,5.6,1.7c-0.8,2.6-21.3,2.2-20.9,0.1
		C172.8,3089.4,172.9,3088.7,172.9,3088.7z"/>
	<path class="st38" d="M184.3,3067c4.7,0.7,10-1.7,15.2-1.3c1.3,0.1,6.5-1.4,5.7,1.6c-0.7,2.6-21.2,2.8-20.9,0.7
		C184.3,3067.6,184.4,3067,184.3,3067z"/>
	<path class="st38" d="M224.7,3091c4.7,0.7,10-1.7,15.2-1.3c1.3,0.1,6.5-1.4,5.7,1.6c-0.7,2.7-21.3,2.9-20.9,0.7
		C224.7,3091.7,224.7,3091,224.7,3091z"/>
	<path class="st38" d="M270.4,3058c4.4-1.8,7.7-6.6,12.3-9c1.1-0.6,4.9-4.6,5.7-1.6c0.7,2.7-16.8,13.4-17.6,11.4
		C270.7,3058.6,270.4,3058,270.4,3058z"/>
	<path class="st38" d="M105.9,3065.6c0.4-0.5,15.2,5.7,19.5,6c2,0.1,5.4,1.3,4.3,4.2c-1.7,4.6-10.4-0.5-13.3-2.2
		c-3-1.8-3.3-2.8-7.3-4.2c-1.2-0.5-3.6-1.9-3.2-3.3L105.9,3065.6z"/>
	<path class="st38" d="M189.4,3073.2c0.2-0.6,16.2,1.2,20.4,0.2c2-0.4,5.6-0.3,5.4,2.8c-0.3,4.9-10.2,2.5-13.3,1.6
		c-3.4-0.9-4-1.8-8.2-2c-1.3-0.1-3.9-0.8-4-2.2L189.4,3073.2z"/>
	<path class="st38" d="M204.3,3098.1c0.2-0.6,16.2,1.2,20.4,0.2c1.9-0.5,5.5-0.2,5.3,2.8c-0.3,4.9-10.2,2.5-13.3,1.6
		c-3.4-0.9-4-1.8-8.2-2c-1.3-0.1-3.9-0.8-3.9-2.2L204.3,3098.1z"/>
	<path class="st38" d="M280.3,3064.4c-0.1-0.6,14.5-7.3,17.6-10.3c1.4-1.4,4.6-3.1,6-0.4c2.2,4.4-7.5,7.3-10.6,8.3
		c-3.3,1-4.3,0.6-8.1,2.5c-1.1,0.6-3.8,1.4-4.6,0.1L280.3,3064.4z"/>
	<path class="st38" d="M147.4,3056.5c-0.9-0.3-11.8-2.3-12.4-1.9c-5.6,3.8,2.7,7.6,6.4,7.4c2.8-0.2,9.1,1.6,9.2-2.2
		C150.7,3058.8,148.3,3056.8,147.4,3056.5z"/>
	<path class="st38" d="M226.7,3052.7c-1-0.1-12,1.1-12.5,1.7c-4.3,5.2,4.7,6.5,8.3,5.2c2.6-0.9,9.1-1,8.2-4.6
		C230.4,3054,227.7,3052.8,226.7,3052.7z"/>
	<path class="st38" d="M301.1,3029.5c-0.8,0.4-9.7,7.1-9.8,7.9c-1,6.7,7.4,3.2,9.8,0.2c1.8-2.2,7.3-5.6,4.7-8.2
		C305.1,3028.6,302,3029,301.1,3029.5z"/>
	<path class="st38" d="M333.5,2997.5c-0.8,0.4-9.7,7.1-9.8,7.9c-1,6.7,7.4,3.1,9.8,0.2c1.8-2.2,7.3-5.6,4.7-8.2
		C337.4,2996.7,334.4,2997.1,333.5,2997.5z"/>
	<path class="st38" d="M137.4,3077.1c1.8,1.7,26.6,10.5,29.9,10.9c1.8,0.2-0.8,2.9-3.8,3.2c-3.3,0.3-28.7-3.1-25.9-9.7
		C137.9,3080.4,138.1,3077.8,137.4,3077.1z"/>
	<path class="st38" d="M222.8,3075.3c2.3,1.2,28.5,2.6,31.7,2c1.7-0.3,0.1,3-2.8,4.1c-3,1.3-28.4,5.1-27.6-2.1
		C224.3,3078.3,223.8,3075.8,222.8,3075.3z"/>
	<path class="st38" d="M309.5,3050.8c2.5-0.2,25.8-12.5,28.2-14.6c1.4-1.2,1.6,2.5-0.3,5c-2,2.6-21.7,19-24.7,12.5
		C312.3,3052.6,310.5,3050.7,309.5,3050.8z"/>
	<path class="st38" d="M342.9,3030.9c2.1-1.4,16.4-23.5,17.5-26.5c0.6-1.7,2.6,1.4,2.2,4.5c-0.4,3.3-9.7,27.2-15.5,23
		C346.2,3031.1,343.8,3030.3,342.9,3030.9z"/>
	<path class="st38" d="M255,3044.9c2.5,0.1,27-9.6,29.7-11.4c1.5-1,1.3,2.7-0.8,4.9c-2.3,2.4-23.7,16.5-26,9.7
		C257.6,3047,256.1,3045,255,3044.9z"/>
	<path class="st38" d="M358.5,2962.2c1.9-1.7,12.9-25.6,13.6-28.7c0.4-1.7,2.8,1,2.8,4.1c0,3.3-5.8,28.3-12.1,24.9
		C361.9,2961.9,359.3,2961.4,358.5,2962.2z"/>
	<path class="st38" d="M382.2,2946c1.3-2.2,4.8-28.3,4.5-31.5c-0.2-1.8,2.9,0.1,3.9,3.1c1,3.1,2.8,28.7-4.2,27.4
		C385.3,2944.8,382.8,2945.1,382.2,2946z"/>
	<path class="st38" d="M131.6,3065.1c6.4,1.8,12,3.8,18.5,5.1c6.4,1.3,7.3,8.1-0.1,5.5c-1.3-0.4-20.8-5.9-19.6-8.8
		C130.8,3066,130.6,3064.8,131.6,3065.1z"/>
	<path class="st38" d="M195.9,3082.8c6.4,1.8,12,3.8,18.5,5.1c6.4,1.3,7.3,8.1-0.1,5.5c-1.3-0.4-20.8-6-19.6-8.8
		C195.1,3083.7,194.9,3082.5,195.9,3082.8z"/>
	<path class="st38" d="M213.9,3065.5c6.6-0.1,12.6,0.3,19.1-0.3c6.5-0.6,9.2,5.7,1.5,5.3c-1.4-0.1-21.6,0.1-21.3-3
		C213.4,3066.6,212.9,3065.5,213.9,3065.5z"/>
	<path class="st38" d="M296.8,3046.9c5.7-3.5,11-6.2,16.3-10.1c5.3-3.9,10.9,0.1,4,3.8c-1.2,0.6-18.4,11.3-19.7,8.4
		C296.9,3048.2,295.9,3047.4,296.8,3046.9z"/>
	<path class="st38" d="M378.8,2926.4c0.4-6.6,1.3-12.6,1.2-19.1c-0.1-6.5,6.4-8.8,5.4-1.1c-0.2,1.4-1.5,21.5-4.6,21
		C379.9,2927,378.7,2927.4,378.8,2926.4z"/>
	<path class="st38" d="M389.2,2904.1c-0.6-6.6-0.7-12.6-1.9-19.1c-1.1-6.4,4.9-9.7,5.2-1.9c0,1.4,1.9,21.5-1.2,21.4
		C390.3,2904.5,389.3,2905.1,389.2,2904.1z"/>
	<path class="st38" d="M244.8,3096.6c6.1-2.7,11.7-4.7,17.5-7.8c5.7-3.1,10.8,1.6,3.5,4.3c-1.3,0.5-19.8,8.6-20.7,5.6
		C244.7,3097.8,243.8,3097,244.8,3096.6z"/>
	<path class="st38" d="M295.9,3076.6c4.8-4.6,9.4-8.4,13.7-13.3c4.3-4.9,10.6-2.2,4.7,2.9c-1,0.9-15.6,14.9-17.5,12.4
		C296.3,3077.8,295.2,3077.3,295.9,3076.6z"/>
	<path class="st38" d="M175.1,3058.5c-0.4,0.1-10.5-1.7-15-1c-12.8,2,7,9.5,14.2,0.9C174.7,3058,174.9,3058.6,175.1,3058.5z"/>
	<path class="st38" d="M253.8,3046.9c-0.4,0.3-10.6,1.3-14.7,3.2c-11.7,5.5,9.4,7.1,13.9-3.1C253.2,3046.5,253.7,3047,253.8,3046.9z
		"/>
	<path class="st38" d="M275.8,3074.3c-0.3,0.3-10.6,1.3-14.7,3.2c-11.7,5.5,9.4,7.1,13.9-3.1
		C275.2,3073.9,275.6,3074.4,275.8,3074.3z"/>
	<path class="st38" d="M289.2,3078.9c-0.4,0.3-10.6,1.3-14.7,3.3c-11.7,5.5,9.4,7.1,13.9-3.1C288.6,3078.5,289.1,3079,289.2,3078.9z
		"/>
	<path class="st38" d="M321.4,3010.4c-0.2,0.4-8.4,6.6-11,10.4c-7.2,10.7,11.7,1.2,10.3-9.8C320.7,3010.4,321.3,3010.6,321.4,3010.4
		z"/>
	<path class="st38" d="M353.7,2978.5c-0.2,0.4-8.4,6.6-11,10.4c-7.2,10.7,11.7,1.2,10.3-9.8C353,2978.5,353.7,2978.7,353.7,2978.5z"
		/>
	<path class="st38" d="M369.5,2962.8c-0.2,0.4-8.4,6.6-10.9,10.3c-7.2,10.8,11.7,1.3,10.3-9.8C368.8,2962.8,369.4,2963,369.5,2962.8
		z"/>
	<path class="st38" d="M379.1,2968.5c-0.2,0.4-8.4,6.6-11,10.4c-7.2,10.8,11.7,1.3,10.3-9.8C378.4,2968.5,379,2968.7,379.1,2968.5z"
		/>
	<path class="st38" d="M160.5,3067.4c0.8-0.4,18.6-2.8,17.9,1c-1.4,7.2-10.8,2.3-16.5,1.9C159.2,3070.1,160.8,3067.3,160.5,3067.4z"
		/>
	<path class="st38" d="M242.3,3059.6c0.7-0.6,17.1-7.9,17.4-4.1c0.6,7.3-9.7,5.2-15.3,6.4C241.7,3062.5,242.6,3059.3,242.3,3059.6z"
		/>
	<path class="st38" d="M277.6,3072.8c0.7-0.6,17.1-7.9,17.4-4.1c0.6,7.3-9.8,5.2-15.3,6.4C277,3075.8,277.9,3072.6,277.6,3072.8z"/>
	<path class="st38" d="M318.1,3027.2c0.3-0.9,10.6-15.6,12.8-12.5c4.3,5.9-5.6,9.5-9.8,13.4C319.1,3030,318.2,3026.9,318.1,3027.2z"
		/>
	<path class="st38" d="M336.5,3012.6c0.3-0.9,10.6-15.6,12.8-12.5c4.3,5.9-5.7,9.5-9.8,13.4C337.5,3015.4,336.6,3012.2,336.5,3012.6
		z"/>
	<path class="st38" d="M350.4,2995.3c0.3-0.9,10.6-15.6,12.8-12.5c4.3,5.9-5.6,9.5-9.8,13.4C351.4,2998.1,350.5,2994.9,350.4,2995.3
		z"/>
	<path class="st38" d="M381.2,2967.5c-0.2-0.9,2.4-18.7,5.8-16.9c6.5,3.3-0.8,11-2.7,16.4C383.4,2969.6,381.2,2967.2,381.2,2967.5z"
		/>
	<path class="st38" d="M161.4,3075.9c0.3,0.1,19.2,1,21,0.9c0.9-0.1,4.7,1.2,1.1,3.9c-3.8,2.9-22.8-3.5-22.7-3.6
		C160.8,3077.1,161.3,3075.9,161.4,3075.9z"/>
	<path class="st38" d="M245.5,3067.4c0.3,0,18.7-4.4,20.4-5c0.8-0.3,4.9-0.2,2.2,3.4c-2.9,3.8-22.8,3.1-22.8,3
		S245.4,3067.4,245.5,3067.4z"/>
	<path class="st38" d="M324.9,3032.3c0.3-0.2,13.8-13.4,14.9-14.8c0.6-0.7,4.1-2.7,3.6,1.8c-0.5,4.8-18,14.4-18,14.3
		C325.3,3033.6,324.8,3032.4,324.9,3032.3z"/>
	<path class="st38" d="M357.2,3000.4c0.3-0.2,13.8-13.4,14.9-14.8c0.6-0.7,4.1-2.7,3.6,1.8c-0.5,4.7-18,14.4-18,14.3
		C357.7,3001.6,357.1,3000.5,357.2,3000.4z"/>
	<path class="st38" d="M373.5,2968.7c0.1-0.3,2.5-19.1,2.6-20.9c0-0.9,1.6-4.7,4-0.8c2.6,4-5.2,22.4-5.3,22.4
		C374.6,2969.4,373.5,2968.8,373.5,2968.7z"/>
	<path class="st38" d="M177.4,3096.2c0.3,0,18.7-4.4,20.4-5c0.8-0.3,4.9-0.2,2.2,3.4c-2.9,3.8-22.8,3.1-22.8,3
		C177.1,3097.5,177.3,3096.2,177.4,3096.2z"/>
	<path class="st37" d="M377.1,2865.7l-7.8-54.6c-4.5,0.1-9.2,1.1-12.4,1.8c1.1,8.8,11,38.3,9.4,50.3L377.1,2865.7z"/>
</g>
</svg>
